<mxfile host="app.diagrams.net" agent="Mozilla/5.0 (X11; Linux x86_64) AppleWebKit/537.36 (KHTML, like Gecko) Chrome/127.0.0.0 Safari/537.36" version="24.7.7">
  <diagram name="Page-1" id="cncjauu4Y81-x8319WQc">
    <mxGraphModel dx="1853" dy="1704" grid="1" gridSize="10" guides="1" tooltips="1" connect="1" arrows="1" fold="1" page="1" pageScale="1" pageWidth="827" pageHeight="1169" math="0" shadow="0">
      <root>
        <mxCell id="0" />
        <mxCell id="1" parent="0" />
        <mxCell id="xmimKuC7x2Rp39GVIo0d-238" value="" style="shape=image;imageAspect=0;aspect=fixed;verticalLabelPosition=bottom;verticalAlign=top;image=data:image/png,iVBORw0KGgoAAAANSUhEUgAABSIAAAPyCAYAAABoxqEyAAAACXBIWXMAAA7DAAAOwwHHb6hkAAAgAElEQVR4nOzdeXSU54Hn+18tUmkDswqMMQIb7LKdYOTY7o5JovbYCY0TpZmbVZ3gISaxPek5SLmJz/h29+imuZkZ9+k+Holz7r2xJz6h3enm9uKEjrrjITYxsuMlNhiZtUAg0ALa0VZ7vcv9oyQhCQESqtIrqb6fc3SQqt563l/pPMji5+d5X5dt2xWStggAAAAAAAAA0sRl2/YBSSVOBwEAAAAAAAAwd7mdDgAAAAAAAABg7qOIBAAAAAAAAJB2FJEAAAAAAAAA0o4iEgAAAAAAAEDaUUQCAAAAAAAASDuKSAAAAAAAAABpRxEJAAAAAAAAIO0oIgEAAAAAAACkHUUkAAAAAAAAgLSjiAQAAAAAAACQdhSRAAAAAAAAANKOIhIAAAAAAABA2lFEAgAAAAAAAEg7ikgAAAAAAAAAaUcRCQAAAAAAACDtKCIBAAAAAAAApB1FJAAAAAAAAIC0o4gEAAAAAAAAkHYUkQAAAAAAAADSjiISAAAAAAAAQNpRRAIAAAAAAABIO4pIAAAAAAAAAGlHEQkAAAAAAAAg7SgiAQAAAAAAAKQdRSQAAAAAAACAtKOIBAAAAAAAAJB2FJEAAAAAAAAA0o4iEgAAAAAAAEDaUUQCAAAAAAAASDuKSAAAAAAAAABpRxEJAAAAAAAAIO0oIgEAAAAAAACkHUUkAAAAAAAAgLSjiAQAAAAAAACQdhSRAAAAAAAAANKOIhIAAAAAAABA2lFEAgAAAAAAAEg7r9MBAAAAgNmmp6dHLS0t6u7uVn9/v7KzsxWPxzVv3jwtWrRIt9xyi5YsWeJ0zKvmnD9/vhYuXDhjcgIAgMzgsm37gKQSp4MAAAAAs8Hvfvc7dXV1KRaLybbtcY/Jzs5WXl6ePvWpT8nn801zwqTr5XS5XMrOzlZubq6jOQEAQOagiAQAAAAmoK+vTwcOHJBhGBN+jdvt1h133KF77rknjclGG8ppmuZVi9KxnMgJAAAyD0UkAAAAcB3d3d166623ZJrmpF/rdru1aNEilZSk/1funp4e1dbWzvicAAAgM3GzGgAAAOAaBgYGbriElCTLstTV1aXf/OY3KU422sDAwA2XkFIyZ3d3d9pzAgCAzEURCQAAAFzDb3/72xsu90bq7e3V8ePHU5BofKnIadt22nMCAIDMRREJAAAAXEV9fb0ikUhKxrJtW/X19QoGgykZb6T6+npFo9GUjDWUMxQKpWQ8AACAIRSRAAAAwDhM01R9ff2Eb/gy0TF/97vfpWy8oTHr6+tlWVZKx3zvvfdSNh4AAIBEEQkAAACM68KFCylbZThSMBhUV1dXysabLTkBAAAoIgEAAIBxtLS0pHQ15BDDMNTc3Jyy8WZLTgAAAIpIAAAAYBwdHR1pG/vChQspG2u25AQAAKCIBAAAAMZhGEbaxo7FYikba7bkBAAAoIgEAAAAxpHOgi+VY6czZyKRSNvYAAAg81BEAgAAAONwu2fHr8rpzOlyudI2NgAAyDyz47crAAAAYJqlc1tyKsdOxx2zh7A1GwAApBJFJAAAADCOgYGBtNyN2rIs9fb2pmy8YDA4K3ICAAB4nQ4AAAAAzEQej0eGYSgrKyul4xqGoZycnHGf6+joUEtLizo7O2XbtlwulxYvXqwVK1bo5ptvHnertMfjUSKRUHZ2dspz5ubmpnRMAACQ2SgiAQAAgHGsWLFC7e3tWrhwYcrGtG1bra2tuv/++6947rXXXlMoFJJpmqMeDwaDamlpkc/n04MPPqjFixePmzOVRaRlWWptbdUDDzyQsjEBAADYmg0AAACM495771VLS0tKtz339/drYGBA991336jHfv7zn6u/v/+KEnKIaZoKh8N66623VFdXl/acAwMDGhgYUHFxccrGBAAAoIgEAAAAxrFq1SrdeuutCgQCVy0IJyORSOjUqVN6+OGHVVBQIEkKh8M6cODAhEtE0zTV0NCggwcPjpvTsqy05AQAAEgFikgAAADgKrZv366+vj6dPXv2hks+27YVjUb1wQcfqKioSJ/5zGeGn3vttdeUSCQmPV5TU9OolZFDOc+cOXPDpem1cgIAAKQCRSQAAABwDd/61rfU19enU6dOTbqMtCxLnZ2dOnTokPLz8/Xd7353+Lm6ujoZhnFDmWzb1vnz59Xd3T0qZ39/v06fPp3SnAAAAKni+eEPf7hN0mqHcwAAAAAz0tKlS7VgwQJ99NFHOn/+vAoKCuT1euXxeK76GsMwFIvFdPToUXV1dWnx4sX68z//8+G7XofDYdXV1U1py7dt2+ro6NDatWvlcrm0dOlSLVy4UHV1dWpsbFRBQYE8Ho/cbve4d9uWktuw4/G4jh07ps7OzityAgAApBJ3zQYAAACu4/7771deXp5++tOf6uTJkyooKNCSJUs0b9485efnD69sDIfD6unpUTAY1MDAgDwej+6//359/etfHzXehQsXFI/Hp5wrGo2qtbVVK1askCR94hOfUG5u7nVzRiIR9fT0DN+U5mo5AQAAUsll2/YBSSVOBwEAAABmg5deeknNzc0KBoNX3QKdm5ur+fPna/v27VqyZMkVzx84cGDUtuqpWLVqlR544IGr5gyFQlddeXm9nAAAAKlEEQkAAABM0tDNYpqamtTa2qrc3FzZtq3CwkLdddddWr16tVatWnXV1//iF79IyR2uJSkrK0tf/OIXr5pzaEt5W1vbpHMCAACkEluzAQAAgElatWrVlAo8wzDkdqfmvpHXuuv2VHMCAACkEnfNBgAAAKZZqlZDpnosAACAdGJFJAAAADCOnp4edXd3q6OjQ319fZKSN3nJy8tTKBSa1FgLFizQI488Mvx1PB6X15uaX8Wj0eior/fv36/e3t4Jvz4/P1/hcFiSlJeXJ6/Xq5tuukmFhYVauHCh5s+fn5KcAAAAFJEAAADAINM0dfz4cV28eFGxWEymacq27VHHTLaElJJ307506ZIWLVo0PEZeXl5KMg8MDAx/funSpeFScaJGvp+hz/v6+tTc3CyPx6OcnBytWrVKd911V0ryAgCAzEURCQAAAEg6e/asPvroI7lcrpRvd3a5XKOKSI/HI8MwprwqMpFIjBrj0qVLUxpvJNu2ZRiGgsGgAoGATpw4ofvvv19FRUUpOwcAAMgsXCMSAAAAGe/IkSM6ceKEbNtOyzUXY7GYOjs7h78uLCxMybiRSETLly8f/rqjo0PxeDwlY4809D05cuSIjh8/nvLxAQBAZqCIBAAAQEY7ffq0zp8/n5YCb6Tu7u7hz1evXq2WlpYrtn1P1vnz57V+/fpxz5EO8XhcZ86cUX19fVrPAwAA5iaKSAAAAGSs9vZ2nTx5UolEIu3nisViOnXqlCTp3nvvVXd39w2Xn7Zt6+zZs1q+fLlWr14tSQoEAtPyPgzD0PHjx0et8AQAAJgIikgAAABkrEOHDskwjGk734kTJ4Y/37Jli44cOTLp85umqaamJrW1tenpp58efvzkyZNTXmE5mQwHDx6clnMBAIC5gyISAAAAGamlpUWmaU7rOd1ut+rq6iRJDz74oAoKCnTo0KEJX5fSsiy1tLSovb1dX/rSl+RyuSRJH3744fDn08UwDF28eHFazwkAAGY3ikgAAABkpHTd2OVaDMNQU1PT8MrI73//+/J4PHr33XcVCoWuWkiapqlYLKa6ujq1t7frkUce0caNGyVJx48fd6RUjcfjam9vn9ZzAgCA2Y0iEgAAABmpt7fXkfMmEgk1NTXpyJEjys3NVWVlpbKzs1VXV6cTJ06ora1NkUhEsVhMkUhEHR0dOn36tA4dOqR4PK7Pfvaz+tznPidJqqurU3Nz87RcG3I8PT09jpwXAADMTi7btg9IKnE6CAAAQDrs2rVLZ86ccToGZqDbb79dK1eudOz8WVlZWrp0qT7xiU8oOztbzz///FVXaWZlZamgoEBPP/20li5dqng8roMHD6qrq8uxElJKbm8/e/asY+cHgNls7dq12rFjh9MxgGnldToAAABAOp05c0a7du1yOgZmoF/+8peOlniJREIXL15Ue3u7Vq1ape9+97tqbm5WXV2dzp49K8Mw5PF4tHr1am3YsEF+v1+xWEwffvihmpqaZFnWtN2c5mrWrFmj8vJyRzMAwGxFCYlMRBEJAACAjORkCTmSaZpqbm5Wc3OzVq1apc985jP6yle+MuqY9vZ21dXVqampSbZtT/v1IK9mpnwPAQDA7EARCQAAADjMMAxJ0rlz59Tc3Ky8vDw9+uijkqTXX39d4XCY0g8AAMx6FJEAAADADGHbthKJhPr6+oYfG/k5AADAbEYRCQAAAKTZyO3UXq9XsVhMAwMDcrlc8ng88nq9wx9ut3t4haQkxeNxeb1eWZalRCIh0zRlGIbi8bhyc3OVm5srt9st0zTl8XjkdrudepsAAADXRBEJAAAAjDFU6g39eaMSiYQ8Ho9aW1s1MDCgcDisSCQyodeWlZVJkj744IPrHuv1epWfn6+cnBwVFRXJtm1lZ2ffcO5UvX8AAICR+N+lAAAAwBgej0dvv/32DZdwlmXJNE21tbXp/fff1/nz59Xd3T3hEnKyDMNQX1+f2tvbh88Xi8Vu+KY2U33/AAAA42FFJAAAAJBCpmmqv79fJ06cGPV4dna2cnJyFI1G5fF4dNttt8kwDMViMSUSCUWjUUWjUcViMS1btmz4dbfccos6OjqUnZ2t3Nxc+Xw++Xw+LViwQBcuXFBnZ6fy8vJk27bC4bBs21ZnZ6c6Ozt1yy23aOXKlfJ6+bUfAAA4j99IAAAAgBSJx+Pq7u5WQ0ODJMntdis/P18rVqzQ7bffrpUrV2rlypUqKCiY8Jjf//73r3vMxYsX1dLSoo6ODr355pvyer2KRqO6cOGCDMPQrbfeKp/Pd8PvCwAAIBUoIgEAAIAUsCxLAwMDwyVkfn6+Fi9erC984Qtau3bt8HHd3d3DW7UHBgZkGIZycnIUCoUmdJ78/HzF43H5fD7l5eVp4cKFuvnmm/Xggw9Kkh599FH9y7/8i+rq6hSPx9Xe3q78/HwVFhay1RoAADiKIhIAAAAYx/PPP69XXnllwsebpqlAIDD89RNPPKE1a9ZIktra2lRfX6/Ozs7hO1yPNNEScuSxiURCwWBQHR0dOnv2rLKysnTHHXdo7dq1+trXvqZNmzbppz/9qS5cuKCGhgYtXLhwUkXkZN8/AADA9XCzGgAAAGCKEomETpw4IZfLpaysLD3//PNas2aNent79dprr+n9999XR0eHbNu+4RvIXIthGIpEIjp69Kj27dunUCikBQsW6Hvf+56WLFkit9utQCCgRCKR8nMDAABMFEUkAAAAMEWWZSkYDGrRokX6y7/8S0lSe3u73n33XfX3909bATiU4/XXX1dHR4ck6dlnn9WyZcsUCoXSUoICAABMFEUkAAAAMAWWZam5uVm5ubn68pe/LEnq6+vT+++/r3A47EgmwzD03nvvqa2tTZL0jW98Qzk5OWppaZFlWY5kAgAAoIgEAAAApsCyLEWjUfn9ft15550Kh8M6cOCA4vG4o7kSiYTef/999ff3a8WKFbrvvvsUiURk27ajuQAAQOaiiAQAAEBGutYNYoaem8hNZOLxuCKRiD7/+c9Lkt577z0ZhpGakFOUSCT03nvvSZI+97nPKRKJKBaLXfd1E33/k7nJDgAAAHfNBgAAQEaqq6u75vOPP/74dY8ZsnLlSi1atEgdHR0zrpwLh8M6c+aM1q5dqxUrVujw4cMTet1E3//jjz8+1YgAACBDsCISAAAAmILs7Gx9+tOfliS1tLQ4viV7LNM0dfLkSUnSxo0blZ2d7XAiAACQqSgiAQAAgCnweDxavny5JKm3t9fhNOMzDEMXL17U8uXL5XbzTwAAAOAMfgsBAABARlqxYsV1n7vWMUMWLFigW2+9VVLybtkzkWVZamho0MqVK7Vw4cLrHj/R9z+R7w8AAMAQrhEJAACAjPSDH/wgJceMZJqmXC7XjUZKq2AwKEl65plnJvyayb5/AACAa2FFJAAAAJAiM7WElLjDNQAAcB5FJAAAAAAAAIC0o4jE7NO4W2XFxSourlSt01mAG8U8BgAAAABkGIpIOKxRu8uKVVx85UfZ7sYZkatyprREtYPFVdluOfmdwXiYxxPGPAYAAACAjEURCcxAjbvLximxGhRwLBEwecxjABjNNM1Rf6Z67HSMCwAAkErcNRszRmnVYe0scTrFDFayU4cP73Q6Ba6DeXwdzGMAGczj8ejtt9/Wxo0b0zI2AADATMeKSMwCtaoc3vZapso3Gq48pHH3iGNGfIzYj9q4u3LwmnyDW2Yra6ewNbRRtbvLxow3dqtpo2oryy5nKbt8LcCxry0uq1Ry0VhyK+2W6uSasUD1lnG2+468puD1ctSqcnAbbG3tiPdfVqla9sVOM+Yx8xgAAAAAMhtFJGaMmoqRhcZQCdGo3WUVqhneyxlQTXXNmK2dtarcUj3imCs17i7TljGvC9RUaMsNXjivtnKLKqoDY8ar1pYR172rrdyiipGhAjWqqKyVVKv9Y16rQI2qn538NfMmkiP5YLUqKka8/0CNKm7gfLg+5jHzGACu5fnnn3c6AgAAgGMoIjGzNb6hfQFJ8qt872EdPrxXVeX+0cfU7leNJJVWae/hwzq8t1ylkuQv196dJZJq9VJ1YMQYh3V4b5VK/ZJq9k/+jsWNu/XjmsFMVXsHxyuXX5IC1Xqpdswxg+fcW1Uq/22rJZVoe9Vg1pF5Aw06ryJt23NYewffo798cPyR55hMjhH8Q9+fqtLkA4EGnZ/se8eNYR4zjwEAAAAAXCMSM8e419Y7P3hjC/8mPVwkSUUqeXiT/CNXT62+TX5Jgfr9eqNWWnNuX7LQWbdGRdLlgkcBVW8pVvWoE9TrXKNUUjSJoCMzDb2waJueLq1WRY1Uf65RwzfkGM4tFZXs1J7h97dfz5ZVKDCVu3ZMJMfw+fzatL0k+f0oeUSlqhn8niDVmMeTxDwGAAAAgIxBEYnZr2iN1kkKBGpUXZGsJfyl5XpuJtwxZKhEGqlxt56tGLstFxmPeQwAAAAAmOPYmo2ZbXCVmAL79MbgTTBq39g3qvxo3P1j1Si5Em1o++eendsuFydDY6j08pbW4Y892jaZVWTjZtKo7aWbHh4xYM2PB2/eITXWViZvLDKUv7Rq9JbWcQQazqcmB5zFPE5NDgAAAADArMaKSMwYNRXFo7ZZ+sv3as+2h7XJX61AYLztqElFa9ZJCox5vV/+0qf13M4SFQ1v86xR9Zaa0WP4y7V3z7YrV3tdNVepqg5vv3qm0qeThVDRdpX7a1Q99pjSR4bzqqZCxdfbVzp4jL98r/Y8PPaNX+N7M5QD0455PO7JmccAAAAAAFZEYqYr0rbnBm/IIUnyq7SqSqPu87H6kXFWYgUUqKnQs4PLuEp27lVVqV/+K467wUx79qq8dORo/uRNNIa30V55jN9frqrtJVLJTlWNfLy0XOVj3kDRtudGvXbdmvHamInkwMzAPJaYxwAAAACQ6Vy2bR/QiFsBALNNbWWxKmpG3ySktrJMFTWB5LZRygzMAsxjIH127NihXbt2OR0DGeLll19Wfn7+uM+FQiE9/vjj1zzmRoVCIUm65rhD5wcAzAz8joJMxNZszBljt8RKUukjlDeYXZjHADC71dXVXfP5xx9//LrHpBNFJAAAcBJbszHrlewcu61Tkr9U5VV7xSIyzBbMYwCYG1asWHHd5651zFTOe71x03FeAACAyWBrNgAAmNPY9gQAAGYifkdBJmJFJAAAAAAAAIC0o4gEAAAAAAAAkHYUkQAAAAAAAADSjiISAAAAAAAAQNpRRAIAgDmnv79/Uo8DAAAASD+v0wEAAABS7YUXXlB7e7v8fr8k6Sc/+YkCgYCWLVumZ555xuF0mLsatbtsi6oDUmnVYe0sGfFUbaWKK2oklarq8E6VXG0IAACAOYwVkQAAYM7ZtGmTPB6Pjh49Kq/XO/znpk2bnI4GAAAAZCyKSAAAMOesX79ehYWFsm1bhmHItm0tXbpU69evdzoaAAAAkLEoIgEAwJy0detW+Xw+SZLP59PWrVsdTgSM1li7W2VlxSouLlZxcZkqaxtHP7+7UmXFQ88Xq6yyVpePqFVlcbGKy3ardui4st1qnMC4AAAATqGIBAAAc1JhYaE2bNggj8ejDRs2qLCw0OlIwGWNu/VsRbUCgaEHAqqpeEm1w0+XaUt1jQIjXhKoqdCWytrR4wSqVTHyuOuMCwAA4CRuVoNZpfUHTyl+7qzTMdIme83tuvmvX3A6Bhw01+e4xDzH9M7zT0lqXLpGn/r5T9X4859Oyzkl5jkm4HxDsjz0l2vvnm0qaqzV7mf3Dz5Zq5eqA5L8Kt+7R9uKJDXWqvLZCtXU7FftzpLRN7sprdLenSUqkqTaymuMCwAA4CxWRGJWmesFzVx/f7i+TJgDmfAecW3TPQe+0XluWs8nMc8xASWPqNQvKVCtLcXFKnvpnNY8N3g37dr9qpEkBVS9ZXCL9ZYK1QQkqV7nRu209qt8+2AJeb1xAQAAHEYRCQAAAKRY/bmrXJfRf5tWS5JKtHPPXlWVl8rvlwI11arYUqbdU76cY7rGBQAAmDqKSAAAACAlirRmXfKzQPVLGr5HTGOtKiuSaxy1bs3wFuqyyvNavW2n9uw5rKrkMkbte6NRWn2b/JKkUpXvPazDh0d+DG7VvpprjQsAAOAwrhEJAAAApEjJ9nL5a6oVUI0qttSMeTa5jXpIoKZCYw9Zt6ZIKtqmp0urVVFTo+otNaoeNcTgtR+vkeGq4wIAADiMFZEAAABAqhRt0569VSr1+0c97PeXqmrviNWMJdsHVysOH6DSqr3aOdhTluzcq6pSv0aPMgHXGRcAAMBJLtu2D0hcvxqzQ+OXHnU6QtoVvfK60xHgoEyY4xLzPNMxzwEAAKQdO3Zo165dTscAphUrIgEAAAAAAACkHUUkAAAAAAAAgLSjiAQAAAAAAACQdhSRAAAAAAAAANKOIhIAAAAAAABA2lFEAgAAAAAAAEg7ikgAAAAAAAAAaUcRCQAAAAAAACDtKCIBAAAAAAAApB1FJAAAAAAAAIC0o4gEAAAAAAAAkHYUkQAAAAAAAADSjiISGcuwrRkxBpBOzHPMdcxxAAAAYPbwOh0AcIrX5da/Nl2c0hhfWLUiRWmA9GCeY65jjgMAAACzBysiAQAAAAAAAKQdRSQAAAAAAACAtGNrNjLan3xwYkqvb/zSoylKAqQP8xxzHXMcAAAAmB0oIpExTMuWKVtuSW6XS0HDmPKY/YmE8r0eWbZLLtlyu9xyu6aeFbhRpm3LsjU4H1M5z72y7eTXHpdLLuY5HGLZthKWLY9LcrlcCqVojud5vZJty3a55FHyvxMAAAAAUosiEnOWYVsyreQ/WC/FEroUjykYN2RYluKDHx+f4jnebO1UjsejXK9HuR6Pcj1u5WV5tSA7WzdlZckYUXwC6ZCcz7ZM29KlWFyXonGFDDPl83xojud5PcrzZinLJS3Py5XP65Fp2cpySxLzHKln2ZJlW4palsIJU13RqC7FEzIsW3HTTN0c97jl83qV53HL5/EqP8ujfK9Xi3zZsm1bLrnk4f80AQAAAFNCEYk5xbBsedzSpWhCTaGwLoYjsoeWcaVJ1DQVNU31jPPcguwsLcrxqTAnRwt8WTIsS1lujzz8WxY3yFJyda/LJbVHImoJRtQZjaX9vBHDVMQwdSkmSRFJ0vHefmW5XVrsy9bi3Fwt9WUrx+uRbMlLYYMpsGzJkqWEZaslFNaFUFTBRCKt54yYliJmXL3jPFeQlaWFviwtyfFpUXa2XK7k3bqZ5wAAAMDkUERi1rNkK25YCpummoIhXQxHZY1TPnqys5WVmyvLMGWZCS1YtXrK515yx53qa26Sy5slWZbMWFTmiG2CvfGEeuMJNfQHJUkF2V6tysvTyvw82YP/kKWUxEQYlq24ZaorGteFcFjd0fi4x3l8OfL6smWbVmrneUuz3G6PLMuSEY3ItixJUsKy1RaJqS2SLENdcmlZnk+35uerMNcn07bkdXFfNExMwkquZG8Jh9USiiiYuHLbtdvtkW/+fJlGQpZhaMGqoimfd8kdd6qvqUmuLK9kWTLicVkjis9gIqFgIqHmYFiS5HW7tTw3Oc8X+7Jl2DalJAAAADABFJGYtUxbcrlsNQfDOtkzIMO2Rj3v9nqVu3Ch4uGQln9sg4oe+rSW3HWPcuffpNyFi5W7aNGUM3zt736hYHubgu2tGmhvU7C9TX3NjWo/cUzdpwPKzsuXEY/JjCdLo2Dc0Il4v0709muRL1sr83N1S36eTNtWtpuyBqPZdvK6pqGEoUDvwLgrH70+n3IWLJIRDWvZxzeo6JOf0qLb1yl3wcKUzvOB1osaaLuogdaL6r94QdHeS2p443VFenvkzc5WLBSWbEu2bLWFo2oLRyVJy3NzVVSQp6W5PhkWZQ2uZCu5yrcvkdCp3gFdil05z7PyC+TxuJVfuFxFn/qMVv3eRvnm36S8xUuUt3jJlDN87e9+oWBHu0LtbRpob1Ooo029Lc3qb27UxcMH5fZmybZMJSLJ1cCGZaklFFFLKCKXS7o5L1er8vO1OCdLpmXLy89zAAAAYFwUkZh1LNuWWy41DQQV6BuQOWb1Y96SJYr29Mj/hX+vDWVbtfC2tWnNk5efr/y7Pqbl64uveK79+FFdPHxQTW+/pbbjR+SbV6BoT4/MRCJ5Pb9YXEcu9akwN0erCvKU6+Efr0jOcVtSVzSmU70D6h+zJdWTnS3fvHmS7dI9X/qq7t7yVRUUFqY1U/68eSpYcq9WFN8//Ninf/BnivX362LdIbW8/66afveOwp3tcrlcigWTq4DbIhG1DZY3N+flaFVBvrIpIyHJVvLGSh2RqAJ9AwqNWf3o9mbJk5WtBRlJuLwAACAASURBVEVFKv7mt7Tuc48pnXdJysvLU77/Li37+L1XPNdzvkFtR+rU8sG7uvjhQdm2pUQopHg4LNuWLoYiuhiKyOVy6ebcHN1akMc8BwAAAMZBEYlZpS8eV1c0rkBfv0b2j26vV96cXC249Vat/9pW3fn5Pxr1OisSVvzcGcVPnVTs5FHFmxrkLpivm//6x1PK0/r9J2UGg7IudUmSXNnZ8q64VZ5Fi5Xj/5jmr1mrJV/4IxV/81uSpJ5zDTpZ83MF/vUXksutRDgkIxpVRyT5IUnrp5QIs11fPK6eWEL1/QOKmaNX+frmzVcsGNTaRzbp7n//Va0o/sSo562BfsXPn1Xs1ElFTx2T0dwod8G8tM/z5WvWatW3n9anf/Cnsi1T5948oBO/fEWNv31T2Xl5ioeSpWRrOKrWMPMcyXl+KZZQfd+A4tboeZ5dME+2beqeLV/Vx7/6x5q/YuWo5+MN9ck5fuyw4ufOyJ2fr5v/aupz3BoIyujplsu2pexsZd1aJHdennx33CPfmtu19v4HdNcX/zdJUiIcVkPtfp3c+8+6WHdI3txcJUIh2bati+GILoaT5TvzHAAAABiNIhKzylttXaMfcLmUlZene770Nd3zxS9pQdEaSZIdjyn8dq0ide8r8tGHssNhye2SPXJlWWfHlPPEzzeM+tqORhVvqJca6hU5/IHcvhzZhiGXxy3f+k8o9571evCPH9dDO36g1roPderVX+rUr2rkzclRtHe8290g01wxxyVl5xcou6BAD5U/o3Wf3Tz8uNHVoci7byry0YeKnj4hOxaTy6Ux87x9ypkmO8+X3rNef/inP5R3SaEa3nhNJ/b+sxrf/e1gKRmach7MfuPNc1/BPOUvW65P/kmFVn/64eHHY4HjCr//tsLvvSWjo02urGzZiVhyT3eKjJzjtiTFooqfOSVJih6rk9uXm3wuGpV31Wrl3HG3Vn3yU7rzhb+RZRg6u3+fTux9RRcO/U5ZefnD5TsAAACA0SgiMWv5CuZp4Zrb9ehfPKebbl0lOxZT8I19Cr7+K8XqA8l/rEYjl19gTnNA05QVTpYutqTI736r6KHfqfdnL8ldME+5Dz6kT3756/qD/+OHavxtrY7v/WeFOlqnOSRmsqzcPLm9Xn36mT/VnZu/KElKNJ1X6O0DCr21X1ZvjyzLkhKXb1yT3nvEj+M683zBgw/ps//pe/JVv6Cz+3+tE//yT5TuGCU7P1/e3Hz9wbOVWlPy7yRJ0RNHFDrwmsLvvCm5JCsSGp7cdjz9d4kfxbJlRcLDXyYaG5RobFDozf2yYhFl33aHlm0s0Zr/80fyFC7Xmf37dPKXryjWN979twEAAIDMRhGJWScrL1dZuXn6d//lv6po42cU+fB9df7sRYUPfyC3N1tWLFk+2mbkOiNNP9tIyJZkXYpp4H/9UsE39snlciuv+AE9/PU/Vu79n3Q6ImYAb06ubMvS73+3XOu/vlVmzyX1/cPL6t9XIzsRSxYxxnQ36xN3tXk+v/gBPfr4E8xzSJKycnIkl0sbK/6z7t7yZRltF9Tzty8quK9GcnkGy8dpr9YnbOi/NfGG04qfq1fvP7wsV06OFt7/+/rsE08pt/gBhxMCAAAAMw9FJGaVwrs/pnWffUwbvrlNoTd+rZanymSHw8MrsqwZWD5eix2LyZYUfvdNRQ4fVNayZbr5+f/pdCw4qPDue7T6U3+gB77zJ4oePaz2Hz6j2OkTsg1LMhPXH2AGYp5jrMK779HqzzyiB7Y/rciH76vtT3co3nhedjwiWTO3fLwq25YdT/5PgtBv9iny7lvyFjLPAQAAgLEoIjGrfOVv/lF9r/y9mr9ZKluSHZldxeO12NGw4o3nnI4Bh33lb/5J/f/2C7V852uyY1FZc+yaisxzSIPzvOYVNT/xFcmIz7l5bkWY5wAAAMB4KCIxq7R+79tKtLWm5Bphhm2p8UuPTnkMr8s95SzAkNbvfVuJ9jbZsWhKxmOeYyZKzvNW2TF+lgMAAACZhCISs0q86XzKxkrFPzr5hytSLZVzXGKeY2biZzkAAACQmfjNGwAAAAAAAEDaUUQCAAAAAAAASDuKSAAAAAAAAABpRxEJAAAAAAAAIO0oIgEAAAAAAACkHUUkAAAAAAAAgLSjiAQAAAAAAACQdhSRAAAAAAAAANKOIhIAAAAAAABA2lFEAgAAAAAAAEg7ikgAAAAAAAAAaUcRCQAAAAAAACDtKCIBAAAAAAAApB1FJAAAAAAAAIC0o4gEAAAAAAAAkHYUkQAAAAAAAADSjiISAAAAAAAAQNpRRAIAAAAAAABIO4pIAAAAAAAAAGlHEQkAAAAAAAAg7SgiMav0JxJOR0iruf7+cH2ZMAcy4T3i2jJhDmTCewQAAAAmy+t0AGAy3mztdDpC2n3c6QBwVCbMcYl5numY5wAAAEBmYkUkAAAAAAAAgLSjiMSssuQO/7Ser/FjD0zr+ab7/WHmcWIOdK28bVrPxzzHXP9ZLjHPAQAAgPG4bNs+IKnE6SDATPOzn/1MH374oe677z5985vfdDoOkDY7duzQrl27nI4BpAU/ywEAwEzS39+v+fPnSxr9e/jIx4G5jGtEAuNob2/XkSNHZBiGjhw5ovb2di1btszpWACASeBnOQAAmGleeOEFtbe3y+9P7p74yU9+okAgoGXLlumZZ55xOB2QfmzNBsbx8ssvKxqNSpKi0ahefvllhxMBACaLn+UAAGCm2bRpkzwej44ePSqv1zv856ZNm5yOBkwLikhgjI8++kidnck7umZlZUmSurq69NFHHzkZCwAwCfwsBwAAM9H69etVWFgo27ZlGIZs29bSpUu1fv16p6MB04IiEhjj17/+tWzb1oYNG5RIJLRhwwbZtq1f//rXTkcDAEwQP8sBAMBMtXXrVvl8PkmSz+fT1q1bHU4ETB+uEQmM8dRTT426ePATTzwhKXnxYADA7MDPcgAAMF0GBgYUjcYUi8cUi8ZkWJa8HreyvFny+XzKzc1RQUGB3O7kWrDCwkJt2LBBBw8e1IYNG1RYWOjwOwCmD0UkMMbV7lTGHcwAYPbgZzkAAEgX27bV0dmprs4u9fX3K8uXLcswZJm2bNmjjnW73XK73TJNUwX5+VqwcIGWFRbqG9/4htra2vSNb3zDoXcBOIMiEgAAAAAA4DoSiYSam1vU3tEhl9sly7SSj8fiV32NZVmyrORxA8GggqGQLlxoVV5err7znSenJTcwk1BEAgAAAAAAXMP5xka1t3fIsi3Zti3btK//onHYti3bNhUMBhU4FdC8efO0bu1aeb3UM8gM3KwGAADAaY27VVZcrOLiStU6nQUAAAyLRCI69OFhtbd1yDRN2daNFZDjMQxTvT19OnjoQ7W3t6dsXGAmo4gEAABIqUbtLitWcfGVH2W7G2dErsqZ0nbWDhawZbvl5HcGAIDx9PT06OjxE4rFYjItMy3nsGXLsiw1NjfrzNmGtJwDmEkoIgEAAJB2jbvLxiljGxRwLBEAAFfX1d2t+jNnZSQS03I+I2Goq7tbx0+cnJbzAU7hIgQAAABpUlp1WDtLnE4xg5Xs1OHDO51OAQDAKMFgSA0N52UYxrSe1zJN9ff36fjxE7rnnrun9dzAdGFFJAAAwLSrVeXw9u0yVb4xzlasxt0jjhnxMWJfdePuysFrSw5u/a6sncIW50bV7i4bM97YLdONqq0su5yl7PI1Lce+trisUsnFj8kt4Vuqk2sfA9Vbxtm2PvLamNfLUavKwe3ctbUj3n9ZpWrZ3w0AmKJgMKjjJ0/KMKZnJeRYtp3McOp0vSPnB9KNIhIAACBNaipGFnNDZVqjdpdVqGZ4T3JANdU1Y7Yo16pyS/WIY67UuLtMW8a8LlBToS03eAHI2sotqqgOjBmvWltGXL+xtnKLKkaGCtSoorJWUq32j3mtAjWqfnby136cSI7kg9WqqBjx/gM1qriB8wEAMNKRo8dkTvNKyLFMy1JvX6+am1sczQGkA1uzgWtYu3atduzY4XSMCZlNWQEgozW+oX0BSfKrfO8ebStqVO3uZ1VRPaJ6q92vGkkqrdLenSUqatydLCb95dq7s0RSrV6qDowYQ1JjrSqfrVBNzX7V7izRpHaEN+7Wj2sGM1U9p20lRck7eW+pViBQrZdqt2nn6hHHDJ6zsbZSz55bLalI26uqtL2kREWD4yWL1Aad1zZt23NYD+8u05bqgPzle7VnW9Hwecu2VF8uEyeSY8Qb85dW6bmdJSqqrVRxRY0UaNB5SUWTee8AAAz66OgxuVwu2Xbq7ox9o0zDVGtrqxYvXqS8vDyn4wApQxEJXMNsKvZmU1YAyBTjXiPy/OANWvyb9HCRJBWp5OFN8o9cBbj6NvklBer3641aac25fclict2aZMk2VFQqoOotxaoedYJ6nWuUSibTxo3MNPTCom16urRaFTVS/blGDd9YZji3VFSyU3uG399+PVtWocBU7j4zkRzD5/Nr0/bB4rPkEZWqZvB7AgDA5HV0dCgajcyIEnKIYZoKnKrXfcX3jnq8u7tbwWBI8XhchmHI5XYpLzdPCxcu0Lx58xxKC0wMRSQAAMBMU7RG6yQFAjWqrkjWa/7Scj03E+58M1SGjtS4W89WjN1eDgDA7HG+sUmmYTod4woJI662tnZ5vR61trVrYGBAbrdHljU66yX16GJrq1ySli9frqKiVc4EBq6Da0QCAABMp8HVjgrs0xuDN3OpfWPfqBKvcfePVaPkisrDh5Mfe3Zuu1wADo2hUpXvvXxM8mNwq/aUMmnUNulND48YsObHgzehSW7NLqusVeNQ/tKqZIa95Sq9yqkCDedTkwMAgBRpa2+Xbc2clZAjmYappuYmnTnboIGBAUm6ooQcYlmWTMtSa1ub3v/goGKx2HRGBSaEFZEAAABpUlNRPGq7cPL6iA9rk79agcB426qTitaskxQY83q//KVPJ6+JOLxduUbVW2pGj+Ev19492655ncTR45aq6vD2q2cqfTpZbBZtV7m/RtVjjyl9ZDivaipUfL390YPH+Mv3as/DY9/4Nb43QzkAAEix1outMq9S7s0ExiRXalqWJcuydOToUd19113Kz89PUzJg8lgRCQAAMK2KtO25KpX6h772q7SqSuX+EYesfmScFYUBBWoq9OzgcsSSnXtVVeqX/4rjbjDTnr0qLx05ml/+wZvlXO0Yv79cVdtLpJKdqhr5eGm5yse8gaJtz4167bo147WKE8kBAEDq9PX1K2EknI6RFomEoWMnTioYDDodBRjmsm37gDS5GysCmHl27NihXbt2OR0DsxBzB3PdbJzjtZXFqqgZfbOb2soyVdQEktufKeUAAEiJsw0Nam/vcDpGWvmyffr4+o8pOyvL6SgAW7MBAABmqrFbuyWp9BFKSAAAUqW7u8fpCGkXi8d08uRJ3bt+vdNRALZmAwAAzDQlO8duT5bkL1V51V6xGBIAgNQIhkKy7Jl7bchUisXi6ujodDoGwIpIAACAmadI23bu0badTucAAGDuCgWDMg1LLpfTSdLPMAw1t7SosHCp01GQ4VgRCQAAAAAAMk44HMmIEnJIIpFQMBhyOgYyHEUkAAAAAADIOD29vU5HmFaWZenCxQtOx0CGo4gEAAAAAAAZJxaNOh1h2vX396vh3DklEgmnoyBDcY1IAMhA/f39mj9//oQfBwAAAOaKaDSqCxcuyrItuVyZtT4rkTDU3t6hjo5OLbjpJt1660rl5+c7HQsZhCISADLQCy+8oPb2dvn9ybvy/uQnP1EgENCyZcv0zDPPOJwOAAAASL2EYajh7Dn19vXKtDKvhBxi27Zs29alnh4NBAc0b948+e+80+lYyBCZ+bcOADLcpk2b5PF4dPToUXm93uE/N23a5HQ0AAAAIOVaW9t06OAhdV/qlmmakm07HWlGSCQM9Vzq1Tvvvqf29nan4yADUEQCQAZav369CgsLZdu2DMOQbdtaunSp1q9f73Q0AAAAIKVOnTqtpuZmWZSP47KV/L6cb2zWyZOnHE6DuY4iEgAy1NatW+Xz+SRJPp9PW7dudTgRAAAAkFrHjp9Qb29vchUkrsk0DfX29ej9Dw46HQVzGEUkAGSowsJCbdiwQR6PRxs2bFBhYaHTkQAAAICUOdfYqIFgUKZlOR1l1rBtyTAMvfPue7L4viENKCIBIEMde2GXHvjl32q5L0tlf/RFp+MAAAAAKXOxtU0dHR2yKdNu2MGDH8pmOztSjCISADLMsRd26ZXP3Kf6f/p7+QxDZQ0fqeXbX1Nn1X+T0d7qdDwAAABgSuLxuFpaLsg02I49FYZp6HDdR07HwBzjdToAAGB6HHthl0793W65s7MlSVY8LkmyTVMyTYXfPqDIB+/K579HC//4CWXffoeDaQEAAIAb09BwToaRcDrGnBCPx3W2oUG333ab01EwR1BEAsAcd7UC8gqWJTsaUbTuoNrrA/IuX6GF3/y2ctbfN31hAQAAgCmIxxPq6+9zOsacYVmWurq6teLmm5Wbm+t0HMwBFJEAMEdNuIAchxUKKn72tDr/+i/knr9AC8u+pbyNf5CeoAAAAECKtHe0i8tCppZpmjp/vlF33eV3OgrmAK4RCQBzzMhrQEqTKyDHskIhGa0X1PXj/6GWb31ZwX01qYoJAAAApFx39yXZNk1kqoUiYcViMadjYA6giASAOSKVBeRYdjgks79Xl15+UU1//AX1/dPPUjY2AAAAkAq2bSsajTodY05KxOPq7x9wOgbmAIpIAJgDXv8PX0lLATmWHY3IjkXV+/M9av3et9N2HgAAAGCywuGILIs7ZaeDbUs9PT1Ox8AcwDUiMafZ0YiMznYZHe0yO9uUaL0gKxSUeak7WajEY7LiMSmekG0kZJuGZBjJuwgbhtyLl8jq7pK8Xrk8nsE/vXJ5s6TsLLmzfXJl++TKyZVn8SK58+Yp6+Zb5Fm6XN7CZfIuXSZXDhf0Rfr1nTs7vSeMxxRvOj+95wQAAACuwTAMmaYlj8fjdJQ5qX+g3+kImAMoIjEn2NGIIgffVfTEERktTTI62mT29co2Tbm8Xskl2YmEJnvVYrOzPflJ3JQ90Re53XJlZUm2ZBuGXB6PPDctkLdwubwrVynn7vXKvf+TFJQAAAAAkEIJIyHLtuQRRWQ6xOIJpyNgDqCIxKxltF1QcP//UuS9t5ToaJXLmyU7duX1QOz4NC/NtyzZIy7ia1umjK4OGV0d0okjCtW+LttIKKvwZuX+/qdV8Mgfyrv8lunNCOCGvfqUS4/pV7Jf2Ox0lBsy2/MDAABcTXBgQC6uQJc2iVj6LgGFzMHfUMw6/f/6ii58+ytq/d531P+LPUq0tkimOW4JORPZsahkmkq0tqj/F3vU+r3v6MK3v6L+f/u509EwA9X/f3+r01/7Q7X96Q4N/NsvZLRdcDrSdQUvNOvMP+/Rge9u077Nn1b/L//Z6UhX9epTLrlcV3489arTycbJNm2hzqh643SeDwAAIDUSCUMu14T3smGS4gmKSEwdKyIxq3T8X88qcSYgMxR0OkrK2Im4zN64+v/xZUXrDqrwz/6b05EwA7S++1t9+NxfKBENq7ggV7FTJxQ/d0Y9f/9TuXw5ynvg95X3e59S7n0POh1VktT23tu68OZv1Pb2mzKiEVmmMXzTnN5/+Bv17f0HLfmTHyj3E7/ncNJxPFSl+rfLtdbpHMNe1VOux/TiQ1Wqty/nevUplzZW1+vt8pmTFAAAYCYxzaFrRDqdZO6xZSsUnDv/DodzKCIxa1z6f/5a0SOHkrfrmoOsUFDRug906f99Xov+4//udBw4JHihWQf/639R//lzSgQHkg8WJK8nasfjkuKyo2EF97+q8LtvygoF5bvzbsfyHvjuNnUfO6KsggIlgiFpnKup2tGI7GhEXdX/XVkrV2nJjv/M5Qiu4Uz1j/SintSvxpSjm1+wNT2bqdeq/G1b5dNyLgAAgNTx+XyKxxPKzs52OsqcYyQMVkQiJdiajVmj6zf75mwJOcy21bWf7ZCZ6uBzP9T+J8rUfezI5RLyamxb1uDK4NipE9OQbnzdx45IkhLBoMYrIUeyQkHFTp3Uxe//R3X/3381DelSY9QW6XG3K7+qp8bZ3r2x+sz4Y7ie0tX/lr+qv6p4Rw9VPXOd0nHMOTdW68zYI65zzjPVG6/6vl59avRjydWYZ67zvbj+9wEAACCd8vLy1NHR5nSMOckwDGVnZTkdA3MAKyIxawS6Lulji26S1z13+3PTthXo7tUdN/DatWvXaseOHSnPhPTbvHmzvHteUrClSZZhOB0nzWzZ0bBCb+5X/Mwp3fw/fuJ0oGt69SmXHnvxSf3KfkGbh7+W9OTwEXrK9ZiOVdXLLl876uuhLdTDN4exN1/+euPd428HP3NaxyR97I5rbb8+o+qNP9Ld9bbstUNfr9O6p+4YvgHNq0+59NixEVu7X31KG6vPaPPQtu4XH9N/qKqXba+VzlRr47rHtPHua2/7fqdinX501ddc//sAAACQbgsWLFBPT49s25bL5XI6ztxh22poOKsN997rdBLMARSRmDVaQhG5XJJ/wXxluz2aS/9dsW0pZlkK9PSrJRS+oTEoIWe3V/77nzkdYVrZhqF403m9+uqrevVVZ1YBP/7448lP3qnQOlfF5SeeHLqj9Kva+6JGrU7c/IKtX8mlx4aOPXNax/SQvvr5obJts7Y8Kb14ol5SsrD70YsPqar+8vrGzc9U6aF1/6h/O1OuG+vo1qr87bdHfX3HxyQdO60z2qy1Z6r1oxelJ381oujc/ILeHrnE8slfXS4I15brz5+s0GNDma/mWq+5zvfh5Zdf1sGDB2/kzabE2rWUoQAAZAKfzydfTo5CoZAKCgqcjjNnxOJxdXV16Z577nE6CuYAikjMGvNuuUXNFy7oQiim1fNydWtBngq8WZLLlkuzr5W0ZUu2S0EjoeZgWOcHIrJsS/Nu4dp5yBybN2/W5s3Tc+XD8bz6P3X1m9VMZHXi2jv0Mb2jf/y3MyofXAmYLC/XJZ+vP6F39I7eWedSxagXPqSvTi158oY2o4cccc6H9NV1UzrB5Fzn+/D4449fLn4BAADS6N7163X48GHdfdfd8rKVeMoM01R9/WmtXr1aeXl5TsfBHDB397hiznngO/9J3txcWbalhv6Qai92al9Lqz7q6lN3NCZbtgzbljlDryNp2sl8tmx1R2P6qKtP+1paVXuxUw39IVm2pazcXD34JCsbgdljne5+KLltOXlNxMf04siVg5Kkh1RVb8u2R368Pf5qyLV3/P/s3Xl8XOV59//PmUWjxZZ3GzAwXjAMS4yHxRAgHoyTONAqFVkgCnGqxjyBNI2lPMEJv/SJnl/V0NKmBIm0xFBohMGIkhCUTBJqEsdMWJMAg00aDxXYFsbBm7xIlmY/5/ljtIxkrbZGR8v3/Xr5Zc8597nv64zhBb583fdFprhxoHMVs7ZBd8z3iy8OMHxUDOV7EBEREcm9ZRdfTHNzM4ePHLY7lHHPskwOHz7MoUOHWP3Rj9odjkwQSkTKuGE+8n2uveqDTJ89C2fH32ylTIv32tp5eX8zP296n5f3HWJ781HePnacQ9E47ak0ZkdyMmWZOU9SZq9jWhbtqTSHonHePnac7c1HeXnfoUyc+5t5r62dlJmJx+l2UzhrNitWfZh03b/lNEYRGaKOpOCA3v45T770RX6RnWR8IKvCc8kFXMVL/LFxqItmtjS/9OTPT2g+0+WZBh7ssQ26l2GvOQIG+x5ERERERonH42HOnDm8+eabJBJJu8MZ144dPcab27cxf/58Zs6caXc4MkEoESnjhhmL4m7cwTXTi7nuyiuYv2gxDqcDw+nsGnMskWRvW5TI0RZeOdDMr/fu5xfvvs+v9x7gd/uP8IfmY0SOtLK7tY29be0ciMU5Ek/SkkjRlkoRTadJmNmJxFRXIjNhmkTTadpSKVoSKY7EkxyIxdnb1s7u1nZ2HGnlD83H+N3+I/x674GOdffzyoFmIkdb2NsW5VjWfwgNpxOH08HMxUsIlPwF180uxr39VcxY1I6vV0RO0HHO4Q3dHae7mtX08CA39Ncp+pw/46ar4MFvZ3e1fobbBuicff0Dv+CLL1WypFcn7M7O1SckGp+5rWdMfa35zG39dPweSQN8DyIiIiKjKLBiBQUFBbzyykuYY3TH3FjX2tLCa6+/RlFRER/58IftDkcmEJ0RKePG/miMc/KmQjKO5/09XFqYj+vDH6F1/tn8TzjMnu1hXPkFmKkUqXisx7PxdJp4Os3huE3BAy5PPg6Xi1QsyunLLuWCK69itsdN/I3fEd+xDWIxnMD+aHzwKiwRGTm9m9UAV3V0e77+gUZq/rCEG4wHu6431vwlS/7YMfCcc7mIq7ipMWur9du1XL1kCbeda/HA9edQ8WIjXL0ka42rqGl8kf7rBa/nAauRC3o8Q6aJTsU5QAWP1DzJkhuMjjMiv0hNzVVUPtk5sK81v8gvrBxWKA76PeRuaREREZHezjvvPN78wx/YsWMHr776e/zLLsHtVvpjKCzT5MiRo4TfeB13Xh4rPvQhzjjjDLvDkgnEsCzrOSBgdyAig/nZjR/lfCOF29GzkNcxZSokEzimTsPyLiJWPJ3DsTj7du7k6J4m2psPAeB0uTHTaVLxOJCLvxUzcHk8OJxO0qlM5WPhrNlMP8vLnAsuZPZpp1MUbce1911i21/F8HgwY3FIdGdHU6bJf1suSp5+NgfxyVj21IpL+r132ZzBt0G8evDkzsAZytynuu5Aa3if+tUprW+3t2uvZsmTN/VqdtN9huNkOSNR34OIiIiMRffccw/t0SjFxcVcdtnlYIzHNqejxzRN3n33Xd55520cDgdXXnEFq1atsjssmWD0VwIybrQXTcUdO3bCdfN4a+bn+AE4dpT8oiJOT8Q5w+kimUue2AAAIABJREFU//obcBYXY02ZSnsqTVs0SlsiSdvhZmLHjhFvaSF+vJVktI1UNE4qEcNMJEgn4qSTSQrnzKX94AGcbjfOPA+OvDxcefm4Cjy4C4rwTJmKp7gYT3ExU+adRsGUqRQXFlDodOJoOUZyzy6S772L9T9/IP3Kc6QdDpJtxwGw4ieWZ7ocDqIFxbn9IkVkZL30JD9/u6KrEvDt2m/zIFdR098ZjhOVvgcREREZY770pS9RU1tLS0sLodBzLL14GcVTp+J0uZSQzGKaJq2trbz55nbi8Tgul4sPXHSRkpCSE0pEyrixYMV1tPz8hxQPVFKfTJA+muj62LblF5m/9covxOF2UWhaFMRjzHYYOKbNwDVrDs6zz8BwezA8eTjyCzDyPBgeD4Y7D9zuzM+miRltx4pFSbccwzp+nHR7K1Z7O2b7UYxkG8ltr0AqjZnn4bhlYibikE4P6x1bkikWfHTlyX5FIjLKzql4kV/80eCGJQbdm6gzW68nUxGgvgcREREZiwoLC/mrv/orHtu0iVg0Svj115g1axYLFi5k6pSpGBg4nJOzdYZppkmnLWKxKDt2/JHW1kyBj9vl4oorrmDlSv25VHJDiUgZN8664oO89ZMnmOoe5t9eWRZWtI10rx4w6QP7SB/Y1/czhgEOJ4bDgeFwYGFBOo2VSg2+XOrkOrNZlkVz2uTcKz54Us+LiD2uf8DCesDuKOyn70FERETGotNPO43PfuYz1D3yCKZp0tzcTHNzMwUFBcyaPZsZ06czdWoxbrebZCpJQX6B3SHnRDQWxe1yk0wmOd7ayuEjRzh8uJn29vYe4z52/fUsu/him6KUyUCJSBk3Tr/4Ep4/3s5ZHvcJ50SOOMuCdAornZvTJPuStiz2tbYRuLj/swJFTlYibZKwTBJpk7jV8Tmd4t22dlKmRVFeHtPy3Ex3O5nidjPV7WKq20Verv9dExERERHJsfnz5/P19et54okneH/fPuLxONFolPf27OG9PXvsDs92TqeTc845h5s+/Wm7Q5FJQIlIGVdci87F3XrQ7jBywuVw4F58rt1hyDjWI9mYNomn0yQti2TaxOlwYBgOTMvCNLuPDEimTQBiqSjN7VEMw4Hb6QALUmYawzAodLuY6nQw3eOhOC+ToOxMVoqIiIiIjAdut5s1a9bwzjvv8Jvnn+fAgQOkTZP0EHa9TUR5bjeGw8G8efO4sbSU4mL1KpDRoT9FyriyIHAdLU9vGvicyHGqJZliwYrr7A5Dxqk9x9s5nkxhAJZh0FnHaDldYFikTRMwB53HskwSqe5xDoeDqAVt0Tj7ovFMibCROUpgdoGHOfmeXLyOiIiIiEhOLF68mMWLF3PkyBEaGxvZs2cP7+/bR3t7OwX5+Rw9dmKD1Fxpa2ujqKhoVNaaPn060WiUwsJCzjjjDBYuXMjiRYuUgJRRN/GyOTKhnXnFB/njDzcO/5zIMc6yLJpTJufrfMhJbaDt07GUidvhwO1yku9w4nE5yXc6KHAY5DsdXDx7Og7DwIEBFphYmFhMKf9r2o8eofXgAdoPNdN+5DBtx46SaG0h3t7GlFmzaD3UjKewAE9Rpgt84bTpFM6cSdGsORTNnEF+8TS23fMPGFhgZf7NswwLy4LD8QRpyyKFgWlByjRJWSamaZI2LdxOB7ta25mal8c0j4sZbhdT89xMdbkpztN/gkRERETEHjNmzGD58uUsX77cthjWrVvH3f/4j7atL2IH/SlQxpW5519EqD02OudEjqK0ZXGgPUrg/IvsDkVssjdl0dJ6HMMwwOHAYTjAYWAaTo4nUoBFyjSJplK0ZD9ogMNw4jCMTGMmLLAsTAtOmzmNWz/7+RGJ74Xv/lNHfJmKSwMwjEzy0TJN+jtNNZE2MZwukqkUh5NJdpommBYmJqfNmM6tIxKdiIiIiIiIjAdKRMq44z73fNzNf7I7jBHlcjhwn3u+3WGIjda9FCZ67CjRY8eIHTtK+7GjRI8dJXbsGO1HD9N68CDth5ppO3KY9h4VjbNJRqNMP/Ns5ixZwrwl5zHjbC8zz17AzLO9Ixrf4XebOPzubo6828T+xrc41NjIkffexV1QwPHmQ3gKi8ibWkzRtOkUzphJ4exZTJ09l8IZM8ifNo2CadMpnDad/GnTKej4LCIiIiIiIpOHEpEy7iy8dhWtT/xgQjXKaEmmWHjth+0OQ2xWMG16R3Ju5BKII2nm2d4RTW6KiIiIiIjI5DJx9rbKpHHm5R/kYDLdz0bQ8ceyLA6l0px5+ZV93t+2bRvf+c53aGlp6fO+iIiIiIiIiMh4MHFKymTSmHXOuTQnkpyVPzHOiUxbFofiCWadc26P6/v372fjxo0cOnQIy7LUzUxERERERERExrXxn8WRSSnvgg9MiCQkZM6H9FywtMe1xx57jHvuuYc9e/YQjUbx+Xw2RSciIiIiIjI5NNWV4ff78VeF7A5FZMJSRaSMSws/dB2tmx5gqmv8/yPckkyx8EPXdX2+55572Lt3L6lUCgC3280bb7zBunXr7ApRRsH111/P9ddfb3cYIiIiIiIyTE11ZZTWRvBVNFBfPrbOVB/LscnkNP6zODIpnbn8SsI/+DemuFwYdgdzCjrPh1y2vPt8yK997Ws89thjbN++nVgsRjKZZNmyZXzhC1+wMVIRERERERERkVMzMfa2yqQz3buQI2mLlGnaHcopSVsWh1NppnsX9rj+uc99jq997WucddZZ5Ofns2PHDpsiFBERERERmaxCVPn9+MvqCIWqKPP7M1u3y6oINQE0UVfmp7Q2AkCkthS/309ZXVPXDE11Wc/5/ZRVhWjKWqFr/s5xZXU0DbouQ5h/8NhE7KBEpIxbBRctG/fnRLocDgou8vd5b968eaxfv55bbrmFuXPnqmu2iIiIiIiIHSK1VFYGiXR9DlJ5Zx2DpfQy26KzngMiwUpKe59BGamlste4oaw75PlFxpDxncWRSW3BiutoTaXtDuOUtKRSLFhx3YBjLr74YtavX6+u2SIiIiIiIjbxldTQEA4TrinJXIjsZDdeyuvDNFRkmov6KhoIh8MdZzGGeLg2AvioaAgTDocJN9RQ4gOCWzghVdg5f3052Sc59r0uQ5h/oNhE7KMzImXcOnP5lby64V6muJzj8pxIy7I4lEhxadb5kCIiIiIiIjLW+Fi9NpBJEAZWUUKQ4GCPhLZ0jIlQW+qntsfNRnb1KKf0UdE5/1DXHcL8AeUcZQxSIlLGramnz+eo5SBlmuNyi3basjhiGkw9fb7docgYYcZjWLE4ZjzW8esYZjyOFYuSbm/HjLZjRaOZ+4k4ViKFo7AAK5XENWUazlmzcM2chXPaNFzF03FOmzai8aWPHSPVcjTz8+Fm0oebSbUew3C5MdujGHkuHHkeHJ58jIICHAWFOAqLcOTn4/B4MPLzcXgyP4z8zDgRERERERGZPJSIlHGtyH8Z7sbtdodxUlwOB0WXXG53GDJG7PqXuyiYWoxhgWWAYTjAMDKfrf6bMqVbkhhAoj0K+98HrI47Doi1Ma/yGyMWX+GUaViYXUtYDqPjfI9MTbKVSmK2R3s+aICBA8sBmBZYHT8MINbOvIqRiU9ERERExG6Rnbuhs65xwSJ8QIQSKhqq6WtH9OunstgQ5u83NhEbKREp49qCwHW07ggz1eW0O5Rha0mlBz0fUiaP13/6FAVTismfVkz+lGKmzJxF0fSZeIqKcFkmhtuDZaYglYZkEiuZwIpHsaJRrGQckgksLIy0lckTOjLJzPY/bB+kojI/U83oduPIywO3B2d+pqLRWVCAUVCIw+Ph3W2vZxKiaQsMBzgNnIYDp8dDnsdDXtEU8gqKcHs8uPLycLrdOJ1uUokobrcbojHM48cwW45iRduwjrdhRY+DEpEiIiIiMs55Fy4BIhCsxB/MnMdYX17O7SW1VAaD1JYGe26d9lXQUF9+iosOPr+339iUkBT7KBEp49r8S5fzu3iCKa6CcXVOpGVZHIwnWX7pcrtDkTEkeryF6PETu6NfNmfmoM+m/B+kaM7c7qpDAMPg+EsvDFpRCWClUpjRTDVjKnuAYYAB535wBQYGYGUqNR0GqcOHeOWZQU/HGVL8IiIiIiLjVmAtFSWN1AYzzWOWLMwk+gLVDdRwJxuCkRM7Yo/EskOZv5/YROxiWJb1HBCwOxCRk/WTP1/JRXnGuDonMmWabE9YlP5sq92hyBjx1IpL+r03lETeqwcP96yonD6Domkz8BQX4/bkk06nMDBwOB0wWNretACzY5wFiQTp4y1Yba1YbcczFY3t7VjRNl49eHjQ2AaK3/vUrwZ9XkRERERkIlq3bh333Xef3WGIjCpVRMq4N/XyK3G/+Xu7wxgWl8NB8eWqhpSR1V9FJdDvtm8rlcKdlwexGGZ7K2bLsY5EYxtWtB2SiVF+CxEREREREZmolIiUcc979bW0hl8ZV+dEtqTSeK9WIbKMnoGSlNo6LSIiIiIiIqNh/OxlFenH/MuvYH8s3tUreKyzLIuDsQTzL7/C7lBEREREREREREaNEpEy7uVPm06bp5CU2X9DjrEkbVm05heQP2263aGIiIiIiIiIiIwaJSJlQii+4ppx06zG5XAwbfk1dochIiIiIiIiIjKqxkfmRmQQ3msCtKbSdocxJC2pNN5rdD6kiIiIiIiIiEwuSkTKhDD/suXsj479cyIty+JANM78y9QxW0REREREREQmFyUiZUJwFxbRPqV4zJ8TmbYsolOKcRcW2R3KCGiirsyP39/5o4pQrpYKVeH3l1HXlKsFRERERERERCTXlIiUCWP6VYExf06ky+Fg2tUTYVt2E3VlpdRSQUM4TDgcJlwDlWV1dOUKTzJ52FRXhj97HhERERERERGZEFx2ByAyUs6+6kO0Pv8sU11Ou0PpV2sqzdkf/JDdYZy6pq1sjkBJTTnezmuBasK5yrEGqgmHczS3iIiIiIiIiIyKsV0+JjIMZ152Bfvao2P2nEjLstjfHuPMy66wO5RT513IEiC4pe/N2E11Zfgrg0CE2tLM1u2qrqEhqvxZW7qzqh9DVX5KayMQqaU0e0yvcZ1jR2VbuIiIiIiIiIiMCCUiZcJwuN0kZswes+dEpi2L2PRZONxuu0MZAQHWVvggWNlnEtBbXk+4pgTwUdGQ2bpdHYDMlu4NLOq4Fg43UEEtpR1ZykB1mIYKH/iytnyHO65lCVX5qWzsuS18wzg/QLJ4wSIcrslTpG64XOSdvcDuMERERERERGQUKREpE8qMD11HPD02E5GxtMnMFdfZHcaI8ZbXE26owEeQyiFXJXopr6+n3Nv9eeESoHHX0M+EbKpjQxBKbu+5Lby+e9Jx6SMbf8RZH70Bd0Gh3aHkmIGRX0jRilWcfu9DdgcjIiIiIiIio0iJSJlQzrryal5qjdIcS5Ayx8Ym7ZRp0RxL8HJrjLOuvNrucEaWt5z6cDgrITmUZGTPrdmVwWGuuXsnEXwsWnBSEY9pl935/3Pdf9Qz66KluKdMHXiwYeAomgKA57wLRyG6vs26aClAR7zGgGMdRVPwnHc+Z9zzfWZ9ef0oRCciIiIiIiJjyeTZByiTwvzLrqBw5ixebtrNrPw8LpwxjSKXC4dhYAycIxlRlgWmZdGWSvHfR47RHEsw3buA+RPhfMi+eMupb4Cy0lq2hKoJ9Nu0JkSVv5LGigbCHRWMmW3WoxbpmDdl/llce38d77/8Aq/f/XckY+1d94y8PHC4MDz5FF5+JYVXXEPBJcszN1dcYku8195fB8C+V15k729+zb4Xf0MqFsVMpzATiUzc+QUYngJmf/lrFFw6Qf8dEBERERERkUEpESkTzmd/9Asabvs8hxrf4jfvHyTf5WRWfh6nFxQww5OH2+EgbaZxOZwjkpy0LEiZaZwOJ0nT5Eg8wfvRTFVmLJUmb+pUzjh/KaUPbjz1xcaTBYvw0SvDGNpCEB8VK09hG/WCRfgIsnM3ML53Yw/o9A9ew5/95Jc0PvEo8ac3Ubz4PIquvpaCS5fjOm2+3eGd4LQrr+a0jorf43v3sO/lF3jv15uJ73qH6Tf/JcUf/5TNEYqIiIiIiIjdlIiUCan0gY3s/d0rvFDzTxzb8y77Ykn2Ho8C4HYazMzzkO9yku90UuBy4HE4yHM4cDocuAwDp8OB04BYOk2+00nagrRpkrIs0qZJwjSJmybRlEksnSaWTnE4niCZzmwHd7pcGK48Zi30cs1Xv8H8yydYFVioCv+GRTTUd5/TGHq4lggl3N6jGjLSM2HYO4kYqspszc7qReNduAQiO8l+rAfvSlb7aqndUMfaQMf6oSr8W1YRru63FHPcWvKZNfCZNXaHMSxT5p/FOZ8q45xPldkdioiIiIiIiIwhSkTKhDV/+ZXc/PjTHN/3Pntf+x07t/6SfX/YTqLlGMfcHg62t2GmUqe8jsPlwl1YhJk0KZg+jdMuWsqilR9h/qXLmXLa6SPwJmNQoJqGXWWU+mu7r/kqaAhnNZDxlnN7SS2VlX6CQElNmOpAOXdXbKa04xqUUFHho3Zz9txrqfCVUukPAiXUhKtZ0GNxL+WZfeBZ65dQE554SUgRERERERGRicSwLOs5QH+Cl0kj3tLCvjffoPVP79F26BBtBw/QfugAsWPHSEbbSba3kYxGScdjFMyaTbT5EE5PPu6CAtyFRbgLCsmfNo3C2XMpmjOXotmzmXrGmZz2gWV4iovtfj2ZpJ46hTMiL5sz86Sf9T71q5N+VkRERERkMlu3bh333Xef3WGIjCpVRMqk4ykuxnv1CrvDEBlR0xYu5vh7e0gnE6OzYJ6HvIla8SsiIiIiIiI54bA7ABEROXUffuSHnHPTLQA43Xk5WyfTATuf6Z8o4/R7H8rZOiIiIiIiIjLxKBEpIjJBXHTbV/jkb17PSULSKCzCOW06Mz//Rc5+/GdM+/TnRmxuERERERERmRyUiBQRmWBGMiHpKCrCdfp8Zt/+Vc78jx8xZXXJSIUpIiIiIiIik4wSkSIiE9SpJCQdRVPIW3wec+74v8z/10covPraHEUpIiIiIiIik4Wa1YhID6EqP5XBrAslNYSrA7bFI6fuotu+wkW3fYU/PPA93tr0A5zuvD6b2hgOJ+Tl4fFdyIzPfoG8xefaEK2IiIiIiIhMVKqIFJEOIar8fiobK2gIhwl3/KihkrK6phFeqgq/v4yRnjbnc49z/VVIGk4XhjuPgqsDnPHdB5n3rbuVhBQREREREZERp4pIEQGgqW4DQUqoqS/Hm3U9UB1G9ZATS3aF5N6GJ5nysRKm3/R5HFOm2h2aiIiIiIiITGCqiBQRIMTDtRF8FWsHTTo21ZXh9/u7f1SFes5U5aesrolQVd9jmurK8FcGgQi1pZn72VP0eM5fRWik5m6qoywr7l5hT0oX3fYVVj/zPDO/8GUlIUVERERERCTnlIgUEWjaRSOwZKF34GF1ZZTWLqGma+t2DSXByhOSkZHaUjYsasiMaajAF+ze3u0trydcUwL4qGjIzNN5BGWoyk8lNd3bwkuCVJbV0XTKc4eoKq1lSU133GzoOa+IiIiIiIiI5JYSkSIyRJmqyZKa6qyqyQDVNSUQ3NDzTMaSGurLO5Ka3nJuL4HIzt0DT99Ux4agj4q1WbOvrcAX2czWU547k2jtFqC61xZ0EREREREREcktJSJFZGiadtGIj0ULel1fsAgfEQbLBQ5q904iWVuq/X4//tJaIqc4LdCVsAxW+tXIRkRERERERMQmSkTK2BKq6vfswQmnKURdVdZ5i2VVPRNkTSGqyrLPYyyjKlcZNO9ClgCNu+zO0HVvqe7+UU/5CJQuBqo7t3t3JDvLtDVbREREREREZDQpESljSmhLsPtDcAsTNxXZRN2dldQGs+r9IkFq7+xMjoWoKq0kGMmuB4wQrC3tOg9xZAVYVQKRzVsHSc71Ufm4eycRSlg1nNbaCxbh6/PaCFRW9jV3lkB1x9mSkVoenrj/gA1TiKo+mgPlRFfToFFYS0RERERERMYUJSJlDAmxJQj4KqgoAQiyZaJmKkIPUxsBKKGmowKwoaaiZwLNV0JFTUdTlnADFR03Bz0P8SQFqmsoidRS2qtSsLNTdff25uwEUoiqyiCUrBq02/aJeiUdvStZ7YNgjyYyIapOKmHVa+5QVc8K2907iVDcsVV7ElTfAtBEqKqsR+fwsqrQmKgK7dkpXZ3NRUREREREJiolImXsCG0hCPhWr6R8VQkAwR6ZyCbqyjq21IaquhMqHVuae18LZWVYQnU9EzA9tkF3VWj5e2yD7i48bDrh+bKq3smyTFyhAWLoWyO7On7lDZRT39VAJUB1fTXlgY49yU272dlRHFkyrNLD4QhQHW6gglpKs961ku7mMIHqjk7WXfcraaxoIFw9zJh6nNnYmXDyUl7fe/0NLGqoHl6Ss6+5A9XUUNn9+1sZ5LLLW7qfmdDVtwAhqspKqQxGepy5GQlWcqftB2Y2satx8FE5jaAucwRCbqqNRUREREREpJPL7gBEOmW2ZftYvdILZLbXRoJbCFUHeiaiIrWUVmZ/DlJbGqSWntcq71xEQ305XkJsqe2ZgMlsg17EyiF0Tg5VlVIZ7HktEqyltJGO+bvjquwVV3cMvQRWUUKQYEdzls0lFdy+tpxA9sBQFf4eC/soqbib4eb8hsdLeX2Y8gFGBKrDhKsHuT/UayfMM/D6pzJ3z2shqvyVmerbJbXUBoNsCVUTyOl3a59QVSWZUwB8VNTc3ZHgbiJUdScbbI4tm6+iobsjuoiIiIiIiEw4qoiUsaGpjg2ZckhWeunaptvv9uySGhrCHWf9dVzydV6ryVRTEtnJbgACrK3puNfxTEn2fW859R33Gjr3P5fcnmmQ0hkXvu5t0p1r9nHGYP8x9BaguqGGks7t1sFaKksHq8iKEKy9U9tVR8Kkqr7tOPIAKKmp766yxUugun6AxN8QY8neOt/n+Y8hqsqyGi5t3dlfoP3G3/XOdR3v3HV8wKl+X5nf59LMOQlEaktVGSkiIiIiIpJDSkTKmNC0dXOmYjHSuS23tOMMxd4JIgAfFWsDmSrDjm7PUMLt1R3XAqsoOWGFLdzZmQwprSV4wn0gVJVJSPgqaOgsO9y9MxOXbzUrOxM4HVt/oXeXaR+r1w4UQy/eANX1YRqyE5K1pd2JxkB1VufoBjK5zUivMxrlZPSovu1sbtPX9uxILaWVwe5q2kiQ2lL/Cdcqs5oM9V19O7QO3aGqUipre2+fPvHczkz1bX8x9NK0i8zO5+E1FBpyLANqoq6ssxoTMsn0YM/vZ6gitVT2ejYn35eIiIiIiIjkjBKRMgY0sXXzAKmJUz2/r6mOOyuDRAbKfjTVUVaZSU5V3D34du2R5PUGqK7vbkbTM7nZNYrA2s7qz0b6HCJDM9mqbzuT6cMxzFj6n2crmzu3hDd0JNQr+u9p3lmR6O+vq3bnO9eX4x2R7ytzFEDn74WvIjOPtoeLiIiIiIjkhhKRYr+uZEUJNV0VgNmdok+te3ZXtWVJTc/kUJcQVaW1ROjYupqdg+islotsZmvW9trOBEjmPMuTiKmuLNOxuGvO7mY0SxZ6IVRFWVVd1nbbJkIP13YklJawUHmSkzYpq2+Ha1ixDHGezJdIYOVq+k9FDiTr92LYMeb4+xIREREREZEhUbMasV13onBVr+7IXlau9lEbiRDcUMfawMqTmt+7cAkQgWAl/r6yQh3nBUKm03Lnr0tqwlQHVrLaV0skkmkq06MhTmcl20mKBCspPSGeju2zoY5zI4O1Jzznq1g7vC7SkmUI1be9myMNa/qO6ttBxoxq9W1HMj3C2G/Io2Y1IiIiIiIiE5sqIsVm3Ymhkj4OsMskERmg6csQBKqpKemuwfKVVFAx5JIoL+X1DVSUZNdw+TLbPE+hfbW3/G5qSnw9KsN8JRU0hKszSbBANQ01FfRc1kdJjRI1p2QSVt92bz2HYGUZdV1ltk2Z5i99dT8aViyd31kToc7373eePsacrBx8X5Gdu0ciMhEREREREemHKiLFZpkz2sr7ux2oJhyu7v54wtgA1eEw1YNcC1TXE+4xqJzy6q6bPdboM8bq+u7xJwY5pBh6zxmoricwwLLeQDnVgfIB5pDhmpzVt17K765gc2ktESLUVpb2mntVH48MJZYFLMqUWvZ4lyHPc6qGFOMQp+r1+6bKTBERERERkdxQRaSITBKTs/o2M3U59Q01fcxd0c/cQ4nFS/ndNVlVuz5Kamro2YtmKGNO+qVG7vsKrM2ax5c5p1VERERERERGnGFZ1nOgI+dEREREREREREbLunXruO++++wOQ2RUqSJSREREREREREREck6JSBEREREREREREck5JSJFREREREREREQk55SIFBGZBJ555hm7QxAREREREZFJTolIEZFJQIlIERERERERsZsSkSIiIiIiIiIiIpJzSkSKiIiIiIiIiIhIzikRKSIiIiIiIiIiIjmnRKSIiIiIiIiIiIjknBKRIiJii3vuucfuEERERERERGQUKREpIiKj7rHHHmPv3r089thjdociIiIiIiIio0SJSBERGVX79+9n+/btpFIptm/fzv79++0OSUREREREREaBEpEiIjKqNm7cSCwWAyAWi7Fx40abIxIREREREZHRoESkiIiMmm3btnHw4EEA3G43AIcOHWLbtm12hiUiIiIiIiKjQIlIEREZNc8++yyWZbFs2TKSySTLli3DsiyeffZZu0MTERERERGRHHPZHYCIiEwet912G8XFxQCsW7eOL3zhCwC0tLTYGZaIiIiIiIiMAiUiRURk1HQmIYd6XURERCQX7vrHf8pZw7x58+bxt//fN3Iyt4jIeKet2SIiIiIiIjJpPLLx0ZwlIQH2799P3cZHcza/iMh4pkSkiIiIiIiITBq7m97N+RpNo7CGjE/9HUmko4pkstDWbBE6PIzHAAAgAElEQVQREREREZk0mpubJ8QaMj498MAD7N+/H5/PB8BDDz1EJBJh3rx5rF+/3uboRHJPFZEiIiIiIiIiIqNg9erVOJ1O3nzzTVwuV9fPq1evtjs0kVGhRKSIiIiIiIiIyChYunQpc+fOxbIsUqkUlmUxZ84cli5dandoIqNCW7NFRERERERkUvr6+q9x5vz5Pa69t3cv//yde076nshg1qxZw3e+8x3i8Tgej4c1a9bYHZLIqFFFpIiIiIiIiExKvZOJ2ddO9p7IYObOncuyZctwOp0sW7aMuXPn2h2SyKhRRaSIiIiIiIiIyCi65ZZb2LdvH7fccovdoYiMKlVEioiIiIiIyKT03t69/V472XsiQ/W1r33N7hBERp0qIkVERERERGRSGuhMx5O9JyIi/VMiUkRERERERCYlNasRERldSkSKiIiIiIjIpJTLZjUf+chHRiJEEREA5s+fj8fj4cILL+Taa69l6dKldod0UpSIFBERmfCaqCsrpTbS+bmEmnA1gVwsFarCX9lIRUM95d6TncJPZTDrQkkN4eqcRCsiIpIz3/jGN+wOQUQmENM02b17N21tbaxZs4YFCxbw9a9/nauvvtru0IZFiUgREZEJrSMJSQUN4XK8kEkWltXRUJ/1+SSSh011ZZRuXt09zykLUeWvJOjLipVMYrKsroH6k81s9rnUqSdMbZlbRERG1Ht79/a5xfpU7nX68Ic/PNLhiogA8NWvfpW9e/dy8803s3z5cr773e/aHdKQKREpIiIykTVtZXMESmqykoWBasK5KjAMVBMOn9yjTXUbCFJCTa/EZqA6nJvqTRERmfTUrEZExqv58+fzwgsvcO+99+L1etmxYweFhYV2hzUow7Ks52CC//99WzNm+zFItGMl2iDRjjHjLBxzzwEy5a3/9V//xe7du2lpaaG5udnmgEVERtavf/1rrrvuOrvD6GEsxjQx7eHFjVt5Z/FKPn/1WSfcbfnDz2h4/XCPa4tXfp7M0I5nO2/MvITSP7+IYmDPixvZ+g59yxrHCWMXs/LzV3NiJJm1jlxSyp9fVHzC3QFj7vVue17cyLZppVx8rKF73awxA7/zwPGe0twtf+BnDa9zuPd1yYnZs2dTWFiI1+vluuuuY8qUKXaHJCJjxLrK/93161w2q7mvZvxUKInI+LZz506uvvpq3n//fbtDGdSErohMbguSfvVJrOgxiB3DMtMYGFhON4aVxjJN3m5zc+8z/830q8tIJJKcd955uFwT+msRkUmooKCAefPm2R1GD2MxpolpHitXvkXT88/zeNMF/MVXV7Mo++68taxfuJl7f3KID5XfwmUzOu8c4dVNb3H2rev5xIzOz3X87I2FfHX1IuZ9Yj2LX91E3VvnUX7LZXQ+duTVTdS9NY3Z8+YxA9i5+V6ej67k1vUdY3ZuZtOePC7rXqjjwT1EXS7OXLiEgf6xOPLqJn62/Uw+uX5tx3vsZPO9P+Hxor/gq6szV9qKXLRs/xlvfehW1n9iBhx5lU11z/Ors8u55bIZA7xzR7xFn2T9+kVdn3/yq7O73vHk597J5se3c+Yn17N2UcfnTXvIu6z7u5ORVVRUxI4dO9i5cye33HILH//4x/nWt76Fz+ezOzQRGUNy2axGRGS0LFq0iJqaGj7zmc/wxBNP2B3OgCZkxi3x7L+QevWH4HCAme5xzwJIxTM/A+d44tz/qXOxnNvwfPzvcS65ZrTDFRHJuXfffZc77rjD7jB6GIsxTVx3cFdTHWWltby8aRMv925WE2ph08uNfOyLd/Q80/COu3rMEmr5BW81LufTd2S2TjfVvcYvjNV88Y7urdQ9rjXVUbZpLmtrnqC718wd9Pm73lTHa794iyU338Ed/e7TCFHl38Tax39Jdu+aOy6fjb+ykdmfzsQfatnEyx/s2eDmcqefSj7KHZ2T9/XOTXWUbVrBXQ33d1/79GyOlG5myQjM/dqml3u8n/7xHz333nsvL730EjfeeCNr1qzhm9/8pt0hiYiIiIyom2++maeeeoof/vCHfPrTn7Y7nH457A5gRKUTRL/356TCPwasE5KQ/bFScYi3kXj6TuL/+dXcxigiImIHbzn14TDhhgp8BKn0VxEa9KEQVX4//o4fPTpZD8XunUTwsWjBSUV8oqZdNPY134JF+Iiwc/cpzr97JxEi1JZ2v7O/tJbI4E8OzlvO7SUQrPTj95dR1zQSk8pwXHXVVezYsYO2tjYuvfRS2tra7A5JRMaA3g1msq+d7D0REbs8+eST1NbWEovF7A6lXxOmItLc+yaxR26FrlrH4bNSCdI7XyK24RPk3/YjMCZWnlZERARvOfUNUFZay5ZQNYEBqw8raaxoINxR1heq8lPZmKu4FrIEaNzVBAE7W037ctbtOlAdJlzd8T2W+qn1VYxgx3EZqrvuuotPfvKTrFixgtdee83ucETEZmpWIyITzfnnn89jjz3GrbfeancofZoQiUjr4DvE/7OSU0lCdk9mYR5+j+j9N1Lw5Z+c+nwiIiJj3YJF+OiVYQxtIYiPipWnkCZbsAgfwUyl4qDTBFhVAsHNW2kqHyg5Fzlxvt07iVDC7cNpvdfXOw8r3mHOnSVQHSa8NrNV/uFQeY9t5jI6LrnkEr71rW9x44038vTTT9sdjojYKJfNakRE7HDTTTeN6UTkhCj5iz58C1asdUTntI7tI9Hwf3peTEaxWg9iHnh7RNcSERHJmVAV/rI6sncChx6uJUIJq3okwHptbe693TlUdcLWbO/CJRDZyW764V3Jah8EN2StH6rCX9X3pvBAdQ0lkVpKe8db5aesrilre3P2tvIQVZVBKFnF8PN5vd65r3gJUTWkbeyDzN37vUd627oMW2lpKVOnTuXRRx+1OxQRsZGa1YjIRLN48WJeeOEFu8Po17iviIzX/w2YZg5mtkj/T4j0Oy9jtR8h9fsn4PhhzHgLRsF0rOOHcJ13Le7rvoIx7fQcrC8iIjICAtU07Cqj1F/bfc1XQUM4q+rQW87tJbVUVvoJAiU1YaoD5dxdsZnSjmtQQkWFj9rN2XOvpcJXSqU/CB0NcBb0WNxLeWYfeNb6JdSE+0sZBqgON7Cox3igpKZre3igOkwN/o41O1+ne/v4kPX5zn3Fm9mqPawkZ59zV1OzxY/fn/1a4ZxsAZeh27hxI+eee25XUlJERERkvJs/fz57x/CZtYZlWc/BSRQRjAFm02tEn6jASCdyt0h+MYaZxEpE+7hpgMuD53P34zzjotzFICJyitatW8d9991ndxg9jMWYRGTyqaqqwu12861vfcvuUERklKyr/N9dv87l1uz7ar6bg+hFRAa3cOFCduzYQX5+vt2hnGBcV0Qmfv293CYhAWItA5w8aUEqRuLxv8H951W4fNflNhYRERERGVEf//jH+dKXvqREpMgkpWY1IjIR7du3z+4Q+jVuE5FW2xHS+yMYdgcCWIl2Ej/9vzhPOw9jus4FERERERkvLrvsMt544w27wxARm6hZjYjI6Bq3zWrSTb+HdC7OhjxJqTjx+nV2RyEiIiIiwzRv3rwxfZaSiOSOmtWIiIyucZuIbH+1AWMslENmSR/9E8kX/8PuMERERERkGK666iqam5vtDkNERERkwhu3iUhz/1t2h3ACw0qT/N0TJLbeb3coIiIiIjJEjY2NmOYY2mkjIqPmvT6qoTuvnew9ERHp37g7I9KKtZJ67l8xEm2MiQMie4seJfXbjaR+uxHXFWvIW/lluyMSERERERGRPqhZjYjI6BpXich4w99iRn6NZaZxj8UkZKeOv1FPvfIo6d/X4/n8QzhO89kclIiIiIiIiGRTsxoRkdE1bhKRsQdvxmxuAmvwbTP5tz6eeeahz/a8/oVHweHscT3/1k045i7B3N9I7OFbuq+v3YRj3hLMfRFi//F53NfcinPpn+GYPh/z6J9wTD8Ds3k3sQdu6j8Qy8RKJYg/dhuuFbfhXv7Z/seKiIiIiIjIqFKzGhGR0TUuzoiMPXAT5qFdQ0pCui66AWOWF8f0M3BddEOPe0ZBMcb003EuvgoAx9mX4Jh2eubX08/AMXthZtyMszBmdPxHxDLJX7sJ1xWfxcgvxoodB5cHK9qCY9YC8m97ctCYrESU1HP3k3zxB8N5bRERERmCUJUff1XI7jBERERERGQQYz4RGf/Z32EeeW/I412X34ThdGOZaVyX96xWNPf/D4a7EOd51wLgXLgc8goAsABjziIAHDPPyiQ900nSO7bgmLcEUgms1gPENnyC2H3XY7UexGo7jGPWgiHFZaUSpF6qI/n6U0N+FxERkYkkVOXH78/6oeShiIjYTM1qRERG15jemm3Fj2P+YTOYqSGNN4pm4pizGPPIXjAMHLMXYxTNxGo7DIC5ZxvOc67GuWQF8A84z7kGDCeWZWHkFeCYcw7pHVswZpyJ4crDSsVJ73wZ5yWfxHDnE/v3sq61Yg+VkX/r41jHDw39fZJRUs/eg+ui6zHyCof1XYiIiIxfIar8lQR9FTSEy/F2Xq3yU1bXQH25d8CnRUREckXNakRERteYrohMv/ETzCEmIQFcS0vAcECyHeLHweHMXOtgHmjESsbAnY8x4ywc884F6OjAbeA440IAHHPPAWceGAbmgbchnQCHi/y/biDvxru65os99FliD39uWO9kmWlSr2wc1jMiIiLjWVPdBoKUUFPfnYQECFSHlYQUEREREZlExnQiMvn2CwynObbrkk+Aw0G68XnSb78ADkfmWgfzQCOGw43hcOK6/OZMstJMk2r8DSSiODq3Zs9ZnBm/6/dA5oxKK348c+7keddR8JWfUfjN35H/xf88ibeySL3xk5N4TkREZDwK8XBtBF/FWgKDjKvK3rZdVkdT7xE9tnZX0Xtjd1Nd2YDbvgd7XkREREREcmtsJyLfbxzyWMfccyC/GCvejrn796R3/Q4S7ZBfnLkHWG2HsawUuDy4zrsW8gqwEu2ktwWxUolMNSVgTJ8PySjpt57rmj92fynm3jcxWw92bat2zF5I/l8+POz3SkVbIXZs2M+JiAxHS0vLsK6L5ETTLhqBJQsHqnxsoq5sA4sawoTDYcLhBiqopTQrmRiq8lPZWEFDuGNMDWyoy0pVBiu5k7sz9xoq8AUrKcu6H6ryU0lNx/xhakqCVPaR7BQRERERkdwZ02dEJhOxIQfo8t+IkVeAlYjiueX7AFjxNoy8Alz+G0ls/k7mWnMTxukXQOFMMJwY+VNJN71G6o0G3FeuwX3NrVipBEZeEeldr/RYI/bIWgCc538Y94rbMIpmYsw8G8eZSzHf2z7k93KmE5A/bcjjRUROxgMPPMD+/fvx+XwAPPTQQ0QiEebNm8f69ettjk4km5fy+voenxcuARp30UQAb1MdG4JQUpO1tTtQTX12iWVJTfc2b285t5fUUrlzN+CFpjo2BH1UNHQ/EFhbga90M1ubytHucBERERGR0TGmKyLbEukhj3V+4Aas+HEMT1HXNcNThBU/jvMDN3RdM997E7AwnJkUp3kgU3WZCj8N6STOD/wZRuE0rPbDXU1u8tc+Rv7ax7rmSO/4FbEHPo0Va8UomEbejf8wrPdKWxA/fnRYz4iIDNfq1atxOp28+eabuFyurp9Xr15td2gifei5NbsymHVr904i+Fi04CSn3r2TCBFqS7O2ZpfWEhmBqEVEREREZOjGdEXkkYSTWe40xiAHRToXXgGGE/NPbxJ/Yl2Pe57P3IfjrGU4F15BetdvMd/fAYko5BWCmSbd+DwA1rH3MY+813U+ZKrjOoBj3rlY0ZYTKx87A2vZP7z3akty9pTpw3pGRGS4li5dyi9/+UuamppIpTKNv+bMmcPSpUttjkwmFe9CMsWNTRDor/Qw01W7saKBcEd5YmYr9kgG4qOioV7VjyIiIiIiNhrTFZHHpizAGsI416WfwjAMUttObAKT2vYTDMPAdemnADAP/A+WlZnVSmTOk+wa+9vHsaw0VrytK0EJYB7ahVEwFc/NtZkmNX/dQP6Xf4rh8mC1H+nasj0Upmnx1uGhV3qKiJyKNWvW4PF4APB4PKxZs8bmiGTyCbCqBCKbt/Z/HmNoC0F8rF7ZT5ZwwSJ8RNi5+yRDONXnRURERERkRIzpROTsi1awvzUx6Dhj6jzMw3tI79hywr30ji2Yh/dgTJ0HgHngbayjfwLAatlHuum1rrGpN3+GdWg3Vsv7pHf9tut67MGbSf3xl5ku21g4pp+R2fadjBH/0fDOWWtLmnD6hcN6RkTkZM2dO5dly5bhdDpZtmwZc+fOtTskmYQC1TWURGop7dUcJlTlzzSU6Z0oDFX13JrtXclqHwQ3ZD0fquqzM3af+nqeEFXqnC0iIiIiMqrG9NbsxSs/zVP/+S98/II8HANsz4794PMDzhN76LM9Pz98y5DHdko0/B8A8kq/jeO080n/93+RfP7fB1y3t7Rp8fzuNq5Z/5VhPSciMhTWsfdJvxvGPLQb6/BurGP7sdqP8ol4K39yL+ET+x4m+q9PYhROxyg+DWOWF8csL07vpRjTTrM7fJnQAlSHG1hUVkqpv7b7cklNx1bscu6u2ExppZ9M/rGEigoftZs7B3opr2+AHs+XUBPO7lYzkL6ez2zVHuoMIiIiIiJy6gzLsp6Dsfv/4c/9y220vPlrrl0yHddA2cgxzrTg5/99iMLTFlHy3V/ZHY6ITBDmgbdJvfFT0m9txYq1AAYko0OfIK8QLBOjYBrO81biurgEx9xzchZvtnXr1nHfffeNyloiIgPx+/384Ac/YNmyZXaHIiKj4Pa//hvy8vJyukYikWDD/f+a0zVERPpTUFDAkSNHyM/PtzuUE4zpikiAa+94gMc/ey6/ihzhYxfMtDucYTMtiKdMno00Y+QV8rG/f9rukERkvLNMEr95kNTrT2OkoljJ+MnPlWjPTJmMkfr9E6TfeBrLVYDrkhvJW/FFMMb0CR4iIiIiwxaLxXKeiIzHhvEXwyIik8i4+BPmn/3zM8Qdbn687SDvtySIJU27QxqUSSYJ+c6hKM/8sRmceXzi/pdxF021OzQRGccSz/0b7f94FamXN0L06KklIftgJeMQPUrq5Y20/+NVJJ67f0TnFxEREbGblU4Tj4/s/0Nli8fjmOmx/2dWERE7jPmKSIBpZy6m5J5f0vA3H+LlXceYUejktGIPs6fkMTXPSdqyKMpz2h0mbYk0TodBayzFvtYEuw7FMJ15FM46jb+oDeF05/Zv3URk4kq+9iNSW2qx0inAAjOd2wU75k+9/Cjp3z+Ba1UF7ks+mds1RUREREbB17++nrvu+gd2Hz6ck/lnzZzJ3/7tN3Myt4jIeDcuEpEAU+acyef+cxeh7/wvDr69jcj+Zqx97XaH1S+H0wWGE9/qNVyy5m/tDkdEximrrZl4/Tqsw3uwUgkbAjCxknFSW+4jHX4aT9n3MApnjH4cIiIiIiPkwgsv4PHHHxvy+LvuuotoNMq3v/3tHEYlIjI5jJtEZKfA+n+n+Z3tvPf6Fg788be0vL8Lh9tD24E9dodG0dyzMFMJis9YzBlLV3Dexz6Py1Ngd1giMk6l336R+I/vBDsSkL1YyRjW/kZi//px8j75zzgXf9DukERERERERGScGXeJSIBZi5cya/HSIY1tbm7mvPPO49ChQzmOSkRk5CSf+z6p3z8xJpKQ2axUgsSP78S1vAx34Ha7wxEREREREZFxZFwmIkVEJrL4U18n/c7LYy4J2clKxkj+dhPmoZ14PvnPdocjIiIiIiIi48S46JotIjJZxIN/R/rtl8ZsErJLKpHZOh78O7sjERERERHpU1NdGX5/FaHeN0JV+P1+qk640URdmZ+yuibbnhWZ6JSIFBEZI+I/Wk/6j89COmlbDPlrH6Xwm78d9Ef+2kchnSL9x18Sf+rrtsUrIiIiItIf78rV+AiypVfir2lXIwDBE25sZXMEliz02vasyESnRKSIyBiQfO77pHe+AumUrXE45p07vHHpJOl3XiYZeiCHUYmIiIiInATvSlb7eif+mti6OZL5ZXBLz6rF3TuJUMKqgI3PikxwSkSKiNgs/faLY7IxzZClEqR+93jmXEsRERERkTHDy8IlQOMuujc972ZnxEdFTQU+GtmVtRs6tCUIJasI2PqsyMSmRKSIiI2stmbiP74TKxmzO5RTYiVjJH60Hit61O5QRERERES6BFaVQGQzWzsTf6EtBFnCwsBClhBhc9eNJnY1gm/RAtufFZnIlIgUEbFR/Il1tldCGjPOxHX5zeT/5UOnNI+VTpJ4/CsjFJWIiIiIyAgIrKKECDt3Zz427WrsqD4MsKoEIl03trI54mP1Sq/9z4pMYEpEiojYJPnaj7Ca99iytnPxVeTd8E0KKp4hf+2j5K38GxzzP3DK85rN75IM/3gEIhQRERERGQkLWNR1XmPmnMbO6sPAqpKu8xqbtm4m4ltNz3ygXc+KTFxKRIqI2CS1pRYrFR/1dfO/sJG80r/HtezjGEUzMfIKwZU3InNbqRipX9aOyFwiIiIiIqfOy8pM5xhCHec0dlUfLljU1d16984ILFmId0w8KzJxKREpImKDxHP/hpWyp0N2etdvMVx5gJGT+a1UnETo+zmZW0RERERkuLwrV2caxNR1nNPo7brBah807qoj0y/mxHYxdj0rMlEpESkiMtosk9RLjwKmLcubBxqxErlsjmORevERsOx5PxERERGRHrwrWe2LUFvbuzt1pmoxUltLkBL6zAfa9azIBKVEpIjIKEv85kEsIzfViIPxlH2PvI99A6Og+IR7Vqx1xNaxDIPEbx4csflERERERE6el4VLMr/q3Z3a232DnnfsflZkYnLZHYCIyGSTev1pjFGuFnRe+FE8f/H3mSpFwwGWhRVrwSiYBoCViJLe9lMcCy7HMe/cQecz9//PgPcNyyT1+tPkBW4fkfhFRERERE5FoDpMuLrPG4T7vGH/syITkRKRIiKjyDzwNlb8eI5OZ+ybp+x7OM64IPPBcECiDfPgLmKPrKXwm78FLKyj75HYct+IrmsljmMeeAfH3MUjOq+IiIiIiIiMT9qaLSIyilJv/BTDHJ0mNc4LP0rhN3+Lc8FlGJ4pAFiJdpIv/IDYI2sBaP+HKzD3vUXsoc+N+PpGOkVq+09HfF4REREREREZn1QRKSIyitKRrSdcy1/76JC2Q0NmS3Ts4TWDjutdBWmlExA7Tmzj/8I68l6PsbH/+MshrX0y0pGt8OGv5mx+ERERERERGT+UiBQRGSXWsfcx24+csC17qEnIoYw94SxIMk1o0o2/IREc/TNo/h979x7dVnXnDf8r3+IkEG4xIQkg28XlQALklFJKkxkRHGqgVS36JA16erFeQjruMBNpKOHSi9ZbFUqA4amUFmomSVHeltFMkzWPglYpbnGNhqSUQua0kBCBg21BnJDYCbng+Crp/UOyLcmSLNmS9pH9/ayVNWNpn71/Osc67vmxf3sHe08gdPooNPMWjHvviiuuwIYNG/IeE9FMwO8XEREREakRE5FERHkS+EBBMDCM4hwtEDluLchQCNBoMPjC/4vAwd25GXQCoUAAgQ8VlCy5bdx7TJIQ5Q6/X0RERHngd8JoaEejYoNOdCxp88NpNKC9UYGtcIKmaYSJSCKiPAn2dKJYE8p6v4lmQUZvSJOJdMvE0y0RL0IQwZ7OjGIgIiIioukqnARz+EZ+1sNeUEm8WN5tDvj09nHxe60yLJ7oV9L9nJHzU2OHklaWMNP2AKDFyjoJjiYn1ulM0KZ5FFG2cLMaIqI86fcrWe9zlvFnKLvtwfAPI6XYcRvSxCv/f7ajrN6Gokukce+lWyaeSTn5QOdf025LRERERNNVJGkGM9yKAkVRoNgBi9EJv+jQJsWLFg+gr9XFvGaVZVjaoj6josCu98AiG+FUyQfVrqyD5GtGq0rioZmFMyKJcmzz5s04ePCg6DBIBe674AAunpWdvhKuBZliQ5poRQslFF1yJYqvWA6cPYmh15/H8P/8V3YCS6Cn/W18n2WilEVc/5CIiKgA+VvR7AP09qhZeDoblIKdDtkCD/SwR8XvtVrgkcxwu2JnGupsbpjbDHBs88KUcuaiFiaXAlPaQWTafuSwlaiTHGhu9cNk4pxIyi8mIoly7ODBg9i8ebPoMEgFTj1+MxAYmnI/49aCxCQ2pNFooJl1DjDrHJTVmlF224MY3t885dgSuXBuGTb/iN8Byh4mIYmIiAqQtgo1ADwtXth0yZNxsWXNsSXNXquMpmo3GtsN4TZ6O+ywhGcgxiT/vLDKFsA+tg5ipv0qNl1kDUgHRirJ9VH9+TvaAKkOlVFjtngAybwyQblzpBza0QKvTQddijG9VhkWRJdahz+LJ65HyeyGy6Qd135cv4j6PFHxVNUAvuZW+E0sz6b8YiKSiChPigKDWemnuPKzY2tBAggFhqApPxcl13wJJdd8acLjQ/1noCk/d+yF0nIAQMnVX8xKfPGKhvtz0i8RERERFRId1pkleBwWyJ7EayaOJtWUsaSaxVgdk2T0OQxoMruhKJFXvHrA04xWvwmjk/viZitOql94YTU4UGNX4NJFfjY64Y+sq9jZ7gNqGseSeP4OtAGoqUqc1tNW1QBoQ4cf0GmTjRkvnIRsM7uhmLQxP7tSzGSM6dfvhNFggbE69pjKagnwtKMTYCKS8oprRBIR5clgMEsdaWJv3Zri0swOj05CxryRm+28B4M52iaciIiIiAqK1uSC4jZDggcWWYYsW+EdedPvRJNHgnndWHpSt848fi1DyYxN0Uk4XS308KG9c+wlb3jxxnCic7L9RhKLUQPBNpq49KMj9s3JiR8znr8DbZBQt3KkjQ61esAX/WET0dvHko5aExoTHBNOjBLlHxORRER5UqoJiA4htVD2d/QGgFKo/HMTERERUf5oTXApSlRCMgoG9xIAACAASURBVJKM7GyHDz44DDJkOfIvqix6VE1V3Ay+cHLO0zKS0ozbRGay/UYSeB6LDDnJRjNSdeWkTkHyzxJHW4Ua+NA8mjGNlH9PdVwigViaTUSUJ0PDIZSUZmF2YDAAFBWP/hgKDENTnP7tfFxp9lA/UFqO4Xd+j5IldVOPL85QMDcJTiIiIiIqYFoTXG7AaHCgxTtSpi3B7HYh0/1TdLV6wBJZf9HbEt4wJqbue5L92hQotkgpt0GGI24jmvAsw5GZh+E1MNuia6+j+DvaANQgSeV2EpWolgCPwwDZEXlJb4+UaRMVJiYiiYjyZAjFmI2p12cH3nsFRVU3hjebAaApLkFooBehng4M/OZfEOo7nfL4Od97HQiFEBrsHbdrdk4SkSFOviciIiKiCVRWQ4IH0bm9tOnWwSwZ0OK1AS0eSHXusS6m0u9I9zYFyrrwxjXbvCbYdOHNXuJahWdmJtwAxo/WZh+gbxy3LmZK/lY0+xKvpzlVI4lRonzj0yERUZ6cHZj6jtkAMPBf38PAf1gQOnMMGOoDAGhmzUXR4iWY/c+/Rennv5Hy+OCRAxh+5/cYeP5e9P3if40mIXOlt384p/0TERERUQHwWiEbnYiucPZuc8AHPWp1ALQrUScBnqboNl5Yo9eRTCq8K7WnxYmOtug1FafQr9cK2RrVorMdPkgYqYqurJaAto6YzxNee9IBQ/Rx8MNpNMDh08Num0w6cWQ9zbF/xkR14hnqbPcBUnXUrt9E+cEZkUREeXI2VAZkab3EYNfb6PuZHqVfaEDp360HikrCm82UlKF0xTqULKtH/3/+C0IfHxp3bP9zpuT9Hn0PRQs+PfH4R99LO9bw5yYiIiKiGU1ng7vDCMNojTEAyQy3MjJ7UAtTuFY7qk24pDqd9J12ZR0khyNcPh272OPk+tXZYG+RIctjL+ntymh5t7aqBvDF7TqtNcGlVMEqWyB7EH0gFNckkpDaKtRAQl10WbnfCaPBAGuVgknlNcOdoKMNkOpWcsdsyjsmIomI8mSwZA6GA6dRUpy9XaSH/rQdw3t3ouyrj6Fo4dXhtR/L5kBz4eUoX/crBP7nvzD4x5+l3V//tm9mLTYAGA6EMFg2N6t9EhEREVFh0ppcUEwpW8DkUpCsic6mQEneOVxJO59cvyNrRCY+qBZ6WMLrW8YkBHWwKQqSHZbWmJH/3+9sgkeqi02sxq1FGd9Pon7HveZvRbNPQt0mpiEp/1iaTUSUJ4PzLgeyl4McFRroxYBrAwZ3/RCh/tPA8AAAQFM2B8XXr8Zs8+9QtGhJ9gdOg0YDDJ3P/4FDRERERNNN/G7dOeJrRmtUJbbf2QQP4srPM+RvbYZPqsMUuiCaNCYiiYjyZNalEoYCudtBOvD+a+j7P7di6M3fhHfCBqApLYdm7oWYZdyMsi//MGdjJzMwHMTsxVfnfVwiIiIiolzTrTND8rSksYbl5GhNLtj1PjgMY+tDGhyY1A7gY8Ib5+gb4zfUIcoPlmYTEeXJvEWfwkf/E0DVBbH/DSjddRlH2k5k6I8/x/Abv8Gs/7UJmou00Mw6B5pZ56BkSR1KrlqFgf/7PQQO7hltX373dvT/siGzD5OmI71BnLu4Oid9ExEREREJpTXBlbRWPDtSlodPSrhMnUgUJiKJiPLkkqs/D++vh3D5eSUoLhqr0c72uowAEDpzDP3Ou1F89Rcx68s/DNdIF5cCxaUo+8qPEDz0Nwz85ruY873XAYRQfs+v0b819W7bmQoEAf/JAdxy1eez2i8REREREREVJiYiiYjyZG7FYvSXnovh4FBMIjKXAu/8Hmff+T3K7vgeSq5aBcyaC035uSj+1E2Y/S+/j7TSQHP+pSir3YCiyhvS3jV7ogTqcDCEoVkXYM5Fl2ThkxAREREREVGh4xqRRER5dPnnbkPH8bMIhXK3VmQigy/+BP3b1yF4vBMY6AU0xdDMPm/0fU3ZbBRf95W0S8QnahcKhdB+/Cwu/9ztUwmbiIiIiIiIphEmIomI8uhTt3wNbSeC0GjyMyMyWrCnA/3PrsVg688R6j8z7n1N+blZG0uj0aDtxDA+tXJN1vokIiIiIiKiwsZEJBFRHl1wuYSiWbPx7rFe5HdO5BjNeQuhKZ2Vs/5DAHzHelFcPgfnX5beDEsiIiIiIiKa/piIJCLKs5pbv4ED3QMI5rk8e0Rx1ecQGh4Ehvpz0n8wFILv2ABqVmV38xsiIiIiIiIqbExEEhHl2XVfsyA0HMBbXZ8gEMz/+P2/bMDA8/di8OWfYnjfSwh9fAgAEBr4ZMp9B4Ih/K3rE4QCAVz3NcuU+yMiIiIiIqLpg7tmE+XAk08+iQ8//HD05w0bNgAALrvsMmzcuFFUWKQSGk0Rlhi+g/0vNKH6ojk4b3Zx3mMIfuRD8CMfoLhHXyu6REL53dun1O+ZgQD8Hw9g6Z33QqPhf+ui7OF9lYiIiIio8PEpkSgHrrzySpSWlsa8VlJSAkmSBEVEarPMuBFFJaV4tf0EgqIWi4wT/Mg3teNDIbzafhLFpWW47q7vZikqojDeV4mIiIiICh8TkUQ58JWvfAVDQ0Mxrw0PD0Ov1wuKiNTo+m/+AMGiWXit4xQCaslGTtJwKITXOk4hVFyG679lFR0OTUO8rxIRERERFT4mIolyZNWqVaOzd0pKSnDrrbcKjojU5tNf/AbOXViFo2cG0NZzVtjmNVMVCIZwsPssjp4ZxLxFV6BmlVF0SDRN8b5KRERERFTYmIgkypHo2TuctUPJrPrBr1FUWoZ3jvTio9ODwsu0g0ffy6hdMAQcPTOId470oqikDKt+8KtchkczHO+rRERERESFjZvVFKi//e1vOHToEA4fPoz+/n6cPn16XJvvf//7MT8/+uijCftiu9y1mzt3Ls6ePYs5c+aMO04N8bHdmDfeeAM33HBDwra5NGvehbj5/n+D96nv4M+dp3D95efisvNno0iT91AAAP3bvpl222AI+PBkH/Z+cAbFZbNx88YmlJ1zfg6jy60PPvgAbW1tOHz4MM477zy8/fbbCdup5Xd2praLvq8++uijqotPLe3iiYqvv78f5eXlacVIRETAX//2Fl588XcYHBrCiRMnRIczoQsvvBBlJaW440u3Y9l114oOJwbPZXb19vbi3//jP3G46zCOF8D5BICLLrwQixYvwv++ay3mzp0rOhyKYCKyAC1evBi33HILPv74YyxatAhXXnkl+vr6JjwunTZsl912xcXFKCoqQnHx+F2R1RAf24156qmn8Lvf/Q4GgwFGoxG33XZbWsdlw6JlOlz95XXY79mCvR+cQWlRERbMK0OxRlA2Mg2BYAhHzwxGkpDluPrL92DhtX8vOqwpufvuuwEAixYtwu23367639mZ2i76vproWNHxsV2siy++GJ///Oexdu1arFu3Lq1jiIhmqr/+7S087/oPDPT3iw4lbSMJvudd/wEAqkmg8Vxm19mzZ/HY408mnAClZsdPnMDxEyfwmP8DfO+hBxJOEKL804RCoVcA6EQHkivHjx/HlVdeiZ6eHtGhZM3hw4exaNEi0WEQTTunT5+G2+3Gm2++CUVR8MQTT+Cmm27K2/jep/4BXXtfQTAwiKsvmYuaijkoFjU1MoVAMIS2nrORcuxSLJZvge7+JtFhEVGUDRs2YPPmzaLDAAD84Q9/wO7du/Hzn/8cTzzxhCoTkrIs47nnnsOyZctEh0JEKvToo4+ir68PjzzySE7H+clPHsdHx47mdIxcumTBAnzv4QdFhwGA5zLbNv/s5zj4frvoMKbkik9VY8M//5PoMPJm9uzZ+Pjjj1VZmcI1IlXul7/85bjXmIQkyo158+bhW9/6FjZv3ozHHnsMP/7xj/M6vu67z6JqhR6akjK881Ev/tx5WviakfGCoRD+3HlqNAlZtfwrBZeEfP/997Fq1SrRYRDNGLfeeit+9KMfoa2tDa+99hpWr14tOiQiIlUaHB4SHcKUDA6pJ36ey+z6+ORJ0SFM2XT4DNMFE5Eq9uMf/xh79uwRHQbRjLRixQq8+OKLeR/3pn/8V1z6mZtRXDYLR88M4MUDPTjVN4yA4IxkIBjCyb5h/Pad4zh6ZhDFZeVYLN+Cm/7xX4XGlam33noLdXV1Qq4t0Ux34YUXYuvWrdi4caPoUIiIVKkQ1jFMRU3xqymWyVBb/MePqyueyZgOn2G6YCJSpRwOB44dO4Zt27aJDoWI8kz33Wdx9Ze+jeKy2RgcCqLlvRN468gnCASBUJ7zkSEAgVAIfzv8Cf743gkMDQcja0KuL7iZkH/5y1/wwAMP4ODBgygrKxMdDtGMdeONN4oOgYiIiIgE4WY1KvRv//ZveOedd/Dss8+KDoWIBLnurvtQIV0P779+G4GhQXT09KGjpw9XL5wL6eK5CIVC0ORwM5uR/t891ot3jvSOvl5UUoab738WC68rrI1pDh8+jDvvvBNdXV2iQyEiIiIiIpqxmIhUGUVR8N///d/49a9/LToUIhJs0TIdvvrMa2h55Js4daQdgcF+vHOkFweO9EK6ZC6qL5qNkmJNVnfXDgSB4WAIHcd7ceCjsxiZgFkyqxzzFl2BVT/4FcrOOT9r4+XLt7/9bezdu1d0GERERERERDMaS7NV5v7778fdd98tOoyC5LXKkK3enLWf7DE0fRw6dAiXXXZZXsecNe9C3PHEb/HZb/0AJWXl0GiKEAJw4KNe/HZ/D1rf+xgHu8/i7FAAgWAIQ4HMareHAyEEgiGcHQygrecsWtuO47f7u/FOJAmpKSpCyaxyXP8tK+7Y5CnIJKTD4cAVV1yBSy65RHQo0xrvwTRZn/nMZ6AoiugwiIiIiCgPmIhUmZaWFtxyyy2iw8gOvxNGWYYsW5H9x0Y/nMZcP5BONEaOYvBaIctywn98/hbr0ksvxbe+9S384he/yPvYNbd+HXf96gCWGL4DDTQoKg5PaD/dP4y3Dn+Cl945jt/7juOvXWfgO9qLrlMD+LhvCGcHAxgKBNEb+b9nBwP4uG8IXacGcOBoL/566Ax+/+5xvHTgON7u+gSn+wMAgKKSEmigwdL6f8Rd/98B1Kwy5v0zZ4vZbIbdbhcdRv7xHjw5vAfnncPhwCOPPCI6DCIiIiLKA5ZmU874W5vh0+uh93jQ4rVBpxMdUR54rZAtbTC7XTBpJ9mHzgZFscW85HcaYXAA1ZVTjpCm6K677sLXv/51fOc73xEy/rK77sd1a+/D335jR9sffo3hgT4EBvsBAH1DQXz4cf+U+i8um4WS8jmoWfUNXPc1CzQa/veqQsV78CT74D047/7u7/4OJpMJ7e3tqK6uFh0OEZEqPbDxu7h08WLRYeBQVxeeePIp0WFMCc9l9qnhnE6n8zndMRFJOeJHa7MP+kYXauGBpcULW1afgrUwuRSYsthj5mPkIwYA8GKbwwfJ7J78gzVlzTXXXIPe3t5JPTB7rTIssEOxTe27oNEUYdna+7Bs7X04+cG7eL91Bz74y0voP30cmuJiDPf1TtxJRGn5XARDAZTPuwiXf+52fGrlGpx/2aenFF+6snU+KBHeg7OH9+B8MBgMcLvduO+++0SHQkSkSqKTPCPUEsdUqOUzqCWObFDDZ1FDDJQeTnWh3PC3otmnR60O0NXqAU9LTGmg1ypDNjrhjznIC2tM6Vv459GyuLj2E68Vlvr40VCdxkmPEf2+32mEbPEA8MFhGCvjS++zpvgUVgs80KMx7gk4Jm55fJxeqwyj0x8eP0mb0c8w2k8uSjinn3vuuQcvv/zyuNdjz2V+yjnPv/xKXN/wA9z59G7Ur/0SHv/bZfhA98+4/MbbcVH1NZg7fzFKZ5+LuRdfFv6/8xfjouprcPmNt+Oar/4zblj/COp/2ooLL+zFPb9bjFN5SkJSjvEezHtwgVmzZg327dsnOgwiIiIiyjEmIlXimWeewb333is6jKzxtzbDJ1WjEgB0tdDDg5aopytdrR7wNaM15omzBR6EH5zDa381odqtQFEUKIobZjhgSDujk+bxHgsM7Y2RNnbofZmMEUtrckGx6wFIMEfGtenS+awpeK2weAC93YbopuEywRrYFWUsdo9l3EOuz2FAU7U73MZthuSxwOj0R3UfmZEW6ceu98CSJFlAY+bMmYN33nkn8ZuSGe7R6zL2e5BtfqdxXHJlzrlzAJyPRV+6D39/3zO4/bEXcOfTu7HW+Rbu/Nl/h//v07tx+2Mv4O/vewbXrb0P1SsMmHPR9NzERcTmQmrBezDvwYVm4cKF+OMf/yg6DCIi1TrU1SU6BADqiWMq1PIZ1BJHNqjhs6ghBkoPS7NV4siRI1i4cKHoMLIkXBIo1W1CeP5IJaolwBFdGhh5MG7vBCKN4G3xAHp75GFPC5PLFdWnFlU1ANo64IcOE1fHpXm8ProsVAebXQ+PpQVemw5Zyx1FPmtzqx+myIya2M+ajB/OpnC72ERWuExQb3dFHT8SexOc63Rj5YN6O1wjP2hNaNQ7YBk56X4nmjwSzO6oXtaZIRma0eo3sQQxBbPZLDqExHQ2cOPZMYcPH8aiRYtEhyEA78ExeA8uCFqtFp2dnaLDICJSLa59lz08l9nHc0qZ4IxIFfnUpz4lOoTs8G6DwyehbuXIU5QWK+skwNOEsYkgOoSrBUdmj3jR4gH0MdNTYsv6LJ6MA5nk8W3oyOp0FB3WmSX4mlvDs1z8TjSN+6zj+Z0PweGTYF4X187fgTZI4zdNqKyGBF84sZCOznb4okoYZVmGbHDAl+bhlA0TlK6O7nocW+LttcowOHyAzwFDfCl4otLWLJR9TlSGmk4Z7kQlqtl24sQJ3HTTTTkfR3V4D47DezARERERkVowEakSH330EXp7099gQs28LbFrdMlyJGkCH5qjauNi1i3ztsAjmTH2vOeFVbagzeyOKlnLKIopHp9d2pV1kCKlgf7WZvgmLAkc2RxhU45nxYyVMI79m8Jus5SBiUpXvbAaHKixj5V+oimc3NPZFLjN0rgycLdZihnBa5VhaYtqYweanJlneCYuQ524DNdrlWHx6Ef7sMMyicRWZgYGBmbkDCveg8fjPZiIiIiISB1Ymk1ZFp5VI5ndY+VoI+9YZViaW+E3mcJlebp1MEsGtHhtQIsHUp17rFzP2wIPJJhXTvJpbJLH+zvaANSgarIPgZXVkNA2/nXtStRJDji2OYG28MNtqmfgkc0R7EmfRn0xJZUAIrNr9GhMt56xshpSXGkmZYHPAYPsGPtZn2xX6AlKV/0dCP82jtDB5sqgWHVk1pfdNHZ5dTZk0kVYOmWoE5XhjtwX1o32obMpsEOGJdNwaAK8B/MeTERE09EDG7+ril2BD3V1FXwZLs9l9qnhnE6n8zndcUYkZVfk4bMuwcPn+A0DwuWCnhYnOtrijokvcYtsGJC2dI+PmdUVTrhAXzvFtckSleaNlEY64komExhNINkSx6E1oVEPeCzRZbZeWC2ezGLXrkS4WjO6hNYL6wzetTVde/bswYoVKxK/Gb9ZTcqdalKUro5eZxmybETGExk72+FLVD6aqbTLUFN8lpGk6qSzS5Q23oPBe3DhqqioQE9Pj+gwiIhUSXSSZ4Ra4pgKtXwGtcSRDWr4LGqIgdLDGZEqsWXLFtEhZIU3PBUHCZ/xEmwYoF1ZB8nhgEMywx19jNaETeZmGCwyws+uepjNEhzNaQaS5vGS2Y3GdgNkOfJC0tlr6Y/bqHfAEhlXbx/bMVlraoTeYYFHqkt8fiLCZYOAbzT2KJH4RmeTyWMtJLMbSkb1fFqYXG7AaIiawSfB7HZNMQlA6YkqXR3ZQMMqwxI1mUtnU6DYIq8b5PD3xGVS4eSpiT+LCPX19aivrxcbRJ7xHsx7MBERERGRmjERSVmlsylIvmmvDrb4LX21JrgUU8LWWpML8W+Zon6OHyv+53SODz/shZM9CSOeYIxEn3ckeZSMVLcyZSIpUdxJY0sxTtLYYkeDyaUgjeEo2zIoXdXZFCjrnDAaHNjmNSGtPE1Wyz4nKEOd6LNoq6JKzCmXeA/mPZiIiKanQ11dqpjxdairS3QIU8ZzmX1qOKfT6XxOd0xEEuXLVNdco+klPlE4Uro6st+M1wq5pXZsdlik1LquMvyjtqoG8LVj5PBxRtbEa3JinS4yizK+z3SMzjCzolYZKVUdKUO1h3+e6LNEdmiO7iO8eQ0AgRuY0AzDezARERUwrn2XPTyX2cdzSplgIpIoL/xwNqUomaTpI36zGiTeOGTC0lWdDfYWeaxkFeEy09FuIhuNhEtD9bArNlTGDpCg7FMPu5IiCTku9nC/E5ahplGGq7O5YW4zjPYhmd1wmx+CoT15OETZw3swEREREZEaMBGpEuvXr8eNN96Ie+65R3QolBMsv5sJMi3VTKv0NWl/CX6nxvWX/u9dWrGneH+iz5I4FleKMuKp27VrF5577jm43e4cjkKFgfdgIiIiIiI1YCKSiChDy5cvx+7du0WHQUQ0rXR3d4sOgYhItR7Y+F3ha/AB4XX4Cr0Ml+cy+9RwTqfT+ZzuikQHQERERERERETJiU7yjFBLHFOhls+gljiyQQ2fRQ0xUHqYiCQiIiIiIiIiIqKcYyKSiIiIiIiISMUOdXWJDgGAeuKYCrV8BrXEkQ1q+CxqiIHSwzUiiYgytGfPHjz44IN5XyfSa5VhgR2KLcXO10REBaqiogIHDhzA/PnzRYdCRKQ6XPsue3gus4/nlDLBRKRKbNmyRXQIRJRDXqsMiyf2NcnshsukFRPQhPxwGg1w1BRu4rO+vh719fWiwyAiIiIiIqIIlmYTEeWLZIZbUaAoChS7Hj6HAVav6KCIiIiIiIiI8oOJSCIiEXTrYJYAT4taM5FamFxKwc6GJCIiIlKr06dP48knn8Rbb70lOhQiorxjIpKISCCpujLqJy+ssgx55J/RCX/Ko1O391plGJ1+eK1RbRJMwYx5X7bCG/16VPv0+ouLKfLP6Ez9SYiIiIhminnz5uHo0aN4/vnn8dRTT+HYsWOiQyIiyhsmIlVi/fr12Lp1q+gwiChfvNvg8EmoWzmyRqQfTmMTqt2R0m3FDTMcMCSt3U6vvc9hQFO1O9zGbYbkscQkBb1WGZa26JJxoClF0jB1f15YZQvazJH3FTv0ELcW5q5du2AwGPI+LhEREdFEJElCf38//H4/nnzySTz//POiQyIiygtuVkNElKHly5dPbsdsnwMG2TH2s2TGaB4SWphcrqjGWlTVAGjrgB86jE/jpdlebx9LAmpNaNQ7YGnvBKAF/E40eQC93TTWXmeDK1U1dsr+OtCG6OSqDrV6wDPyPhFRCt3d3aJDmNY2b96MgwcPig6DqCC98cYbCAQCOH36dFb7LSkpwfDwMAYGBvDmm28CwQBQxEd0IpreeJebJp599lm8+eabaG9vx3vvvZewzYcffhjz82WXXcZ2bDfj2t1yyy2oqqrC9ddfD1mWcdNNNyU8LickM9yukaRfeFdqg9wOu2JDOPcXnlEYs7m2lKrDTNvH6WyHDxLqKjM4JhVtFWrgQ3OrHyaTFoAXLR5AMmdrgPzbuHEj9u7di1AolPABXi2/12zHdvHt7rzzztGfcz2uwWBAcXExrr/+elx//fVYtWoViouLEx5L4hw8eBCbN28WHQZRQXr00UfR19eHRx55JGt9bt26FW+//TYAYNasWVi2bBlef2Nv1vonIlIrJiKnCUVRcOONN2LDhg244IIL0jrmtddeYzu2m3HtNm/ejL/85S/Yu3cvPB4PhoeHsXPnTpx33nlpHZ89Wpg2mdFscKDFa4NOF1XWHJlxGC6bTnZ8pu3zoRLVEuBxGDA68VNvH42vEC1YsAA//OEPcdVVV2F4eHjC9mr//We7mdPuiSeeSHpctsf9+c9/Pnpf/elPf4rvf//7ePzxx1FbW5vW8UREM5HP50N5eTkuvvhifPOb38TFF1/MRCQRzQhMRE4TTU1NGR9z6aWXsh3bzbh2S5cuxdKlS3H33XcDAF5++WVotVqcPHkyreNzxtsCDySYV6aZtMu0fSKV1ZDgQdYqp/2taPbpo2Z4FpaTJ0/i/PPPj3nt/vvvz6gPtf/+s93MapfsuFyMe+mll+KrX/0qAODMmTO48847mYgkIkri9OnTWLBgAerq6nDttdeKDoeIKK+4WU0B8nq92Llzp+gwiKaFVatWZZyE3LNnD1asWDHFkf1wPuSATzJjnQ6RpKAvnBQEAK8VFk+KwzNtn4h2JeokwNMUtdu215pwZ+30eWApwB2zT548yY1tiLLk3HPPxcsvv5zxcRUVFejp6clBRERE6jJv3jxs3LiRSUgimpE4I1IltmzZkla7I0eOwGg04vDhwzmOiIiyLsFmNaNrRmpN2GRuhsEiR9Z81MNsluBoTtJXpu0TdwKTyw0YDVFx6WFXJjmfUVuFGkioc7swWo3td8JoMMBapcCW52mS9fX1qK+vT6vtF7/4RTz99NM5joiIiIiIiGhmYyKywKxevZqzIYkKkM6mQLGlbqM1uaCYYl8zRf2ssylQptA+8WtamFwK4rpJ2Hai/vzOJnikOrijy7y1VQhv5u0HdOpcK3LTpk2ora3FDTfcIDoUIiIiIiKiaY2l2QXkueeewx133IEvfOELokOhSfJa5SmWvVKuOZ1O/PjHPxYdRuHyNaM1qhLb72yCBxLqprKWZQ51dHTgzTffxGOPPSY6FEqB987C5vf7R9ePJCIiIqKZjYnIAuL1etNeOL6g+J0wyjJk2Qp1PGb64TRGr3GXq7gi4/DhWlU+/elP46WXXhIdRkHSmlyw631wGMa+PwYHYI4u1VaZvXv3QqPRiA5jcnjvzEnvlH1arRavvPIKPv74Y9GhEBEREZFgTESqxPr167F169aUbfbu3Yvrr78+TxHlj7+1GT69Hnp40DLZ50qvFbJsxNT3xPDDaTTAATPcigJFUaDYXFgvqAAAIABJREFUAYsxajMPmtZuuOEGvPHGG6LDKFg6W+R7M/pPXBJy165dE25AU8j3Vd47qZDw3kpEREREANeILChvv/226BBywI/WZh/0jS7UwgNLixc2XZ53tIgJpxXNPkBvj2wgAgA6Gya7d0dqydfmI3FKS0tx1VVX4a233kq6k+Hy5cuxe/fuPEdGuVC4Jdm8d5py0TXlzGc/+1m8+eab+OIXv5i0TXd3dx4jIiIiIiIROCOSxPK3otmnR60O0NXqAU/LuFK+RGuDRb/mdxohWzwAxkpCo5v7ncaoUsEJyvkiG2t4Jphe5LUmKz/0who91gSzgeI/m9cqw+j0x/Y/Lt64MSL/jEmnNKVuP27MqPEmOncTXZvo/mP6UvksqRUrVuD9998XHQZRcrx38t5ZYK677jocO3ZMdBhEREREJBgTkSSUv7UZPqkalQCgq51UiaHW5IJi1wOQYHaHSwJtkVk4fqcRBkcN7KNlonboPZYUD9Q6rDNLgMeSdH0zr1WGpS22/LDJ6Ue4NLEJ1e6RsdwwwwFDhuuY+RwGNFW7w324zZA8lqgHZS+ssgVtZvfY5wEgmd1wJax/Ta99zJiRk5f5uUv9mQztjWP9+DI/L/l07NgxBAIB0WEQJcV753i8d6pbX18fTp48KToMIiIiIhKMiUgSKFxaKNWtjJTyVaJamnhGTfq82ObwQW+3Yaw6UAebXQ94mpKuiaY1ucIPsfDAEj9rx+9EkwfQN8aWH4YfTLUwuaLXw9OiqgZAW0dmM1j09rEHXa0JjXrA194ZGb8DbTE7EOtQG/1+vHTbS2ZsinkYn9y5S/WZRh7Sx/oZP4NLLXbs2IHVq1eLDoMoCd47E+K9U9UaGhrgdDpFh0FEREREgjERWSD279+PpUuXig4ju7zb4PBFP+hpsbJOmtzDWiKRB8nqyrjXK6shwYdkz5/hUExwjcyqgQeWkQfqznb4EvU5KraUz+KZ8qeIi6sKNfChuXVslk+LB5CSBZRu+5oqxMwJmsq5S1sbOgq0xnDPnj1YsWKF6DAoC6qqqtDZ2Sk6jMzw3pk53jsLQkVFBXp6ekSHQUREREQ5xM1qVGLLli2iQ8g7b0v4SdNhkOGIe6+51Q+TqK12o2lNcLkBo8GBFm/0DJdEokr5IrGHSxGzGVBk5pPDAHnkpOnto+NNvT3R9FFfX4/6+nrRYWQd752TwXsnEREREZEaMBFJgkRmlyRYn8trlWFpboXfZELaj3yV1ZCQ6Kk1MgMluqPOdvigR+NkdnOtrIYEz/g+AcDbAg8kmFfm8EE1skGFXZnowX6S7WNk+dxFh9XRBqAGVXymJ8oQ752TwnsnEREREZEqsDSbxIg8eNYlePDU1eoBXzNGKuIqq2NLDr3WZGV7cWVvkTXCPJa4nVktHkBfm/jh0msdtyupd5sDPoR3p4V2JcIVkFFtvNbwJgTxpXdea/bLCwFgdP21dHZ9nUx7pH3u0r42MRs1hNdQS3oNVGDNmjXYuXOn6DCIxuO9cwp47xRp+/btMJlMosMgIiIiIsE4I5KE8Ian9CDhBJjIDrAjJYZakwv2dhmWkTJEvR1ucxMM7VHHaE1o1DtgscjwANDbw7u/6mwK7JBhkcee8KSo8r/xY9vg7jDCIEcVPEpmuJWRGUZamML1hlFt9LArOgA6bDI3wxCJAdDDbJbgaJ7cOUpIW4UaSKhzR23s4HfCaDDAWjW24+2k20dJ59yldW0ir9thgSyP/aykGpyIEuK9c5J47yQiIiIiUgUmIlVi/fr1uPHGG3HPPfeIDiUvdDYFSvJ3YVNi39XZFCi22Dbxx49vk/r1ZLQmFxRTyhYwuRQkapLo2OgJIPGfe6Kf41/zO5vgkergjs4FaKsQ3mDWD+hikwTptE91LdI5d+lcm3T7IsqmXbt24bnnnoPb7RYdStbw3pnez/Gv8d5JRERERKQOLM0uEEuWLMG+fftEh0FqEFV6CUQemJOUak6qPU1o+fLl2L17t+gwKAs6OjpQWVkpOgzKB947Va+7uxvz588XHQYRERER5RBnRBIVkHHlfAAACebo8sEptCcimo547yQiIiIiUgcmIokKTKZleqLL+lKXkhIR5QfvnURERERE4jERSUQUZ8eOHaJDICKaVhoaGtDQ0CA6DCIiIiISjGtEFoj9+/dj6dKlosMgIgB79uzBihUrRIdBWVBVVYXOzk7RYRARgIqKCvT09IgOgyiL/HAaZcjyyD8rvLkaymuFLBvh9E/clIiISCQmIlViy5YtM2bHbCKifKivr59WO2YTEVEh8cNpNMABM9yKAkVRoNgBi9GJ0VzhJJOHfqcRcnQ/REREBYSl2URERERERNnkb0WzD9DbTRjd40png6LL0Xg6GxQuLEtERAWAMyKJiOKsWbMGO3fuFB0GEdG0sX37dphMJtFhEOWPtgo1ADwtiYux/U4jZIsHgA8OQ7h02zra1AurHFXSHTX70WuVYXD4AJ8Dhug2ce1G2ualLJyIiCgDTEQSERERERFllQ7rzBLgsSRMAmpNLih2PQAJZne4dNumA8Il3U2ojrymKG6Y4YAhkqXU2RS4zRIgRZV8K5HXonitMixtsWXhTVxAkoiIVICJSJVYv349tm7dKjoMIqJpY9euXTAYDKLDICKiGUprckFxmyHBA0vasxK1MLlcMGnHfq6qAdDWkf6akH4nmjyAvjG2LNw11imp1NDgoOgQpkRN8asplslQW/yDKotnMqbDZ5guuEZkgViyZAn27dsnOgwiArB8+XLs3r1bdBiUBR0dHaJDIKKI7u5u0SEQZZ/WBJdiAvxOGA0OWGTArtiQeqlIL6yyBZ7ol6RkbRPobIcPEuoqMw+XxBoYHERpWZnoMCatX0WJHp7L7Dp96iQuml8BjUYjOpRJCYVCOHXqlOgwKIIzIomIiIiIiHJJa4IrMjsyybKREeEkZJvZPVp2bdfnK0gS7aMjRzA0PCw6jEkZHh7G0SNHRIcxiucyu44fP4HTZ84gFAqJDiVjoVAIp0+fwYnjx0WHQhGcETlDBd7/E4ZeeQahgbMInezK+/ia8xdDM2s2Sm++F8Wf+kLexy9Uqrhu5y1E+defzvvYRIWA39HC1P/8PyJ06qNp9ffw9ttvz1pfRJQjldWQ0Bb7mrcFHkgwr5xCGXVlNSR40N4JgNXYBaVi/nz4O9qx+NJLUVxcgrICmNE3ODiIQGAYXYcOoWJ+hehwRvFcZteihQtx+PBhDF50Ec4777yCOJ9A+JyeOnUKJ44fx6KFC0WHQxFMRM5AgQMvY/DFnyA00CsshtDJLoQADLp/iLI7HkbxVauExVIoVHPdTnah/2dfRnnjDqB0trBYcmnHjh2iQ6ACxO9oARrqQ9+zX0Po9DFhIeTq76HaEpENDQ1oaGgQHQZR/nitkJuq4XaNrdPo3eaAD3o0xtRl+2IThvFJRK8VFg9iSrO1VTWArx3Rh8XQrkSd5ICjyYl1usj4XivklloottRF4STWbbfV4fl/d+ED/weiQ8lYaWkJbrutTnQYo3gus+uhhx7AQw9/HyeOHy/ImYWz58zBQw89IDoMimBpdoHYv38/li5dOuV+Au//CYMvPib0QTlaaOATDL74EwTe/5PoUFRNbdcteKYHg6/9SnQYwuzZswcrVqwQHQZlQVVVFTo7O6fcD7+jhWnwtV8hdFod6xLy7yFQUVGBnp4e0WEQZYfOBnddMwyyDDnyL7yLddT6kFoTGvWAxxJ+3+oNv7bJLI2+JlsAc9yO2NCtg1lKtQGOFiZXZLdteawfO5OQqmc03gWLeQOqKqtwyYIFosNJyyULFqCqsgoWsxlG412iwxnFc5ldV155JZp+8TSuveYaXHJJYZxPALjkkgW49ppr8OwvnsaVV14pOhyK4IxIldiyZUtexhl65WmEBj7Jy1jpCg30YuiVZ1iinYL6rlsIwXdbgb//tuhAiJKqr69HfX19Xsbid7QwBd/9IwD1rHXEv4dE04vW5IJiSt1GZ1Og2CY+zhTzsxYml4KYl8Ydk6ANFYRVq2qxalWt6DCmBZ7L7FqwYAGefPJx0WHQNMAZkTNMaKBPdAgJhQbOig5B1dR43UKD/aJDIFINfkcLU2hwQHQI4/DvIRERERFNZ0xEzjAiFuJPh1rjUgs1np/QqcOiQ8iZNWvWYOfOnaLDoALC72hhUuM5UuPvUjZs374dptgpXUREREQ0AzERSURERERERERERDnHRKRKrF+/Hlu3bhUdBhHRtLFr1y4YDAbRYRAREREREVEEN6spEEuWLMG+fftEh0FEAJYvX47du3eLDoOyoKOjQ3QIRBTR3a2OHcyJiIiIKHc4I5KIiIiIiIiIiIhyjolIIiIiIiIiIiIiyjmWZtOEQgAGh4MIBIE5ZbnJXZ/sG8acnPQ8cw0MhRAIhXjNJmHHjh2iQ6BpLnxfDSAQ1PA7WkD493DyGhoa0NDQIDoMIiIiIhKMicgCsX//fqxduzbv60QGgsDxs4NQPjyD3sFATsf6Rk57n1n6h4LoPNGPdz76JKfjzNRrtmfPHjz44INcJ3IaqKqqQmtrKyorK/M2ZigUwqn+AP7ceQpneV8tGPx7mHsVFRU4cOAA5s+fLzoUIiIiIsoRJiJVYsuWLaJDSGgoGMSf/GdRNvd8zD2vHL3dXTkZ54LKq3PS70wUQnhGTXvfLMytOI/XjGas+vp61NfXiw5jnMFgCPuO9CI4m/fVQsK/h0QEAF6rDIsn6gW9HYpNJyweIiKiQsNEJCUVCIVw8FQRpDtMWCzfggVX3yg6JErDcCCErqHZWP5PT2DhtStEh0NEccqKi/BJ2UVY3vg4v6MFgn8PiQjwwipb4JHMcCsmaEdetcowOt1wmbQpj85sKCtkSxvMbhey2W3O+yYiIkoDN6uhpIJBIHhRJT7z9Yf50FVINIC09iEmOKZgzZo12Llzp+gwaJo6OxTE8n96it/RAsK/h1O3fft2mEwm0WEQTZrf2QQP9LC7xpKQAKCzKdlNQhIREU1znBFJSQU0pfj89/4z5rXgh3/F4O8eR2ioH6FTh/Mek+a8RUBwECVX3YrSVZa8j18IAihBxee+EvPa0Mt2DL/zB6C4jNeNSLCi4lJUXP35mNdU8R0tLces2x9E0WXL8j6+2vHvIdFM58U2hw+SeRMmKsL2O40wOHxjL8SVbnutMpqq3WhsN4yVeEe1iT7eYZDhAKC3KxjpIrY0XA+7YhuNaUp9+50wGhzwjR42NiYREVE2cUakSqxfvx5bt24VHUaM8qLhmJ+DR9/FwI6NCPa0C3noAoDQqcMInenB0N4dGPj1PwiJQe3Ki2I3URj49T9g6M2dCH3Sw+tGM8quXbtgMBhEhzHObLV+R3vaMbDjfgSPviskBjXj30OiGc7fgTYANVWpZz6GE301sCsKFEWBotih91ggW70x7XwOA5qq3eE2bjMkjwVGpx8AoDW5oNj1ACSY3eF+YpKQsEf6VmDXe2AxOuGfct9eWA0O1NjH4kZTbL9ERETZwkRkgViyZEned8yON/TKMwj1nxYaw6jAMAJHDmDoZbvoSFRt6GU7AocPAMEh0aGETZPrtnz5cu6YPU10dHTkdcfseGr7job6z2DolV+IDkP1+PcwN7q7u7ljNhWw8KxJvd0WNWtSB5tdD3ia4IzO6untY+XcWhMa9YCvvTN1934nmjwSzOuiel9nhuRrRuuU+w4nWsfoYIsrQSciIsoWJiIpbcFDYhOh4wwNYPjdVtFRqNrwu63A8IDoMGLxuhGNUuN3NHjobdEhqB7/HhLROP4OtEFCdWXc65XVkODDRLnACXW2wwcfHAYZshz5F1VKPSWRhKXHIkOWjbFJUyIioizjGpGUvvJ5wMAnoqOIpSkWHYHKqfS/NfC6EUWo8DtaPk90BOrHv4dEM4u2CjUA2jr8gE7kPEEpZ7td62wKFFuk/NsgwyGZ4easSCIiygEVPgGRWolaByuV0Mku0SGomhqvGaD+67Zjxw6sXr1adBg0A6jxO6rGmNRGjedI7ffVhoYGOJ1O0WEQTZIOtXrA19w6wbqJCWY+drbDBz1qM9n4pbIaUsLXsjCzMlHfUXS2yNqSPge2eVM0JCIimiQmIgvE/v37sXTpUtFhEBGAPXv2YMWKFaLDoCyoqqpCZ2en6DCICEBFRQV6enpEh0GUkM5mh97ngCFucxivVQ5vBjNa3mzFWP7OC6vFA+hrJ9xte7y4pKN2JeokwBOziYwXVjl6vEn27bXGbqjT2Q5fojJzIiKiLGBptkps2bJFdAhERNNKfX096uvrRYdBRETTgg42xY1qowEG2TH2st4OJVIrrbMpsEOGRfaMvi2Z3aPvp01rQqPeAYtFhgeA3q7AptPC5HIDMeOHS7UzSnIm7NsGe4sMWY7+WEpOSsCJiIiYiCQiIiIiIpqQFiaXAlOKFiNrLaZ8P93XxvWTevyp9D1R3ERERNnC0mwiojhr1qzBzp07RYdBRDRtbN++HSaTSXQYRERERCQYE5FERERERERERESUc0xEqsT69euxdetW0WFkVSAUQv9QEGcHgzkb42TfcM76nqkGhnN7zQBeN8qPXbt2wWAwiA4jq8L31QDvqwWG142IiIiIKIxrRBaIJUuWYN++faLDSNvAcBDHzgzC/3E/jp0ZzOlY38hp7zPLUDCEtw+fwQcfD+R8rEK+bsuXL8fu3btFh0FZ0NHRITqEtA0HQzh5dhjvdZ/FR6dz+x0t5O+n2vC6pa+7u1t0CERERESUY5wRSVkXCgHv9/Rh7+F+nC46F3MrFudsrAsqr85Z3zNNIAC8dbgXx4Ln5PSaAbxuRJMxOBzC7s7TOKnJ7XeU38/sGhwOYbe/l9eNiIiIiAicEUk5MBwK4QzmQrrDgMXyLVhw9Y2iQ6I0BBFCf+l5WN74BBZeu0J0OEQUp1gDlJ+/ADc1Ps7vaAEpKSqCdIeJfw+JiIiIiMBEJOXAcAAILpDwma8/LDoUysBQELj2H/4PFlz9edGhCLdjxw7RIRCNEwhpsPyfnuJ3tMAEi8v49xBAQ0MDGhoaRIdBRERERIIxEVkg9u/fj7Vr1xbEOpGzSzWo/d72sReG+jD42q8QfPePCA0OIHTqcN5j0py3CJqyWSi68haU3fRNoHR23mNQuzmlGsyJTnCo5LqhtAxlukYUX7ky7+Mns2fPHjz44INcJ3IaqKqqQmtrKyorK0WHMqE5ZbHf0eDRdzH0yjMIHtoHlM/L+3eU99X0lGti10kOvNuKQW8TMDTIv4dxKioqcODAAcyfP190KEREpAJeqwwL7FBsOtGhEFEWcY1IldiyZQvuuece0WHkRH/TGgzv/iWC3R1CHroAIHTqMILdHRje/Uv0Pfs1ITEUGrVct1BPJ4Y8NgTebRUSAxWu+vp6uN1u0WHkRPDDv2Lg+XsReP/PCA18IuQ7yvtq5gLvtmLIY0Oop5N/D4nUyu+EUbbCKzoO1fHDaZRh5YkhIPI9kSHn9bsS/h2Uc/lL6LVClo1w+nM3RFjks8gj/3jPoZmFMyJnmL5gMWYXBfI2Xv/z9yJ4Rk27YIYQOn0M/c/fi/KvPy06mLTN9OsWHDyLQW8TZqtoViRRtHx/Rwd+9zhC/WfyNl5qhXlfBfJ/3Qa9TQgNns3beKkV7nUjyiXvNgd8ejtG5l/5nUYYHDWwKzbEzsnyw2k0oLnODZepE1bZAk/SXm/AZ/EG3kz6vh52xYZKpxEGhy/urTRng/mdMBociD1aHxO31yrDkiBIvd0OWFLFH+5nZZ0ER5MT63QmaCeOiKYxf2szfHo99B4PWrw26ApwwqLfaYShuQ5uV75/n8P3DgfMcCuRsb1WyEangFiIxGAicoYZHBzA7PL8XfbQqSN5GysTao0rGV43AEODE7fJkjVr1mDt2rVYvXp13sakwpbv7yiG+vM3VppUed+YwFDer1v+7mPpePmTxXj59WLg9Q05H+vAgQPo6urCqlWrkrbp7e3Fww8/jNmz818u3tXVhccffxwVFRV5HztfrrjiCtEhFAAvWjyA3p5pVkUHm6LANtLLBOWkyd73A4BkjkpGeGGVLZDbzCkTFOEEowSzW4ErqpHfaYQhPrkhJekrnfhX1kFyNKPVb4KJ2ZIZzI/WZh/0jS7UwgNLixe2vGQitTC5FJhyOYTOBkXJ5QAA/K1o9gF6e9T3UGeDUoDJXKLJYiJyhnm/bw6uKRtAaZEmL+OFTnblZZxMqTWuZHjdIKyMkSgdef+OqvD7oMb7xkS6A+WYFxoG8nPZVHfdVp3ThVXndGHO917P+Vjbt29Ha2srNm/enLSNy+XCY489JmSNyFdffRUPPvggli1blvexSUW8LfBAj4zzkDmjg82uh8eSPPnndxojSUjXuPe1JhcUUxbD0a5EneRAc6sfJmYiZy5/K5p9ejTqAB30gKUFXpsuZsaw1yqjqdqNTXhobJZvXBI8nTbxEiXJY2f6Rs8C9sbOVI7qe+wYHwyyI3aQuBj88TOV9ePHb6p2o7HdMBZHqpnM2irUAPBMkMBN/rkSjKm3ww4LLOP+o0X4HMCuYCScTPtVbLpxM671Uf0RTQbXiFSJ9evXY+vWrTkf55TmXPz10BkMB0I5H4uyh9eNKHO7du2CwWDIy1j8jhamQ4Nz0DccFB0GEamEv6MNkKpRKTqQaJXVkJK+GZ6ZBn1jnmYoalFVA/iaW5HzJfRItfytzfCNfE90tdDDg5YECxz6HAYY2huhKAoUxQ69zwFD3PqO6bRJxWuVw8k3RQn3YQeanH6Ey5+bUO2OvK64YcZY3zqbArdZCicdR45VIq9Ff9bRpRmUsRg9lnHrVPocBjRVu8Nt3GZIHguMSRea1GGdWQI8lqRrQ44mXCPj2vUeWIzOmO9dzJg2HXS1esDXjNboRpH/uFKrm3y/gBdWgwM19rFzgCYn7wE0JUxEFoglS5ZkZcfsZcYHcLS/BK9/cAqn+4fRO5D8AezMMCfMqgWvm7osX76cO2ZPEx0dHVnZMZvf0cK06LO346UDx9F9Zgi9g8nXiuQ1y4/u7m7umE1Cdbb7gJoqda3R1tket+5jlJESz9r8TU2qrJYAXzs68zYiqUs4+S3VrYx8TypRLYVn940TMyswPLsXnpbYxFs6bZKG4kSTB9A3xpY4u0xahMu4o2cJh5PoaOvIIIHmxTaHD3p79PqwIzE2xW5oo7dHxgWgNaFRD/jaO5P2rDW5wglLeGCJ36zG70STR4J5XdSo68yQ4pOMkhmbov8LhK4WevgQPay3xQPoa8PxT7ZffwfaYqLXwca1LGmK+L+sZ5jF8s343Lcfw+tbHsbL756YsP038hATTYzXjUjd+B0tTEsMjXjfuwOvtn80YVteM6Lpzo+ONgA1id7zwCIn3spFqstlSE4YLR5Ab097xuO4DWniS0R9jthS1HQ3w4nQViU8QTRTeLfB4ZNg3jTyC6kNb2LkaIJznS6N39M2dPgBXcp26bRBJEkvoa4yabDjN5FKPr14PH8H2hL1X1kNCZ5wwm8q2TitCS7FNFr2bJERLpPubIcPPvgMMmKLxiXE3G7G/UcTHWr1iFqzM27N28n2qzWhUe+AxSLDg8TLQBBlionIGajyC19G6exz8FfXkxjq/wSfHP0gYbsLKq/Oc2SUCq8bkbrxO1p4SmbNwVefeQ0v2/43Punp4jUjIkjVlQle1SffNTvbAcQlCiWzG0oGT/06mwIlsutMuAwzzgRr8BGl4m0Jp/Uc45JZUNnaoeEkZFvU9ydcxi04rES0JrjcgNHgCO9ADgCTTPjpaqPW7PS2wCOZ4Y65cU2y38h9xWuVYTHIcPA+QlPEROQMtVi+GYvlm0WHQRnidcuPHTt2iA6BChS/o4VplfXfRYcw7TU0NKChoUF0GEQT8k15mtMUZfKAn+amF0TZEZ5hJ5ndY2XII+9YZViaW+E3Jf/d9UemHFel+OVOp82oVDMTvS3h2Xsrp/pd9o3vv7MdPoQ368mJqcy41K2DWTKgxWsDWjyQ6txjXWRhJqfOpkBZF57Buc1r4oY1NGlcI7JA7N+/H0uXLhUdBhEB2LNnD1asWCE6DMqCqqoqdHZ2ig6DiABUVFSgp6dHdBg0Y0XWkCsoI5texK1Xl0PhRBHNSJHkXl2C5F7CjVJiNnUJr7c4ul5hJm2S0a5EnQR4ojdO8VrD/VVWQ4peL9FrjV2yAJFlBlKtdxpZ69Fjid5QxgurxZN+jIl4rZDjNojxbnPAN7KpTKLPBS+sSTa2iQsaK+skeFqc6GiLu1aT7XfknI6IlMQnnDxOlCbOiFSJLVu2iA6BiGhaqa+vR319vegwiIioQFRWS0BzB/zQFUzJoda0CeZmAxwGI5CHtds6232AVKeuncUpL7zh6ZBIOMkwsnt2THm23g47LJBljP48bj3SdNokpYUpXNMctZyBHnZFB0CHTeZmGCxyZI1IPcxmCY7otRQiswfD67+Gl1+ojP9YNgV2yDFrxGa6XMI4OhvcHcbYtVolM9zKyGzSRJ8rXFKdzpnRrqyD5HCEy6djF3ucXL86G+wt8tg1AqC3K1wnkqaEiUgiIiIiIprxomdIFc4zthYmlwKT1wo5ft0+yQy3Ky7FEL9ZDRKX2iYW3tBnbMdkmkl0NgVK8ndhU8a/G71macp+k7SJH3N8DJHf/wTHak0uKHFvmGJ+TnBsgmMm+gyJzkvqc5U4trgWST/XhP2PbIKTxX7TuY5EmWAikogozpo1a7B27VqsXr1adChERNPC9u3b0draCqfTKToUouR0tdDDEt4wIpK/S54wSP5AP1ESItn7EycnUnYKZYJMQbrJhKTx+1vR7JNQt4lpSCIimjyuEUlERERERAQdavXhzV9oPH9rM3xSXeLSXCIiojQxEakS69evx9atW0WHQUQ0bezatQsGg0F0GEREVEB068yQPC1pbAox0/jR2uw0a29iAAAgAElEQVSDvjHNHb1pRgvPvk29omE6bYhoemJpdoFYsmQJ9u3bJzoMIgKwfPly7N69W3QYlAUdHR2iQyCiiO7ubtEhEEXWVxMdhBqFS9GJiIimijMiiYiIiIiIiIiIKOeYiKS09QWLRYdAGeI1I1I3fkcLE68bEREREdHksDSb0jY0OIDZ5fyVKSSDvGaTsmPHDtEh0AzB72hhms5/D1944QW8++672LhxY1b7bWhoQENDQ1b7JCIiIqLCwxmRBWL//v1YunSp0Bi6A+VASGgIlKH3++ZgKMiLlm179uzBihUrRIdBWVBVVYXOzk5h4/M7Wpim49/DF154ARs2bIDX68WHH34oJIaKigr09PQIGZuIiIiI8mN6/uf8ArRlyxbRIUzo0OAcLCo7idmlzF8XilOac/HXQz2QF5+LkmKN6HCI8qq+vh719fWiw0iJ39HCNJ3+Hr505jK8smEDSktLAQBDQ0OCIyIiIiKi6YyJSErbos/ejpf+78+xoup8zJlVhLllidfIOjNcgjl5jo0SW2Z8AHsc/4zXPziFaxaeg2JNEebOSvzgzOtGlH/8jhamdP8eAuq+bk8fX4Ijw3MBjE9AbtiwIe/x9Pb24uGHH8bs2bPzPnZXVxcef/xxVFRU5H1ska644goh15qIiIhmLiYiKW1LDI1437sDr7Z/NGHbb+QhHprYYvlmfO7bj+H1LQ/j5XdPTNie1y1szZo1WLt2LVavXi06FJrm+B0tTJn8PQTUe93uvWg/XvrkcrzyyUKUlJRgeHh49L3Nmzdndazt27ejtbUVTqczaRuXy4XHHnsM8+fPz+rY6Xj11Vfx4IMPYtmyZXkfWyQmIYmIiCjfCr+miPKmZNYcfPWZ13DJkptwzoLLk7a7oPLqPEZFE6n8wpexYsPPcIH2al43IhXid7TwpPv3EFD/dbvtnA+wefNmrFy5EgBQUsL/Rk1EREREucP/takS69evx4033oh77rlHdCgTWmX9d9EhUIYWyzdjsXyz6DCI8mrXrl147rnn4Ha7RYcyIX5HC9N0+nuo1+uh1+vh8Xjg8/lEh0NERERE0xQTkQViyZIl2Ldvn+gwiAjA8uXLsXv3btFhUBZ0dHSIDoFIVUYSkiJ0d3cLGZeIiIiI8oeJSCIiIiIiIvr/2bv3uLjqO2/gn7lxS0JiEhJjVCAaM5qomWpNK+iYpS1qd5Zp1zTLtm5wDd102w1st1afp33oa3m0tddlfNY2LdiQdru0m7iFTqulijgVTDXZjpfETEIMjCYxBAjhOszlnPP8MQPMwAADM8M5M/N5v155tZn5nd/5nvPjd8z58ruQArzx5lt47rnn4fF6cenS3OtHy23lypVI0+pw/yfvw9Zbb5E7nBC8l7E1MjKC//zlr3D+3Hn0JcD9BIBVK1fiqvVX4W//ZieWLFkidzgUwEQkERERERERkczeePMt/KLhl3CPjckdSsTGE3y/aPglACgmgcZ7GVujo6P41re/i8HBQblDmZe+S5fQd+kSvuV8D//7sa8iKytL7pAI3KyGiGiagwcPcsdsIqIY2rVr16w7ZhMREfDc755PqMRZMPfYGJ577nm5w5jAexlbdc/8NOGSkMEGBwdR98xP5Q6DApiITBDHjx/Hli1b5A6DiAC0t7ejsLBQ7jAoBvLz89HV1SV3GEQEICcnB729vXKHQUQkG4/PK3cIUfF4lRM/72Vs9V++LHcIUUuGa0gWnJqtELW1tXKHQESUVEpKSlBSUiJ3GEREREQRSYR1DGejpPiVFMtCKC3+vj5lxbMQyXANyYIjIomIiIiIiIiIiCjumIgkIppix44dOHTokNxhEBEljQMHDqCsrEzuMIiIiIhIZkxEUly5RI3cIYQ14hblDkHRlNhuIx5B7hCIFEORfZTP1Tmx3YiIiIgo1TERqRDl5eWoq6uTO4yY83jccocQliDxxWs2Smw3QZTkDoESTFNTE8xms9xhxIVKUNYC5gCfq5HwKvHZynYjIiIiokXERGSC2Lx5M44dOyZ3GPP2risLXoUlkHyChNOuLLnDUDTFtZsE9AgZckcxoaCgAG1tbXKHQTHQ2dmJvLw8ucOYtwseHUQF9VE+VyPTI2QAymk2xbVbT08PVq9eLXcYRERERBRH3DWb4mpAtQxvnO2FYf0yaDUqucOBV5TwxrkhDGfnyB2Koimt3cZ8Is56luBmuQMhUogTfSKWrfJiRVYa5O6ifK5G7qwnC1elXUamTv7fA7PdiIgSy1cf+RdcvX693GHg7Llz+M53vy93GFHhvYw9JdzTZLqfyU7+fwlTUtta+lV0j2nx2nsDGBzzybYW1YhbxMCYD687B3DBrcXW0kdkiSNRKKbdPAJ6hjx4/kQfrvrwvbLEQKREeQUmtHWNoKt3FKMeASOexe+jfK7O31W334ffn+hDz5BXtnVv2W5ERIlJ7iTPOKXEEQ2lXINS4ogFJVyLEmKgyHBEJMXVesM9uOPz38Jrtf8LL568JHc4SMtcim2f/xbWG+6ROxRFU1q7Za1ah80lexbtfAcPHly0cxEtxG0Pfg19p9/CsTNv4s3zw7LGwudq5Dab9+Bd20G8cuaC3KEservt2rULu3btWpRzEREREZFyMRGZII4fP46dO3dGtk6ksx6lZgscMKHGXg1j/MObVd6dfwld5lK80fBdeMeGMdz9XszqPv3BCjQNTf/8xqsu4/6lk38/178Cv+wJ/OWL/wcwLYO9evzO2FBlqIR1orQeFY0NKMuNWZhzU1ibAfFrt0jbLLScC//3iSOKabP29nY8+uijXCcyCeTn56O1tXXudSIV2Ec/8a+/wtGfPY6zr/0eUKsxfPH9mNSbNM9VQHHtpk3Pwqd/eBgvVv8thnvP4eRwBtaPnIpJ3cnQbjk5OThx4gTXiSQiIiJKYkxEKkRtbW3M6nK2NsNhMsFktaLFVg2j3G9e8I+wi8eoC1uVAU0dFWhsKEP496TAS5W+Ao1/mCxjqzKgtL4RDWVAfWklUGOH3QgATtSXmmExVyF/EV9aldhmQHzabV5t1qDcNiPlKykpQUlJSUzqUmofvf3vvo7b/+7rMa0zWZ6rgHLb7WNV/wkA2Lt3Lx79aXNM6kymdiMiounOnjuniKmnZ8+dkzuEqPFexp4S7mky3c9kx0Rk0nGitdkB054GFMGKyhYbqpXy5iUDZ/0+WGFCzZQXM2O1feKlqqzBHvRNLsr2mGCpXMyXVrZZsMRoM0ot7KPBEqePst2CJU67ERFRONyEI3Z4L2OP95Tmg5vVJBtnK5odJhQZAWORCbC2wDaliH/0gxPO+lIYDAb/n9J6OIHQz6qmHYmq8e+CjvGftx6lwd9N/X5q3WHqH4/LVjVzmfmx4RmLA/qKh+c3kiNvA/TQY0NeFKeeD7ZZSLxKaLMdO3bg0KFDsamMEh/7aEi8SuijEUmAdgOQMu124MABlJWVRV8RERERESU0johMMs7WZjj0xcgDAGMRTKgMO5LBYTHDbKqB3W6cWEPLbLAAIZ9VoqrIjuqJKVr7sKHRDnvu+N/NMFfl+9eWyi1Dg70sULt/+ldH8faJURfO+lKYLRtRY28IvAT5yxhQE7Q2lT+ufRWNsNtzJ2Io3dCIhoUsUOXsRAeAjfnzO9bZ2gwHNmLPIq2JxTYLvhmJ0WaUWthHg29G4vTRRGi3Z/fuhd1ew3YjIqI5ffWRf5F96ivgn/6a6KPfeC9jTwn3NJnuZ7LjiEiFKC8vR11dXZS1+Keh6SdeePKwQQ9YW8KMojAFvfDklmGPKfxnk8fmoqwheMH6XORvBNDRGTLKAwhM/9JX4MmJwv6RGKaa4DWmjKiuMQHWfagPrsBUM/mSFYjBcaZr9st2WGCeZUTQ/Cxw1MiCsc0Sr80oUTQ1NcFsNkdZC/toYvZRtltithsREc1E7iTPOKXEEQ2lXINS4ogFJVyLEmKgyHBEZILYvHnz3Dtm256BxaFHxZPjLzy52F6sh8WyD/UPG2Ow6+XU3TQB6KcUcdbjMYsDppqGyTWonJ3ogB7FeVPK5m2AHlac6QJmWFk/MvrZFuefDyfqSwML+S/WFqFssyjJ0GYACgoKuGN2kujs7Jy9APtolOTpo2y3aMnTbj09PXMXIiIiIqKExkRkErG1+F+JLGYDLFO+a251oiyql4nA9LKKRtgD9diqDKjsmFLqGQscpho0KGH4RG4+/INUnIBx7mu3VZlhcZhQY4/FS1xk2GZTJECbUWphH50iQfoo222KBGk3IiIiIkp+nJqdNGxosQL6ikbY7faQPzUmwNHcOm3K2Pyqb4EVehRvn+WVxFaFSqseFQ+He+tyYNqMsq4zcMC/kUB8GFEU4bU760v9sTdWL+IUNLbZdEpvM0ot7KPTJUIfZbtNlwjtRkREszl77pzcIQBQThzRUMo1KCWOWFDCtSghBooMR0Qmi8CLUUWYFyP/bqHNaHWWLXw62tRpY7YqVFoRNBXNhqpKK/QVjdPPkVuGPSYLKiurUGSvntxUodIKmGri+qJjrK6ByVAJcylCpqvZqgzYF1j0379xAFDR2BCD6XrzwDYLSwltdvDgwdhXSomHfTQsJfTRWSVQuwWXT/Z227VrF3bt2hXbSomIUgg34Ygd3svY4z2l+WAiMkEcP34cO3funHGdSJt/+AfCDtAwFsEEa3TT0XLL8GRFM8yVhsCaWCZUVOhhaZ4IwP+5xQzDxDw4E2oCL8jGajtqYEClYXJFLX3QtLaoOAI7nAbRV4zvLGpEtb0RG0rNoWVMNYFz+xfj94c+ZQpfzNbaCo9tlnhtNq69vR2PPvoo14lMAvn5+WhtbUVeXt6079hHE7OPJlK73XXXXTAYKtluATk5OThx4gRWr14d5zMRERERkVxUkiS9DCTv7Ju+vj5s2rQJvb29cocSlbkSkUS0eJiITB6zJSKJ4m3v3r146qmn5A5DMeRMRBoMBuzfvx9bt25d9HPLiT+DRJF54okn4HK58Pjjj8f1PHsrvzzjd1995F8UsSvw2XPnZh399lTNDxYxmpnxXsbWbPcTUMY9net+Asq6p/GWmZmJ/v5+ZGRkyB3KNFwjkoiIiIiIiEjB5E7yjFNKHNFQyjUoJY5YUMK1KCEGigwTkUREU+zYsQOHDh2SOwwioqRx4MABlJWVyR0GEREREcmMiUgiIiIiIiIiIiKKOyYiFaK8vBx1dXVyh0FElDSamppgNpvlDoOIiIgoamfPnZM7BADKiSMaSrkGpcQRC0q4FiXEQJHhrtkJYvPmzdyoJkXZqgyoRA3s1crdUyoRYoylgoICblSTJDo7O+UOgWSSCM+tRIgxlnp6euQOgYhIsebahIMix3sZe7ynNB8cEZmgnPWlMBiqYJv6ha0KBoMBVdO+cKK+1IDSemdwJSg1GMLXM3EOw5Q/pQiuIpryySQm7RGfwGZt4zidFPWlBhimX3Ts2KpS5meLFhefrcrCZ2vISflsJSIiIqKEx0RkgsrdXgw9rGiZ8j7i7OwAAFinfdGKZgewMT836KNmOEwmmMLUM0FfgUa7HfaJPw0oy52h7ELKB0vgF6BYtEc8RNTGCuesL4WhtB4J+GNBCYjPVmXhszV++GwlIpLPd7/7XfzmN7+ROwwiIlkwEZmocrejWD/1JcyJ1maH//9aW0JHaXSdgQMmFBlDy5qKqlFkCvMyR/MTdXvEg1xtnIuyBnt8pxIaq+eXiJmngwcP4oEHHohP5aRsfLYqC5+tQRL72bpr1y7U19fHvmIiogT0/vvvw2azYe/evUxIElHKYSIyQRw/fhxbtmwJ+iQX+RsBdHQGjWbowhmHHhU1FdCjA51BwxxsLVbAVITJd+VWNDv8L2tG/5vUIkwvs6EqeGph0EgMZ30pDJVWAA5YzIZpU+5sVcFTEienwoWbtmerMkwb5WGrCp7ONnMc4Y4dLz/7bLjo2mOm6wsWMj0zklEsEbSxrco/hXG2uiMpM1Xo/Z7rGmdvD7PFATgsME+dmjolhmnTV8Ocv7TeGRrHAqc4tre3o7CwcEHHkrLk5+ejq6sr6BM+WyeO47M1vBg+W+d7/mR/tubk5KC3t3dBxxIRJRqv1wsATEgSUcrhZjUKUVtbO+9j/C9AzWh1lvlHL9haYMVG1BjzsREONLc6UVaWC8CJzg5AX5w3cayztRkOfTHy/BXBhEq02KphjNtACyfqS/dhQ6Md9tzxv5thrsqHvdqI3LIG2POrYKjsQEVj6GiMicX67cbJv5duQGNDmX/anqUZnU7AmAsANrRYASDovgQ+M9UY54xj2j3F+H01oWaOe7PQ9pj1+sYrt1bCbBovY0OVoXIi5hnveIRt7LCY56w7kjKzsVUZUNlRgUZ74JpsVSitd8JYhtnbo9qOxg2lMDcXh9wPZ30pzM1B11pfCrNlI2rsDYEEhD9Gw5RNHhwWM/ZVNMJuz/Wv8WauROmGRjTEa2glyaqkpAQlJSXzPo7PVj5bF+vZCgDmM3v4bCXZXH/99di7d6/cYRAp3pEjRyAIAgYHB2Ne93hC8uWXXwZEAVBrYn4OIiIlYSIykRmLYIIVZ7oA5AbWzDLtgRFGwARYJ75oRbNDj+InJ1410NrsgL74ycDLRx426AFLiw3V09+kYDZYJv+urwh9iZtqxvK5KGtoCCoYPMrFOHN9znrss+pR0TgZl/HhCujN4y+l21Gst0y+iDo70aE3hdwXODvRAT3876ZzxBG4p5MvtuMjbGow52vhQtpjzusLfGgKfukzorrGBGtlC2zVxhnimkcbR1L3vM8fHEo99lkBU03Qz42xGg2BAxf0cxHChmcsDphqGoJiGY9xH+ofNobcx4kX49wy7DFZUDnxg0IUwGcrn62L9WwF+GwlWTEJSRSZJ554Ai6XC48//nhM6gvue1qtFj6fD9u3b8cLLa0xqZ+ISMk4NTuh+V+A/OtTBV6ONuQBCJ0uNj56Y/vEKJRnYHHoUTzxQS62F+sB677pmxlM3SBhthflOcuHThOrtEZwiV1n4AiaUmgwGGAwW+CYKOB/uXKc6QLGr3VjER4u1k+s2zXt+meNw4iHK/RwNLf6p6aNv+hFtODYAtpjzuubTeiUxBDzaeP51j2vMghcox6BWxEu2Pn/XAQLJEOm1Z+3AXo4EPjRmJcdO3bg0KFD8z+QkgSfrXy2zvAVn60LfrYeOHAAZWVl8wyCiCh5abX+MUHbt2/HU089BZPJJHNERESLg4nIhDb+AtQCW2DNrImXo7wNEzuNdp1xABvzJ15abS2h64UZDIG1ogJT3OLDP52ro6Jx4kW6JuL/1upR0Ri8W2zojrHBL6JdZxwwFRmRm78x8Nn46JXtgeufO47c7cXQO5rR6gy82Ea88cHC2mOu61sIedp4IaL5uSCKFz5bAT5bw+GzlYiIYuGaa65hApKIUhYTkQpRXl6Ourq6eR+Xu73Yv1h/vX/NrPyJQRr+nUY7Ouv9a3hNvO351/TSB72cBL+kTIxWiTVbC6wIHkUSRt4G6MN+NsfIi8C0vRabDS3WwOgNYxFM6ECnc8pLayRx5G5Hsd4ByzP1/hftiofnniI3ceg822OBI0ucnR1AcP0homvj2euOvMyE2a4xkvaISJj6F2X3XFKypqYmmM3mBR3LZyv4bJ2Gz1YAfLYSEcXAI488wgQkEaUsJiITxObNm3Hs2LHpX4y/2Fmm7NwaGEHisFhgDX5hmOXlxFhkAgKjVWJu6guTrWqGaWJTXnoCL5nWfcG7eNpQFbIzqBFFJqCjpQUdE9MEjSgyOdD82D5Yg6cORhTH+Ogby5QpeBGYb3tEdH0ArJUhO9M+Y3FMqT/IfNs4krrnc/6pwl2jrcpfXwTtkeufH4ouzCC3DHtMgLVyym6xlVPbIHYKCgrQ1tYWh5ppsXV2diIvL2/6F3y2gs/WKeLxbAX4bA3S09OD1atXx6FmIiIiIlIKblaT8AIL0DswsWbWxDeTX2D8G5t/OAfCvv+F2UwgdmGW4cmKZpgrDfC/C5lQUaGHpTm0zB6TBZWBMqYaO6qNuShraARKzUEbNehR0dgQ8hJkLDKhstIKfUXjxLQ8Y5EJlVYr9BVPTk7ViyQOALlle2CyVIa+aEd2ofNqD/8GD3Nfn76iEXvOmGEwBD4w1cy4q+q829hUgxpUzl53JGVmFO4aTaixGwEY524P48Oo0JtRabAGjqsOun+BItV21MAQKOOnr2iEnTu20oLx2eoPnc/WcXF5tgJ8thIRERFRSlFJkvQyEJdfbCtCX18fNm3ahN7eXrlDmVV5eTm2bduG3bt3yx0KAQheX6shiV+4bFUGVGL2F99IyiSbHTt2YOfOnXjggQfkDoWi0NTUhP3796OxsVHuUGgCn63BZZ69fBeeeuqpRYxMPgcOHEBrayvq6+vlDiUsg8GA/fv3Y+vWrXKHQkQKFOtds2eyt/LLca1/MTxV8wO5QwDAexlryXA/AWXd03jLzMxEf38/MjIy5A5lGo6IJAonMAWvIur1tSgRHTx4UO4QiJITn60pa9euXdi1a5fcYRARERGRzLhGZII4fvw4tmzZIncYKcKJ+n1WYN5TBylVtLe3o7CwUO4wKAby8/PR1dUldxgpgs9Wml1OTo7iZ7AQERERUXQ4IlIhamtr5Q6BJuSirMGOMrnDWATGajvsMShDpEQlJSUoKSmROwyawGfr1DLP7t27KPEQERERESkFR0QSERERERERERFR3DERSUQ0xY4dO3Do0CG5wyAiShoHDhxAWVmZ3GEQERERkcyYiCQiIiIiIiIiIqK4YyJSIcrLy1FXVyd3GERESaOpqQlms1nuMIiIiIiIiCiAm9UkiM2bN+PYsWNyh0FEAAoKCtDW1iZ3GBQDnZ2dcodARAE9PT1yh0BEREREccYRkURERERERERERBR3TEQSERERERERERFR3HFqNhHRFAcPHpQ7BCKipLJr1y7s2rVL7jCIiIiISGYcEZkgjh8/ji1btsgdBhEBaG9vR2FhodxhUAzk5+ejq6tL7jCICEBOTg56e3vlDoOIiIiI4ogjIhWitrZW7hCIiJJKSUkJSkpK5A6DiIiIiIiIAjgikoiIiIiIiIiIiOKOIyKJiKbYsWMHdu7ciQceeEDuUIiIksKBAwfQ2tqK+vp6uUMJa1UGkNVzHN7Db0M69zaE7pMY7L+EtV9/ZVrZ7sfvQvYVK6FZuwmqq2+Ges1GqNdcD9XS1TJEnjxsVQZUWkM/01c0oqEsd9YyAGCqsaPaCABO1JeaYXFMfIMaezWMsKHKUIkwh04pR5GShnshXuyA2N0R6DOn2GeIiCgiTEQSERERUcoRuo5AOPEixK4j+K/705Bmr4VX9AKiDwAwOuIJe9zoyDCWqT3wDVwATrdDpcuAJPqgWrIKmrzbobnxY9Dk37GYl5I89BVobChDLgA461FqNqMUocnIkDIhAklIVKDRHvjeVgVDaT0aG8pQbbejOlDSVmVAJWpgr2bqcT6Eztf8fcb5Z4hDvVBptJC8Y+wzREQ0L0xEKkR5eTm2bduG3bt3yx0KEVFSaGpqwv79+9HY2Ch3KESkEMKZw/AdPQih8zWodJmQxoYBSMjQAPC5Jsr5RAnOPhfyw9Th7HNh1RIdtGoVIPoguYcBANLlc/C9eR6CowWSxwV1/oehu20nNNffuSjXlnRyy7DHZEFlcyucZeESj1M4W9HsAEw1QWWN1bAz1xgVoeOP8P7PIYidR6FKywr8vEsAAMk3WY59hoiIIsVEZILYvHkzjh07JncYRASgoKAAbW1tcodBMdDZ2Sl3CEQU0NPTE7e6fW80wtdWB9HjBsYGAQCSMDRjea1ahbMD7rDfnR1w4w61KvyBkhRIbgLiu3+C5/w7kNRapBU8BO3tn4nuImh2ufnYCMDaYkO1kdnHaPle/yU8r9ZDJQmQXIE+42afISKi6HGzGiIiIiJKSt7XfgHXd+6G9wULxMGeiSTkXLqHwk8xjfT7cZJrEBi5BM/LP8Tot+6Et21/RMcRAFsVKq2AaU8EoyEBAEY8XKEHrJUwGKpgi3N4ycrbVofRb30UHtuPgNH+iSTkXNhniIgoUkxEEhEREVFSEd9/A66nPgnfK3WQfG5I3tGIj/UGppguXRs+/bV0bS6cfS54RSnygDwuQBLgO1wP1/e3QzjJNFlYDgvMBgMMBgMMlR2oaBzfhGaGMgYDDFWT9zK3rAH2xgroYUWlwcCE5DwIJ1+G63v3wPvqzwBJBLxjER/LPkNERPPBqdlERFMcPHhQ7hCIiJLKrl27sGvXrkU5l/vZRyE4jwKB6Z7zpQtMMb12041hv1+ZfxPe+9N7M081nYUUSO54flcN1Z82IOPBfYBas6A4k9LERjSBjWceq8f2qRvTzLhZTUBuGRrsZYHNbiyoNIA7Ys9G9GHs53sg9nb6k38LwD5DRETzwRGRCeL48ePYsmWL3GEQEYD29nYUFhbKHQbFQH5+Prq6uuQOg4gA5OTkoLe3N4oaJIzWFEPoaFtwEhLwTyFNy8rGpvvCJ043Fe9C2pKlEU81DUcaG4Z47m24aj4BaeD8gutJXrko22MCHBY8s9CBcLllaAiMjmzhYLqwpP5zcNXcC/Hc24CbfUYJvB6v3CFERUnxKymWhVBa/B7PwvuvUiTDNSQLJiIVora2ljtmExHFUElJCXfMJkoV7mG4vl0IjF4GRN/c5WcwPsVUpdFg7U0fCVtm7U3boFZr5z/VdBr/Jh2ufTshnG6Pop4kZXwYFXr/5jMUe0JHG1y1fwNpbOYNaCLBPhNbkiTKHUJURCma9o0t3svY8vkW/t9WpRCExL+GZMFEJBERERElLLH7JEZ/8DFIMXjB0KlVOD8iYmNR6azlrv/Y3+L8sAjdAqaaTiN44H72MfgOH4i+rqSSi+3FesDaEtk6j7YqGErr4Qz+6BkLHDChiPOyQ3jb6+H+78cAX/Sjg9hnYuszYuUAACAASURBVKu3t1dxCahIiZKEvt4eucOYwHsZW+fPnU3oZKTX58O5s2flDoMCmIgkIppix44dOHTokNxhEBEljQMHDqCsrCzm9QrOoxjb/zAQo5fN7iEPNFodrv/Y7EmVjUWlUOt0UU01DSF44PnjT+B5sSY29SWJ3O3F0MOKffVB6cWpm9UYDCitdwLGajQWN4d8V9lRgUauDxnC84fvwfdKLSDEZton+0xsLVmShQvnz8Pt9ihuau5MvB4vPG43Lpw/jyVLsuQOZwLvZWytWbMGXZ2dGB4ehjeBpjh7PR4MDw/D2dmJtWvWyB0OBXCzGiIiIiJKOMJ7drj/6yuAGJsXzImdf6/cgKU5V89adknOeixbmwdn37tYuUQXo1FePgh/fhbukUtIL6mOvr4EY6y2wz71w/GNZ4LLzHJrcssaEFR8fudKAe5ffw1ixx8hRbF8QTD2mdjLz9+Aw4cPY2gouinzcrn5ZuXsacB7GVv33Xsvfvbz/0jYUYUarRb33nuv3GFQAEdEKkR5eTnq6upmLZORkbFI0RCltvT0dKhUMfgHMsmqqakJZrN51jKZmZlQq/mfQqJ402g00Ol0MatP7D4N97NfBbwL2+U3LAm4I285ti/vw+g3t8FV92DYYq66BzH6zW3YvqIXd+QtB2I480/yeSCcbIX3tV/ErlIi+Kdjix1/hBSD6dgT2Gdi7sv/XIGVV6yUO4wFWXnFSvxzZYXcYUzgvYytnTs/g3uMRmi0iTeWTavVYrvxHuzc+Rm5Q6EAvn0liM2bN+Po0aNyh0GUEk6fPo2rr575N/sFBQVoa2tbxIgoXt555x1ce+21codBlPS6urpw5ZVXzlqmp6cHq1evjqi+sfpdgGswFqFN0GlCfwElXTwVttzUz6ceFzWfB75X6iA4XoptvZSyfMf/AN/hA7FNQoJ9Jh6ys7Pxk5/sw80334x1czwzlWLdlVfi5i034yc/2Yfs7Gy5w5nAexl7jzzyL9j14Odw1brEuJ8AcNW6K/F3D34OjzzyZblDoSCJl84mIoqzo0eP4vbbb5c7DCKipHH06FE89NBDManL/Z9fApJ850vJMwr3f/9vZP2vdkClkTscSmSCB56mKsR0GKICJVOfWbZsKb733W/LHUZS4L2MvZ07P8ORhRQ1jogkIgryxhtv4Oabb4ZGk9j/iCUiUpJY/YLHd7wZwnupsrqfhLHaz8odBCW4sbrPIdmTkJPYZ4iIEgETkUREQbZu3Qq7PVVecomIFsfZs2exfv36qOvx/OYbQIw22kgEYv9ZeNuekTsMSlDeV+ogXk7MjSUWin2GiEj5mIhMMOvWrcOFCxfkDoMopbW3t6OwsFDuMChG/uEf/gE/+clP5A6DKOXl5OSgt7d3xu/H/vNLgJQqI7sCBC+8h38OqT+1kkkUPenS+/C+9h+AIMgdyuJinyEiUjwmIhWitrYWu3fvnrPcwYMHsWPHjkWIiIgosZWUlKCxsXHOcj/+8Y/x2GOPob+/fxGiIqKFEM8fh/TBO3KHIQ+vC+7Gr8kdBSUYd9PXAU8Md5VPJOwzRESKxkRkgiksLERJSQn27NkjdyhEREnjD3/4Ax544AG5wyBKKm+//XbM6vK+UgvJPRKz+hKN1OuEeLFD7jAoQYjdDoi9TrnDkBX7DBGRcjERmYC+8pWv4JprrsFdd92Fnp4eucMhSmgulwv333+/3GGQzG6//XZ8//vfR1paGn73u9/JHQ5RwvvGN76Bz342NptGSGNDELuOxKSuRCV5XfC+aJE7DEoQnhctgDdFR0MGsM8QESkXE5EJ6mtf+xq+9a1vYfPmzXKHQpRwTp06hYaGBnzjG9/AqlWr8E//9E9yh0QKsHXrVoyMjOBHP/oRvvY1Tukimo+LFy/i+eefx+OPP4777rsPGo0Gb731Vkzq9r5aDynV1rkLQ3j/TUjDM6+hqRjOepQaDDAYqmAL+3UpDAZD6J+q0JK2qumfTakF9aXBdYQ/l61qynlmKBeruJVAGuyGeO643GEoQsL0GSKiFKOVOwDyKy8vx7Zt2yJaJ3JcYWEhLl68OO3z/Pz8sOU7OztZToZyxcXFOHXqlGLjS7VymzZtAgDcdtttuOOOOzA6Ohr2OEp8TU1N2L9/f0TrRI7T6XT47W9/i1/96lfTvlP6z3YqlXv++efxj//4j4qNLxXL3Xzzzbjttttw22234cknn8Stt94a9riFEP78LIAU26QmHMELr20f0j75dbkjmZWztRkOkwkmqxUttmoYjWEK6SvQ2FCGXACADVWGShg6gj+b9QyoLzXDggo02gPlbVUwlNZPq9OqDyoDf2Ky0tCBisYGlE05UfzjXhxe2z7A55E7DGVIkD5DRJRqmIhMQq2trSynoHKbNm3Cj3/840U/L8uFd+TIEWRnZ0dUdiYFBQVoa2uLqg5Stp07d077TOk/26lU7vnnn1d0fKlYrru7O6Jyswm33Ixw6o+QtOmpu+lGCAlC1xFAEgGVUic1OdHa7IBpTwOKYEVliw3VYTN6wYyorjHBWtmMVmfZtATh9FO0otkBmGqCkn/GatiDTmOrCiQhpyQIjdWNqOgww/KMDWXVwXEtQtyLQfRBeP8NMHE/LhH6DBFR6mEiMgnl5eWxnILKRVpW6deRLOWiTUJS6lL6zzbLsZyc5eJFOGkDRi/LGoOiuIYhvPsqNNcXyh1JeM5WNDtM2GMEjDABlS2wVRsxV0oPeRugR4Qbi+TmYyMA64zJQhtarIC+YnuYUYq52F6sh8UyJa7FiHsRCKdfBVwDcoehLErvM0REKYi/GiIiIiIiRRK7/iR3CIoieYYhnGiRO4wZOVub4dBvQB4AGItgghUtkSyj2HUGjojPYsTDFXrAWhl+PUdnJzoAbMwPP0QxN38jgA50Bm0qvThxx59woiWld5cPR+l9hogoFTERSURERESKIw33QhwbljsMxRFOK3VpEP/0Zn3x+EjEPGzQ+0cuzn5YPUorrYBpT8TTm3PLGmBvrIAeVlTOtQmNguKON+HddrlDUCTl9hkiotTERCQR0Ty1t7ejsJBTfIiIYiknJwe9vZM73ApdR6FS85+q04gCxIvvyh3FdLZnYHHoUbx9PCvnnwYN6z7UO6eUdVhgHt952mwBKhphr55zInSo3DI02O1BCckFJiMXO+44ES+e9q+FSNMptc8QEaUorhGpELW1tXKHQESUVEpKSlBSUiJ3GES0QNKFk5Dco1HVIUgqaNQqRSRoJJUaoihBo4puIxFJFCCefxvqNdfFKLLYsLVYAQAWswGWKd81tzpRFjxsMMxGMguWW4aGRqDUbAnsdu1fQ7Kj0wkYp5/B2dkBYCPGZ27LFneMieePQRKFqOthnyEionjjr5mJiIiISHGE3s6o69CoJLx32Q2fzDkVnwi8f9kddUIFAOAdg9itnA1S/MY3iGmE3W4P+VNjAhzNrZg6uDB+jCia8Zz+adgwFQU2olFS3NERL5wCvGNR18M+Q0RE8cZEJBEREREpjjTwQUzqOdrVj5dO9aF/TIJvkf/p64Ma/WMSXjrVh6Nd/TGrV7yosKSKrQVWBE9vnmT0ZwXRGkVGz1lfOrkOpK0KhtL6kASh7RkLHDChKDBL2vhwBfQOC8xVwZO1nagvNcPiMKFmfDp1nONeTGLP6ZjVxT5DRETxxKnZRERERKQ8I30xq2rYLaD1ZA+uzE7HbddkQ6fTQi1FP411JiI08Pp8OPr+JXQPemJff//ZmNcZDZt/WCHC5PMmdqGeNs15oYzVaOwshdkQNJFaX4FGe9CU6dwyNNjzUWWohMEadKypBvaGyTUdFzXuOIv1zwT7DBERxQsTkQpRXl6Obdu2Yffu3XKHQkSUFJqamrB//340NjbKHQoRLcDgiAvLNNHVMTAmQqXWQhJ9AIALg2787ngPNl25FJvXZgEqdUzXwpNUaqgkEScuDONk91DIdyq1BgNjIpZnRD/CbGhgAFlR1xI7xmo77DN/i2r75Le5ZQ2wl82nPhuesThgqmnAeAoxkjrGz1u9iHHLaejyAJbF4M2OfYaIiOKNiUgionkqKChAW1ub3GEQESWVnp6ekL+/cOx8TOq95vaPofvE6/CMDE58dvLCME5eGMbteVfgqmU6aGMw+9QnAueH3GGnk6YtycbaG+9Ay9EXoz9RwOdiVpOyOev3wWqqgV0Zm1Mr1gvHY9NfAPYZIiKKLyYiiYiIiChpGR+pxQdvvoI//ts/QvR5IXjdE98d7erH0nQNPnTNcqzI0kG7gI0xfFBjaEzAka5LGHaHTl3V6NKh1upQWPHvuOrWu/AfO/Ojvp5Uk1vWMMuoRYqHSPrMh/NWYlmGBlrMf3Qk+wwRUWrjZjVERERElNTW3XoXdta/jevueQBpmctCvht2C/jj6Ut4vesy3D4Joiqy+eAiNHD7JLzWeQmtJ3umJVTSMpdhwz1/jZ31b+OqW++K2bUQLYa5+kzryR683tnPPkNERPPGEZFEREREMrj++uuxd+9eucNQrC265cjyDkRVx6hu+bR7nJn1IWxyvw6N5IEmaPON8bXw7rruCqzM0kGjRtj2efJK/5TS/tExvPLu9CmlokoDnyoNb2d9CG1vDeEXQXXE4ppmui5KbfH82WKfAY4cOQJBEDA4ODh3YUoJ/G840cIxEUlENE/t7e149NFHuU4kEUWFLzChcnJycOLECaxevXpRzvf2f/87jv36aQgeNwAJm9ctxaY1WRAlCWqVv8xTTz017bjRb26DVg2sWqLFp29dg5MXR3H8g2EAgCYtA7d+6ou4+dNfWpRrIFpMqdxnnnjiCbhcLjz++ONyh0IKwf+GEy0cE5EKUVtbK3cIRERJpaSkBCUlJXKHQUQKdfOnv4SNRX+Drn/7DK5NG4Eo+deHVKtUER0/Xm5jTiY2rcnCe54lyPvn/0LG8sVJpBItNvYZIiKKBa4RSUREREQpx9P6NMSnP4ncLC+AyJMpU40fl5vlhfj0J+FpfTpmMRIpCfsMERHFAkdEEhEREZHiXHy8EEvV3qjqUK25AZm7fx7ymaf1afgO/wwqbRoAQPJ5ojrHuPF6hCO/xOjhn0H70b9D2vYvhpRx1T0I6eKpqM81LKZhzddfiboeSh6x6C8A+wwREcUfE5FEREREpDgaYQxQR7Yb70yCExjxSqZMO+csyZVYJFQAAF5XbOqhpKHyuYC06F/t2GeIiCjeODVbIcrLy1FXVyd3GERESaOpqQlms1nuMIhogQbHhLkLRcDT+jRGv7kNwpFfAohfMmWqkOTKN7fFdPrppdHoR75Rcrk0Epv+ArDPEBFRfDERSUQ0TwUFBdwxm4goxnp6ekJ2zL486oUUbaW6rEVPpkwVnFyBLivq+gRRQu+wPNdCytU74oEgRt1j2GeIiCjuODWbiIiIiBRnYMwHnyBBp1nYhhgAAO9o9MnMGPEnV6JPhogScNnliz4gSiqXR70QJSC6xQzAPkNERHHHEZFEREREpDgDYyK8oih3GIrjFSQmVWia/jEfvIJSUojKwj5DRKQsTEQSERERkeJIy9dBq+I/VacaHPNh6dpr5Q6DFGbpmmsx7I7dOpHJhH2GiEhZ+K87IqJ5am9vR2FhodxhEBEllZycHPT29k78XZuegXMDYzJGpDxeUULXJRcylq2UOxRSmPRlV6CrbxTeWKwTmUTYZ4iIlIeJSIWora3F7t275Q6DiChplJSUoLGxUe4wiGiBrrrViLODbk43DaJVq9A9Clz7kfvkDoUUJnfb/Tg/KkGnjmJN1STEPkNEpDxMRBIRERGR4ly55U5c9mVAw8TKhAsDbmi0abjKcI/coZDCXPWhe6DVpuPCoFvuUBSFfYaISHmYiCQiIiIixVmjvwOCZxTOSy5wting9ok42TMKSaXCiqtvkDscUpgVV98ASaXCqYsuuH3c5AlgnyEiUiomIomIiIhIcbQZWViz6Q6cvDgCUWIm0uURcGnEhw13f0ruUEihNtz9KfSOeDHm5aY1APsMEZFSMRGpEOXl5airq5M7DCKipNHU1ASz2Sx3GEQUhas//HF4VBnoGfbKHYqsvIKEN88PQ5e1FNfd84Dc4ZBCXbd9B9Iyl+Kt88Mpv7Yq+wwRkXIxEUlENE8FBQVoa2uTOwwioqTS09OD1atXh3x2/V98BqLPi3cupHZiZcQjoG/Ei8wVOViZv0XucEihVuZtRsaKHPQMezHq8ckdjqzYZ4iIlIuJSCIiIiJSJG16FtZu+QgGXD70DHtScq1IryDi9fcGoMtYgi3mf5Q7HFK4zZ/6AnTpWXjdOZiyyXv2GSIiZWMikigOBgcH5/U5ERHNjs/V1HXT/buRkb0af+oagCrFNtAWRAmne1wYHhOQtnQ5Nhj/Wu6QSOGuMz4A3bIVGHILON3rgi/FsvfsM0REyqeVOwCiZPTjH/8Y3d3d0Ov1AIC6ujo4HA6sXbsWjzzyiMzRERElHj5XU9e6rXdDl7UUY4O9OOocwNZrsqFTp0ZGctQj4ET3CHQZWdDf//dyh0MJ4sb7HsKbB/8NJy4M45oV6ViarpE7pEXDPkNEpHwcEUkUB8XFxdBoNHj77beh1Won/re4uFju0CgG2tvbUVhYKHcYRCmFz9Xkl5OTg97e3rDffaT8CeiysvH+ZTcuDLohiYscnAxcXhGtHf0AAG3mUtz4yYdljogSxY1/uRvajCwAwEunLsHlTYEOA/YZIqJEwUSkQtTW1mL37t1yh0Excsstt2DNmjWQJAk+nw+SJCEnJwe33HKL3KERpYySkhI0NjbKHQbFCJ+rqW3tljuxfP0GAMAR5yD6x5J7F21JkvCiow8+UYIucxnu/MJ35Q6JEsxH93wHuqxs+EQJL568BFFK7ina7DNERImDiUiiOHnwwQeRnp4OAEhPT8eDDz4oc0RERImNz9XU9pHPfxtLVl8FAHi5ox9DbiGm9fumbOwx5Au/gtHUz2O9IYgkAc+/cwleUQLUaqzbehfW3Xp3TM9ByW+9YTvW3VIIlVoNryDi9ycuIdapSPYZIiJaCK4RSRQna9aswdatW3H06FFs3boVa9askTskIqKExudqaltx7Q3YcM8OOH5bB+/YCF442Yd79auRlRa736sffX8Q710am/j758KUeeH4+Yn/f+3KDGy9alnMzi9Bwu8dlzDm8ydZNRot7q58Omb1U2q5+5+fxn9+9gZIoogxr4DmE30o1q+K6aZP7DNERDRfTERS8vO64Dn8c4gnX4LkcUMaOD/3MTHyKQDn1Zvx6cuH4PrJb5Bm3APNpu2Ldn4iorhQyHN1rNYK9aa/QNpHHwR0mYsWA8nn1h2VOHv0BfQ7TwCShN+f6EXxjauwJC36zTi0GhWuW5UZklSZy3WrMqHVxCarIwF47lgf3IJ/PT9dVjY+/vWfx6RuSl2fqD6Ilx5/EJ7RIYx6BDx/ohf33bgKqhhkI9lniIhoITg1WyHKy8tRV1cndxhJaWzfDvjafgqxp3NRX5bHfXHVcUgD5yH1dsFrrYZwsnXRYyBKRU1NTTCbzXKHkZSU8lwVezrha/spXD/+zKLHQPK5/5u/QeaKnIm/N5/oQ8+wB7FYAi87Q4t0bWT/PE7XqpGdEZvf6bu8In77ds9EQkWbvgR3PPyvWHkd10Cl6Ky+7lbc/vf/Cl36EgDAmFfEb9/pw6g3NksbsM8QEdF8MRFJSW3sF1+EONQDxHxVnIURPaPw2PbJHQZFqaCgAG1tbXKHQSQLpT1XAQnS4EWM/eKLcgdCUerp6cHq1avnLKfSaFDy1MtQqSdHQb7y7mWcGxiDT4zu51IFIHdVRkRlc1dmINpxXaIEDLh8eNHR51/fDoA2PRO3/PWXkF/IX6RQbGy461PY8tdfhCbdP3Lc6xPx0sl+DLp8UW9iwz5DRETzxUQkJTVp4AO5Q5jO65E7AiKiBVPkcxXKjYviQ5uWic/89A0EZzVedw7iT50D8ArSgtPkarUKG1b6kzVX5N0Utsz45xtWZUKtji6t8tb5QbScujSRUFHr0rGl5Au4qWRPVPUSTbW55Au4ueQLUOvSAAAeQcSLpy7hrfPDUf1eiX2GiIjmi2tEUlKTLp+TO4Rp5JjGSEQUK0p8rgLKjYviR5e5FKU/d+BXuzZDFPzTTC8Oe2A91oMPXZ2Na1amQ7OAdfCWLMvG3/6/X0K95vqw33/y27+DePE03D//PCT3yLzr94kS+oY9aO8cCPlco02D4bOPQn/fQ/OukygSW/76n6DNXIo//+JJiD7/L8bP9LpwpteFwg0rsHKJDtoFJArZZ4iIaD44IpKIiIiIEpJGl47S/zgJbXroZkV/PusfNdU74oVXmN9wL8k7BsH+61nLCPZGSN7IN+gAAK8g4fKoD4c7L09LqGjTMnHXl3/IhArFnf7+h3D3l5+GNi20z7SduYzDXQO4POJjnyEiorhiIpKIaJ7a29tRWFgodxhEREklJycHvb298z5Opdbgb372DrKv2gCVZnKyz/CYgD+e7sernZfxwaAbkiRBFCOoUBTge/v5WYv43n4OEOfe7EOUAEEEeoY9eN05gJc6LqFn2BtSZknOehQ/8WtcfVtRBMERRe/q2z6GTzz+LJbkrA/5vGfIg5dOX8LrzgH0DHsgSBIiWnaVfYaIiOaBU7MVora2Vu4QiChBSWMu+Hq64bvYDaHnArwfnIM4MgzhUh+kMRckjxuixw14vJB8XkiCD/D5IAkC4PNBvWo1xL5eQKuFSqMJ/K8WKq0OSNNBnZYOVVo6VBmZ0KxaCXXWMujWrYcm50po16yFNmctVBmZcwe6yEpKSlBSUiJ3GES0SP7q31rw6r9/Ge+99nv4PK6Jz/tGvDjcOQCtRoXrV2fhutWZUKkAnVqNGWduq1QQOl+HJv+OaV8Jna9j5gMBSQI8ggS1Cni3bxTv9ozC7ZuezdGkZeCKa/W456u1yFg+9yY9RLG0MvdG3PdEI17+Tjn633NA8EyOVuwe8qB7yIN0rRrXrc7EdaszIUpAmoZ9hoiIosdEJBFRgpDGXHAdPYyxd96C7+x78F28AGHgMiRBgEqrBVSA5PUisiE/k4Sebv//8QiRr1evVkOl0wESIPl8UGk00CxfAe2aK6G9+lpk3HQLMm//qCITlESUvO780g9w4199HrbvlGO0vxuib3IklU+Q4OgegaN7BKuWaLE2OwPrstOQnaGFV5Cg06gm9r6R3MMQ/udQ+KTK/xyC5B6e+LskAV5RhE6txqDbhwuDbnQPedA7ZRTXOJVaA21GJj6657u4dtu9Mb1+ovnIWL4a9z7xa7z32u9xeN8j8I25IAWNWnT7RLxzYQTvXBjB6iVpWJutw7rsdCzL0MInSNCqVRP5RfYZIiKKFBORREQK5rtwDsMtv4frT6/Ae/EDqLQ6SO7payxJnrmnO8WUKEJyuyfPLwrw9V6Er/ci8M5bGLG9CMnnhW7NOmR+5C4sLboX2ivXz1IhEVFsXHGtHuZ/fwWn/vAfOLL/G1Cp1BAFX0iZvhEf+kaG8c4H/oFaOUvTsCJTi+wM/59MnRqD77ThyjD1X3qnHekqES63iCG3gAG3FwOjAnqG3bNOY1Wp1FCpNbjJVI6tpY/E9qKJonDttntx7bZ78UbDd/GOtRaSIEBC6C81e0c86B3x4PgHI1CrgJyl6ViRpUF2ug7L0jXITGOfISKiyDARSUSkQIO/fRZDjb+EODICyeuZ+FwSFjnhuEDjyVLvB2fh/XUDhn77LNRLlmDZp0qR/clPyxwdEaWCGz7xOdzwic/hjYbv4cTzP4VarYHXNTytnCQBF4c8uDjkmfbd58LU++Lx8/OKQ5u5FKJ7DNd/vBSG0q9Cl7l0XscTLZatpY9gs/kLsDd8B6dfaIA6PR0+1/RdrkUJ6B5yo3toeh3sM0RENBcmIhWivLwc27Ztw+7du+UOJaUJkgSvT4QoqZCVFp+9nC67fMiKS82ULC7+38fgPe2AMDL9hTlRSV4PhMseDP7XzzD2xlGs+do3437OpqYm7N+/H42NjXE/F83O7RMhiIjbcxXgs5VmtrX0K9ha+hWcPfICTjz/U/Se+rN/PTuPe+6DF0ijSwdUwBW5N+HG+/8euXf+ZdzORRRLusyluOPvq3HH31fD2W7Fief3o9/5DiBKEHzTk/Wxwj5DRJQ6mIgkCvCJEi6P+nCqZxQXBuP3cgKE/20xJY6CggK0tbXFpe5LP/wext76H/8QnSQkjgxj7I0juPSjH2DlF74sdzi0CLyihLfPD+G9/vg+VwE+WxNdT09PXOu/+sMfx9Uf/jg8I4PoavsNOtubcKnzGNQaLVyjI9CqFv7c1aRlQK3RQvR5cEXeFuQVmJB3pwkZy1fF8AqIFldugQm5BSaMDfSh61Urutqt6O86BrU2DaLgC9ngZr7YZ4iIUhcTkUQBHp+Etq5BpC1dgSU5qzHScy4u57ki76a41EvJofelZmREvmVMYpIk9LY8z0RkChAE4K0PRnBRXBrX5yrAZytFLm1JNm4o/hxuKPanrgfOdmDv58zYeb8RWtcluC51Y2zwEpauvSbs8Vfkb8Zw93vIyF6FrCvWYMU1m7AiV4+cTbdjxTU3LOalEC2KjOWroL+vDPr7ygAAl98/hR7HEfS/58DA+6cw2n8RY4N9WLr22rDHs88QEVEwJiKJAjQqIGPFWnx0z7ex7pZCucOhFOXovYQtK5dDq47fFFa5CZIER99l8NUj+YmQMKZbjoI93+FzlWbmrEep2QIHTKixV8O4yKdffvVGvDWQhn/+xOexdevWOct/8snfLug8zvpSmC0bZ7hGG6oMleioaERDWW6grCO0iKkG9uowR1YZUGmduxwlEZn7zIprbphXApF9hoiIgjERSRQgSCoUfOn7WHvTRyY/e/dVeF/+IST3KKTL8RvJMxPVivVQLV+HjM8+vejnJnmcHXFBpQL0K7KR2rDFJQAAIABJREFUptZApZI7otiRJMAtinD0D+LsyKjc4dAi8IrALf/wA+U9V9Mzobvni9Bcd+ein5+mc7Y2w2EywWS1osVWDWOS5gNytxdDb7GEv0ZbC6zQo2J77uRn+go0NpTB/4k/6WLomP6ZVV+BRvv4Z/4kS2m9PzlDyYl9BuwzREQJLHmH3BDNU1aaKvRl+cSL8DR+HWJ3hywvywAgXT4H0XkUY//vLwGvS5YYaLr29nYUFsZndNey9evx/rALLed6cOLyAIa8XkgSICXodG0JEiQJGPJ6ceLyAF46dxFnR0axbP16uUOjRZClU+hztfs0PI3/B8KJF2WJgYI50drsgKmoGgdcgPV31rkPSVS521GsB6wttmlf2VqsgL4Y22fMgxhRXWMCHM1odfo/cdbvgxUm1DRMJlQAwFhtZ0IlqU32mSJT+J+npME+Q0SUlJiIVIja2lrumK0gwruvwvPctyC5R+QOBQAgDvXCc/jncodBi+DD5V+CNjMToiTizOAIbOd70Hz2A7zZO4C+MTckSPBJEgSFbmYjSP74JEjoG3Pjzd4BNJ/9ALbzPTgzOAJREqHLzMQdn98b91hKSkq4Y7aCKO25KrmH4XnumxDefVXuUFKbsxXNDhOKjMCoywW88Aqmphz8o5WccNaXwmAw+P+U1sMJhH5WNe1IVI1/F3SM/7z1KA36DgAe+sZzk99PrTtM/eNx2apmLhMqF9v9WZUp12hDixUw7QlNjkyTtwH6oGOesTigr3h40aflksyC+ozRn4mUpc9M+35q3ewzREQ0AyYiicLwvvw0JPew3GEEkSCebJU7CFoE4oEfYftHPoKVq1dDo9MB8O/ofnZkFIe7+/A75wc4fKEXb/VdxumBYfS63Bj1CRADyUmfJMY9SRl8HlGSMOoT0Oty4/TAMN7qu4zDF3r9cXb34ezIKHyiPx6NToesVatxd9HHINRzuYFUo7znKiC5R+B9+Ydyh5HSnK3NcOg3IA8ARl34OF5AuAFeDosZ5jN7YLfbYW+sgN5hgdlgCP3MWonJnIYT9aX7sKHR7v/e3ogKWGAeL5Bbhgb7+Hc1AIBrt31oIqkxuTbdZBmTtXJa0sRhMWPfhsaQGErrnZhJ7vZi6GENvUZbC6zwJ5Zm1XUGEyvgOTvRAWBjPkdxpZqQPmMsgmnqz1NAvPuMCYC+eDv7DBERzRsTkURhSG7lTYOWPGNyh0CLQBxzQfuuAwWrlqPoQ1uRf911UGvUUGk0E2UGPF6cG3HBcXkQf7rYh5fOdeO59z7AS+cu4vXufhzrG4CjfwhdQyM4NzKKi2Nu9Lu9GPT4MOLzwSUI8IjBiUTfRCLTI4pwCQJGfD4Menzod3txccyNcyOj6BoaxYn+IRzrG8Dr3f146dzFwHm78aeLfXBcHsS5ERcGPN6JWFUaDdQaNVZetxF3/5UZRTkroHvzfyCOKa+PUXwp8bkKAJKb65XKxz/FdDKZ4UXu9TNMNQ3eTCK3DHtM4T+bPDYXZQ0NmJxtmYv8jQA6OjE15eGs3wcA+ML9VwY+8Y+cMtUEb5ARmOZp3YeQnImpZnJKZyAGx5mumS85zFRTW4sVMBXNPkrLWY/SSitg2gPOIE1lU/tMHjbMMHU53n3Gqq/AkxOF2WeIiChy3KyGKAy51i6bjTRwXu4QaBF0u8ZwfdoySGMupPVcwM1Ls3Hrh7bCdeOt6HjrTXS9/Sa0GZkQfT743KHJabcgwC0IuOSWKXgA2vQMqLVa+MZcWLf1Ntx4ZwFy0tPhefMo3O+8Ack1Co1KQrfLjS3yhUkyUOJzFVBuXCnB9gwsDj0qnhzPEnhRcM/1qKvbh/qHjTFIHgQ2pgj+SD+liLMejwV22r1y4rNOdECP4rwpZfM2QA8rznQBs88HnY1/qqnF0gJbtRHG8SmmNWFSKg4LzAbLZOgVjbAzo5LapvWZ8Z+nxe8zppqGyW7APkNERPPARKRClJeXY9u2bVwnkijFuZYuh0/0QadWA4IAcaAfIoD0wcvYotZg88Y8qK7Jh2flalz2+XDu/XO4/L4To329AACNVgdREOBzu4G4bHCjgjY9HWqNBoLPP/Ixa9VqrLgmFzk3bcaq9ddi2dgwtOffh+uNI1C3Po9hjxuSezI7KkgSRpdmxyG2UE1NTdi/fz/XiSRSKFuLP91hMRtgAXD11VfjobrTAIDmVifKokog+BMqHUGJCFuVAZUdU0o9Y4HDVANYK6M41/zklu2ByVLp3wkY/imm4XIqoTsAT60kH/7Bak7AyERLqpjaZ4Itdp9pWMSFFtlniIiSCxORRETzVFBQgLa2trjUPbpkGXRjA9M+F8cmRz9KHSeQviwbayQgZ2QIabdshu7qXEgrVmJMAkbGxuDy+jA0OICxgQG4BwfhHh6C1zUCn8sNn2cMoscDweOG4PUiK2cNRnsuQqPTQZOWDnVaGrRpGdBmpkOXuQTpS5chPTsb6dnZWLr2SmQuX4HsJVlYotFCPTQAz/ud8L7vhHDcDvHVFvjS0uEZHgIkCUKYa9Sq1XBlxj8RSURK5h/VpK9onLZbra3KgMrmVjjL5tiIYtbqW2CFHhUzb6kL2KpQadWjotEIy7TNuh3TR3F1nYEDJuyJOgFjRJEJqGyxoQhWwFSzgM0z/HVYo71PlECU1WemY58hIqLIMBFJRKQgeXf/BQZ/dxDZulkez5IEYXAyWel2HIfbcRwqjRaqNB2y1Gpk+ny4wuOBZlk21FesQvqHPwTJNQZVegZUGelQpWVAlZ4OVVo6VDodVLo0qJcsgdB/CeLoKKTRYQhDg5CGhyG4RiCNDkLs74Z48k1IQwMQ0zMxBED0uAGfLzQ89+xzwwe9PuR9Yns0t4mIEt0sSQ//TsDNaHWWLXyq6dQpobYqVFoRNM3UhqpKK/QVjSjLRejostwy7DFZUFlZhSL7+Jp3/vILS4BMZywyAZWVqMQMU0wjqaO6BiZDJcylCBkFZqsyYN+G6ckqSnAK6zMh2GeIiGgemIgkIlKQa7Z9FCebfollOi1U8zxWEnyQXKFJQWFwAMLgALzOM2GPUanVgEYDqNWAWgP4vJB8PmCOnbel0ZF5Rhc4TpLQJ4i4YdtHF3Q8ESUHm39oF8IOvgrsBBzVVNPcMjxZ0QxzpSGw3p0JFRV6WJonAvB/bjFjfEm5hx6qRY39aRgBGKvtqIEBlYbJoZIxXW8ucI0R7fw7cyWotjdiQ6k5ZF08mGq4Ll4SUmKfAUyoCSQe2WeIiChSqv/P3p2Ht3Wfd6L/YicpidpIydoMkjYl2ElsIl5km4phWWmZpEWJaXvbMI47mEjq1dNpDTQeX6WTmp1B7YnvuH4KeG6nyqV0xce1zWZpAhVtWiZRZSSibXkJYrsOYdOiCO3iKoIL1nPO/QMgCYDgDvAA5PfzPHwsHhz8zgv6nEPixe/3vpIkvQbk5IOqgjQwMIA9e/agv79f7lBmxRqR+TH+P/YuaP+y/3puUc9bLhPx0cr2XdM9uGfz+kSdyBUmLop4e2AYv+99N+/HYo3I/Fhp91WA91YCjEYjTp48ibq6OrlDIaIC9OyzzyIUCuGZZ56ROxQqEE888QRefPFFucMgmlFpaSmGhoZQUlIidyjTrLx3uUREedbR0YF9+/blbXx1ze4VmYQEEvUhNbftljsMIipAlZWVBf/BMREREREtDZdmF4iWlha5Q6AlECQJsbgIUVKgTJufBNLNUBxleRmZCk2V6VEEf/jK7HUii1QwFkfVw48uy7EaGxvR2Ni4LMei/EjcWyWIEnhvJSIiIiJaAVbeu1yiZRYXJdwcj6NnXIOBuAZjfVfycpyNVXdie15GpkKzc++D+NX3XlpUnchCJkkSBuIi7mB9SJqHSFxE35iAqxENhnhvJSIiIiJaEZiIJFqiaFzC69diuN/653jY9Ntyh0MrwJY7Pg3veBi7dJoVtURbkCT0jodguuPTcodCBU6SgJ5RBUK3mrDn4d/BtrvyVwqBiIiIiIiWDxORREukUirwwNf+ElWfs8gdCq0gmt13QDNwVe4wckqtVEKz+w65w6AiEJckrP3Mr8H4+LNyh0JERERERDnERGSBYNfs4hUXgfW70ptvCOdfR+y1/w0pMg7pZn6WE85EsX47ABHqPfuh+bx9WY9NuVP9yAGM/P1JrFtBdSKDsTiqH/n8sh2PXbOLV0wAyu8xp22T874KAIoNO6BYvw0lj/3Nsh+b5s/bbITdk77NYHOjzaqXJyCiAsdrhoiIltvKWfNHJJM1WgU2Vt05+b3Q+VNE3X8O8UaXLG+WpeGrkIavI/aLHyDy8pFlP/5qUF9fj7Nnzy5pjGAwiOeffx7vv/9+1sd33vcg+mICpCUdpXBIkoT+uICd9z2Q9fH33nsPzz//PILB4DJHRoWoTKPA1junzhW576sAIN28AjHwDsL/6zeBWEiWGFa6vr4+VFRULH0ggw1unw8+nw8+tw1wWdDUGlj6uJm8zTAam5CPoYmWFa8ZIiJaRkxEEuWQcP51RH/0LUiRMblDAeIRCJf/HbHTLrkjoSzKy8tx48YNvPLKK3jhhRfQ29ub9vjm23djIBpDXBRlijC3BElCfySKzbenzx6+ceMGnn/+ebz66qvo6+tDeXm5TBFSoSqo+yoAcaQf0Tf+Tu4waL70VhwxA/72M2Dug2geeM0QEVGeMRFJK1pIVC3r8WKv/Q2kyOiyHnNWYgzxD38sdxQ0A4PBgHA4jEAggOeffx6vvPJK2uPaOz+zYprVqJVK6O68K23byy+/jBdeeAGXLl1CKBSCwWCQKTpaiFV/X4UE8aMzcgdBSxRobYLRaJz8yuRtNsLY7J1xW6C1CUa7B4AfLktijNTdvc3GlPGb4c0Yp6k1MLVPxnGIClHmNTPb9ZFtG68ZIiKasHKKjxFlEY1GUFqyfKe5FCm85Xo/GarAT594Qu4waAZqtRrxeByRSATvvPMOrl+/jieffBIAUP25RzHyyrexTl38t+pgLI7qzz06+f0LL7yAK1euIB6PAwA0Gg1++ctf4okcnqvd3d3o7OzM6ZgE7CvZgt/ccG3ZjleI91UpGpY7BJovbzPsHsDstGKi4l2gtQkWVy2cvjaYEjvBaLTjP7X44PubunkNq7e2wVfdDKO9CzZ3G1LL6XmbjbDDCZ/PNPV9Uw3cbVMx+F0WHLO54fOxDh8VmHleM81GO4xwwucwzWtYXjNERDSh+N/dEs3ifKgMn9FGoFEqluV4ctUum83nNX781ovn5A5jReno6MDRo0eXXCfy+PHj+OCDDwAAOp0OdXV1eOyxxyYf33n/A/Cd/BusVauxPGdwfkzUh6y7f6rm35NPPomXX34Z77//PsLhMGKxGOrq6vC1r30tZ8edaFbz4osv5mxMAs4+9TnERGlV31el4ZXV0b5QVFZWorOzc+l1Iv0uWIwTZUkMsLl9KUkPL064/DA7JxIqACb+9bobrYH/hCX16Ai04pjHAJs7ZfSDNhgs7TgTsE6NbbDhOTYDoUKxiGvG4TTDYz+G1oMmXjNERLQgTEQWiJaWFrlDWJGGFevwy8v9MO5YB7WqmFM5tBL5/X6UlJRgy5YtePzxx7Fly5a0xzfoqzEkSIiLYlEv0RYkCYNxARv01Wnbv/rVr+LGjRt46aWX0NfXh87Ozpwet7GxEY2NjTkdk3hfpSJgsCVnUgXQ2mSB6xut2D8xsypwAV0woKFq+tNuxUV09wBYSq6jpxt++OG3GJFeodmAhtRva6uXdBiinFrMNVNVAwM8vGaIiGjBivedLdE81DX9X7gRVuPcxWEEw3GMRWZu/DESZ16elk8wGMTWrVvx2GOP4cknn5yWhJxQ+um6ok5CAon6kKWfnl6DDQC2bt2Kp556Co899hi2bNnCrtlFgPdVKh56WI+YAb8LJ5a1pFxiRpnPl/rVtrRZY0TLgtcMERHlH98h0Iq2w/gI7v/Db+Fcy5/hpx8Nzrn/V5chJiIg0TX7qaeemnO/qocfxcjJX2GdenkbhORSMB5H1cOPzrrP3XffjbvvvnuZIqKl4H2ViorpIGwGD1ynvXCYJpZ++rPO4rqIh/D1+ZW7S6iqgQFdWbblYJYYkVzme830dMMPM47wmiEiogUq7mk2RPNQ9dBvYt8T/wsb9Xdi7dZbZ9xvY9WdyxgV0fzsvP8B9EZikOQOZJEkSUJ/NI6dKfUhqfjxvkrFQ4/9DQbAczrRhVdvxREz4LGnduVN/uuheydr4FXVGADPMbQGkns0G2H3ZBs/maCZPNx+NBgAz7FWBFLGb87oAkxUuOZ3zTTbPYD5AK8ZIiJaMM6ILBCHDx/G3r17cejQIblDWZF2GB/BDuMjcodBtGDrtu3ATUlZtHUiBUnCkKjAum07lv3YE81q3G73sh97NeB9lYqFfn8DDC4XjrUehMmqh8nhgxNG2I3pWZKTh6dKSOitbXB2G2GfqFtndsJtOwZLd+rAVhwxu2C3G+EBYHb64DDpYW1zA02WjOYfqY0+iArbfK4Zg80NX8raaV4zREQ0X0xEEhEtUH19/ZI7Zi/EGuO90HS9v2zHyyW1Uok1n71P7jCIqAj09fUteQyTwwdf5ka9FW0+6/T9HFPfG43T69hm7gOYpo09fR8A0MPa5oM1c/NsMRLJZLHXzIxj8ZohIqI5MBFJRFTgqkyPYqTTV5R1IoNxYc76kERERERENMXbbIS9a6Kj/QzlDgxTj6c9z5O5mxttWbo/TdvX7ITPwbnIlH/Ft86PiGiV2XHP/eiNRIuuTqQkSeiLxLDjnvvlDoWIiIiIqLgZbHBPdpZ3wwYXLMamydqsWfdzmuF3WdCcVnTVi2ZjMtGZ0q3eCTuapg1GlHtMRBIRFbg1lVsQVGkRF0W5Q1kQQZIwrNJgTeUWuUMhIiIiIlpBEvVVbQY/XCdmae1kOgibAfCcnton0HoMHpjhzJhNaXL4ss6cJMo1JiKJSDbeZiOMzfnviZjr43R0dGDfvn05G28+1t33QNE1q1ErlSi/70G5w5BdsZ7nRMutsrIS/f39codBRERUJPSwHjGndayfiaGmKvkvL064/DDYDrIhFMmmuN7VrmAtLS3smE0FL9DaBGNTK6b/ngugtYlJkHzS1z+CkbggdxgLEowL0NfL9ydOY2Pjojpm8zwnIiIioqJQVQMD/OjumeFx7wm4/AY07E/OdAxcQBeA2mrOfCT5sFkNEVER2HHfXrwejmDt2jIo5A5mHiRJQl84igfv2yt3KEREREREq4ffBYvRNfW9wYb9zDtSAeGMSCKiIlCyfgPGdGVFUydSkCSMlJSiZP0GuUMhIiIiIlrBDJhceQ3M0NSmGVzTQ4WCiUiiLMaixbUEthB5m41oag0klrkajYmvrMtd06Xtb8y2DDbR5W22Mb3Nsz2/eJXv3Vc0dSLVSiXW37+8dTTlwPN8/nhfJSIiIsqxnm74UYuZV1rrYX3OBgM8OO0FoK9GLYCuC+yOTfIpjne0q8Dhw4dx/PhxucOgpHG+Yc4Jv8sCS/eR5KdxTpj9LlhmSZgEWptgcdXCOfkJnhNmjz0lyRJAa9Mx1LgzPuFLGdPbbITdY54cwwk77J48v9Blot9nKpo6kcG4AP0+eUtgnzp1ChaLJe/H4Xk+P7yvEhEREeVSAK3HPID5wAIaz5hwwAz428/M+cE5Ub4wEUmUhW+0HOG4CEhyR1LkzE74HBO/Fk1wOM2A5/QMywISHdzMTkfKL9KJ50x0gtPD2tYG6+QnfnpUJz7SS/4i9eK0B2ld4EwOH5zm3L6s+vp6nD17NreDzsOOe+/HjVCk4E9LSZLQG4pgx733yx3K8lih53mu8b5Kc+nr60NFRYXcYRAREcksgAuJjjKYubRjAK1NFrj8Zjgds6UhA2j9hgt+gw0Hk7uZHMkPzjNW3Eys9CHKNzarIcpibcUO/LjzTdRuXYMd5VqolAqs0aqy7jsSV6NsmeMrbl24EABMmb9VAxfQBQMaqjK2V9XAAE+iE5weSCxZtSNt8pchdYyV2wVOU7YG42vLERejBb1EW5AkhNaWQ1O2Ru5QZMTzPBPvq0RERESzSf37zwxnW0aCMbMJjdkJX+Y+2fYz2OBus6YkNU1w+NyoabJMH89aXH9fUnFiIpIoi883v4of/NGD8F+/gc5ro3Pu/9VliImAiV/OXTb35C9Jb7MR9i6Zw1pGGx4yQfPGabnDmJVaqcT6h+Rdll3cVuZ5zvsqERER0WxMcPh8cGR7xOGDL9sDi9wvsQLHB+vCAiTKicKdUkMks9/669P49G//MTbs2o01W3bNuN/GqjuXMSp56atrAX87zkybsd+Dbj9gPjB78imQWGMwSzFlf2JGWNrQ3fDDjAMmAN7T8MCAhv0zDJAsvryS3frQ5wq+TuRIXMCtD35O7jAWjed5/vC+SkRERES0unFGJNEM1Loy3P17X8fdv/d1uUMpHKaDsBkscH2jFftTpvd7m+3wGGxwZ+ZnPHYYMVE/L1EbD+Yj2Ysp6604YnbBbm/GAd9E/Twvmu0ewOxMfJ+5fNXbnGjQMbFkNVl8OXWMRFMPADmsn9fR0YGjR4/KUidy5717cWY8hLXla6FY9qPPTZIk3BgP445798odyuLxPM8b3ldpNpWVlejs7GSdSCIiIqIVjInIAtHS0iJ3CETzkJjCX91snF99ErMTTthhNKbsN0sxZZPDByeMsBunKuMZUpanQm/Fc7Z2WOzGydopNpsBrvbUMdywdVkmxzDY3HDbvgFL96JecMFRajSIbqxAPDZekHUiBUlCeMNmKDUauUNBY2MjGhsbF/FMnudERERERET5wEQkES3Y/GuPzL6vyeGDb4Fj661t8FnTt1nTvs9W76Rt2nGK2cbPPYrIT/6xIBORYUHEpkcflTuMnOB5TkRERERElFuF9y6WiIhmteuBerw+EsJAOIq4KMkdDgAgLkoYCEfxxkgYux6olzscIiIiIiIiKkCcEUlEVGR23LsXZZs2441ADzaXaPGpjeuxRq2GUqGAYhkLR0oSIEoSxuJxfDg0jIFwFBv0VdhRzPUhiYiIiIiIKG+YiCwQhw8fxt69e3Ho0CG5QyHKiWzLUSl3vvL9H8H9f/4B+rs+ws+u9aFErcLmEi22lZZio04LjVIJQRSgVqpykpyUJCAuClApVYiJIoYiUVwLJWZlhuMCtOvWYfsdd8Hy/7609IPlyKlTp3Dy5Em43e68HYPnORERERER0fwxEUlEtED19fWydMzOZPn2S7jy1ps46/y/MXzpIq6HY7gyGgIAaFQKbNLqUKJWoUSlQqlaCZ1SCa1SCZVSCbVCAZVSCZUCCAsCSlQqCBIgiCLikgRBFBEVRUREEaG4iLAgICzEMRiJIiYkloOr1Goo1FpsrtZj358exY77OBOSiBavr69P7hCIiIiIKM+YiCQiKmI77n8Av//qDzF6/RquvPsWus/8BNf//X1Eg8MY1ujQNz4GMR5f8nGUajU0ZWsgxkSUbliPWz59F2r2/xp23HM/1t6yLQevhIiIiIiIiFY6JiKJKOe8zUbYu2xwt1mhlzuYVWLtLduw5zcasec3GgEAkWAQ1z/4JUauXsZYfz/G+nox3t+L8PAwYqFxxMbHEAuFIETCKN1cgdBAP1S6EmhKS6EpWwNNaRlK1q9HWcUWrKncgjUVFVi3fSdu+UwddOXlMr9a+fEcJyIiIiIiWjgmIomIViBdeTn09Q/LHQYRERERERHRJKXcARCtJGNRQe4QphmLinKHsOJ0dHRg3759codBtCoU5n218GJaCSorK9Hf3y93GERERESUR5wRWSBaWlrkDoFyYDwqYI1WJXcYaQSx8BKRgdYmWFz+qQ1mJ3wOU8oeXjQb7fBkPM9gc6PNqgcCrWiyuOCffLoPaU8nAtDY2IjGxkZZjs1zPHcK8r4qSXKHQERERERUlDgjkiiHfKPlCMdFoEDeo8biIj4aL5U7jDSJBE0tnD4ffD4ffD4nzB47jM3e5B6JBE2XzT31OFISNPCi2eJCrXPq+TjWioCMr4koFc/x3Cq0+6ogSOgOFdZ9lYiIiIioWDARSZRDayt24MedA+jsG0cwHJdl+d5YVEBMkHBjJIqfXbiJINYsewwz8+KEyw+z04GpyV0mOJxmwHMMrQEAgQvoggEN+/WTjx8wA/7unsS3gQvoShvTBAcbhlDB4Dmea4VwXwUS99ZgOI53LgcxIDARSURERES0GFyaTZRDn29+FT/4owfhv34DnddG5Q4H2rUbYDr0jNxhTJlIwFRlbK+qgQEedPcAMFWjFn60nwnAmpwddtoDGGzJJ+mtOGJ2wW43wgMDbO42WFdrhoYKD8/xnCu0+6pGtwYPHXxS7jCIiIiIiIoSZ0QWiMOHD+P48eNyh0E58Ft/fRqf/u0/xoZdu7Fmyy5cWbN7WY+/ZssuaMrWYVudCb/25y9jq+G+ZT3+0lWhxgD4XRYYjUYYjXZ4zM7kktUEkyOxZNVp9sNlMcLYtHqXrdLMTp06BYvFIncYWfAcX6jM+6oc1mzZhfU7b8dDf/xX2HX/F2SJgYiIiIio2HFGJFGOqXVluPv3vo67f+/rAIAnnngCR/+/dpmjKiT+xKyw1BlePd3ww4wjJgCBM2j3m+H0pS5tzc7k8MF3MNHU44TXumzNPOrr63H27NnlORgVoeI/xwtN5n2VVqa+vj65QyAiIiKiPOOMSCJaPnorjpgBj70Z3smNXjTbPYD5QEpSxgO70ZicLZb4ampNzgfzNqc0/UAywWNATdUyvQai2fAcJyIiIiIimhFnRBJRfvhdsBhdKRuSM8AcPjhhhN3omXzEYHPDN7EsVV+NWhjQkFoXL9CKJosFzdU+OEwOOE8bYTSmjOz0reoaeiQTnuNEREREREQLwkQkEeWcyeGDz7G4xwOtx+AxNMCdmnTRV6MWQNeFAGDSzzk+Ub7xHCciIiIiIlo4Ls2VYiceAAAgAElEQVQmosLjb8eZlM4cgdZj8MCAhv2FMSWso6MD+/btkzsMKmYFfo4TyaGyshL9/f1yh0FEREREecQZkQWipaVF7hCICoLe2gZntxF2ixFTi14NsKUuYyWah8bGRjQ2NsodxjQ8x4mIiIiIaLViIpKKWyDRTdaP+XWgLWbeZiPsnunbzU5fWifdafuZnfBN7uBFs9GOlMp1BZn84LJUWul4jhMRERER0WrERCQVtcCZdvjNZpg9Hpz2OmBayZlIADDY4G6zInveMJlkNNjg9k3t4202oqnVjTYr0NpkB5w++EwAEEBrkwUuSzOqV3gSl4iIiIiIiIjkxxqRVMQCONPuh/mAAwfMgOe0V+6AZJWoMWeGMyNRaXL40GbVA9DD2pY6e1IP6xEzAA9W+Y+OiIiIiIiIiJYBE5EF4vDhwzh+/LjcYRSXwBm0+804YAJMiUwkMvNpidmAAQRam2A0GhNfTa0IAOnbmqc9E80Tj6U8J3HcVjSlPpb5eMbYAKaNPxGXt9k4SwwL4cUJlx8G28GFzWysqoEBBtRULeHQRAXq1KlTsFgscodBRERERERESUxEUtEKnGmH31CDKgAwHYB5hpl9fpcFlu4j8Pl88LltMPhdsBiN6ds8dkzlAQNobTqGGrcv8bjPDRtcsEzsoLeizTfxmBNmAIaG/ZOzEAOtTbC4auFM7gMAZo99WqLR77LgWI07LYam1gAWJXABXQBqqxdW7DFwph1+1GKBT1v16uvrcfbsWbnDICJaUfr6+lBRUSF3GERERESUR0xEUpFKLMueSgBWocYww/Ls1GYteiuOmLNvm3quHta21AYuelTXAui6gMw0YaD1GDwGG56b3DkxM9HsTK+56HCaAc8xpOUZzc7kkumpGPzdPbO/7GQSVdZZlEREREREREREi8BEJBUn7wm4/AY07J9IAOqxv8EwPdm3+AOkLc3O1q0agVZ8w+WH+UhKTcbABXRlW+pcVQMD/Jgrzzgngw3uydmYvpRu2AsVQGuTPSOJSstmcnl/87RyAitPAK1NqaUMMl9zRhkEoxFLyq8TERERERFRwWIikoqS97QHgB8uy1TywuLyA/Cj/cxSM5GJ7tNdNvdkws9pzrLXCRf8ZicWnQvMJX01EpM25/favc0WuPzTG9vQ8pjs9r7iGwUlO7MjJYHuBOyTNVUDU53ck4+7bQZ47E05+kCBiIiIiIiICgkTkVSEvDjtAQwpicLUhKG//cy0JdQLG/40PEidbZltn2bYPQbYDmbLQmaZ+djTDT8SjXXyw4QD83ztgdamROxuB5dkL1JHRwf27du3yGevom7vgTNo9yN91rDJAd9kAjyzkzugtx6BORezh4mo6FRWVqK/v1/uMIiIiIgoj5iILBAtLS04dOiQ3GEUh1kShaZENg5LmhSZuYza25yxNNuLZrsHBttzmLaqeaLepD19+Wmz3QOYD+Q18WdyOGH2u2DJ6OA90aEbmGikA9jcbdNjp+VRJN3es42/4G7vyZm6C0q2Jhsv5UJjYyPcbneORltlVlH5gLTzeZYSAdP2S9shs8QAZ/USEREREWXDRCQVHe9pD2BoQNYJi6YDMC91ebbeiudsBnjsyTeUdsBmM6QGAA8SXa+z1b0zOXxwmj2wJx8DkFjmnYs13JnNaozGlE7bJjgmOnyn1rfERFOcRHOazCXt2RJSlD/F0u3d53PmoNu7CQdtBsBjn2dCK4DWb7jgN9iQdbIxLZvVUz4gKbP+ri91pm4iyWjvSt/HiYlzP7PEgBs2gx8uy8pP4hIRERERLZgkSa9JK1h/f7+0efNmucOgVexP/uRP5A6Bcuzs2bNSfX39Ip7ZI538cp305ZM9ad/XPZ1+G37t6cVvm/b4l09KPRnbe05+OWP7a9LTdXXStKFee1qqq/uyNBHuYmJIHlD6cl2dVFdXJ9XVPZ3xSydx7LqJryzx0nJLnJdPvzbP/79FbqbrZELPyS9nOW/nHFSqy3ZN0awqKiqkvr4+WY5dV1cn+Xw+WY5NRIXvmWeekb75zW/KHQYVEL7Ho0JXUlIihUIhucPIijMiiYiWy2rt9j4xG9NtgwEe2NNmR5rgSJ2JdqQblrSZvrTsVlP5gDklZpIbbAcXVlqjqgaGbNcUEREREdEqx0RkgTh8+DCOHz8udxhElEervtu73oq2ZDJyxuW+Jkdumk4BOHXqFCwWyxJHWX1WV/mAuX4YiZqltdULK6obONMOP2qxwKcREREREa14TEQSES1QfX09zp49u8Bnsdv7fFXVGObeifIk0dV9KgFYhRrDDA2HzM6p2rfJRl3Ztk09Vw9rW2qjLD2qawF0XZh27gdaj8FjsOG5yZ0TMxPNTkfKzEQTHE7z9BnF5om6uFMx+Oea1ptZf1eOWZSEvr4+VFRUyB0GEREREeURE5FERMuh6Lq9e5fe7d3bPG1prfeEayq5GWhFU2YTm+TS8dSZcLSMVmv5gMxmNYueMpxoXJOeRCUiIiIioglquQMgIloNEt3ebbN0e/eg/UwA1sUmL/RWPGdrh8VuRCK3Y4bNZoCrfTKAxHaXBUbXxJPMcPoSM8xMDh+cMMJunMoMGWxu+JaSTDE54L7QBMvUAZMJn2SCSW/Fc7YmWJLd5SejcvrkWTpOyfIBgMtihCvjsSWdn4nRp8oHJMfxNhth78rYK1k+oK0QzgF9NRKTNgOAae7X7m22wOU3w+mzMpFORERERJQFE5FERMvA5PDBN/OjcPh8s+47n216axt81vR9rNbJneHzOeaOcZZd5htXqmwxLeRxWk5T5QPaMhKO3mYj7O1nELAuIcGWnBVsm0/5APcs5QNSn54sH3Akb0lLEw6YAc88XnugtSkZu4NLsomIiIiIZsCl2UREC9TR0YF9+/bJHQZRbq3G8gHzYHI4Yfa7YMksM9A81d090UgHsLnbpsdO81ZZWYn+/n65wyAiIiKiPOKMyALR0tIidwhERCtKY2MjGhsb5Q6jaKzK8gET/K70EgJInRlqgsPnRk2TJX0fszN57ERzmkToGUvaDTa427hMm4iIiIhogkKSpNeAlbuKaGBgAHv27OEn7CSbJ554Ai+++KLcYVAOdXR04OjRo4vonE1ERDOprKxEZ2enLJ2zjUYjTp48ibq6umU/NhEVvmeffRahUAjPPPOM3KFQgeB7PCp0paWlGBoaQklJidyhTMOl2URERERERERERJR3TEQSERERERERERFR3jERWSAOHz6M48ePyx0GEdGKcerUKVgsFrnDICIiIiIioiQ2qyEiWqD6+nrWhyQiyrG+vj65QyAiIiKiPOOMSCIiIiIiIiIiIso7JiKJiIiIiIiIiIgo75iILGCB1iYYjUYYjc3wzrwXWpuMMBqNaGoN5DqCxNjNMx+9OI5BJJep63Pua7m4eJuNMDa1Itd3HSIiIiIiIlq5mIgsdAYDDPDg2ExJRu8JuPwGGAzLFI+3GUZjE3Ke8yQqIh0dHdi3b98cewXQ2mSBCza4fT74fD74nIA9V8k7XotEtMJUVlaiv79f7jCIiIiIKI/YrKZAtLS0zPBIA47YAHv7GQSsVujTHgug9ZgHBpsTDe12tOc8Kj2sbT5Ycz7uch+DSAaBM2j3A2ZnynVrcsBnkjOo1aWxsRGNjY1yh0FERERERERJnBFZBKr2N8Dgd+FE5prOwBm0+w1o2F+V9XlTS7uTXxnLn73NieXc3ubZ95nYFmhtgtHuAeCHy5LYP3X3BR8v+XjqMeYbF+BFc+qxjPlank60SPpq1ALwnM6+GDv70ubEeT15ugda0ZRyfk9sn+taTLt2MpaDT1xfaddrMo60bUsslzDX/WDOa3iG105ERERERETFi4nIYqDfjwbD9ISG94QLfvMRWPXTnxJobYLFVQvnxJJQnxNmj31aMsDvsuBYjTuxj9sGg8c+YzJPb22Dz2kGYIDNnRjXYVrC8RwzTw2bPS4vmo12dNncU8cCYLC50Zbth0EkCxMO2gyAx561NqTpgBnwt+NM6uXmPQ0PzDhgAgAvmi0u1DqnrikcSyQMZ7sWvc1G2OFMPscHp9kzbTm432WBpfvI1PXld8FiNKZv89gXnfyb+34w1zU882snIiIiIiKi4sVEZFHQw3rEDHiOpdSD8+K0BzAfyJbM8+KEyw+z04GpR01wODPHAGB2TiXv9FYcMQP+7p4FxreA4xlseG4+ycLZ4gpcQBcMaNg/MY4JBxYVN1F+6a1tiaQePLBnzk40HYAZfrSnZCK9iYs6cR0FLqArbTQTHG2Z5RkyBFpxzGOA7WDKlXjQBkNmwtPsnPogIHl9Zds202zO2c3jfjDXNbyY105EREREVCTSVzClr1Kaa7+5VwGu3IaZtDIwEVkgDh8+jOPHj8+8Q0bSItB6DB6DDQez5SGTb/JrqjK2V9XAAD9ynq9byPFqq5eeTNBXozYtgZNIyhqmBUBUAPRWtE3MMoQH9sk/BBIzJv3tZxJ/cARacSz1w4WJZKDdOP+mND3d8Kcs1zYajTBaXPDn67VlM5/7wVzX8GJeexanTp2CxWJZ3JOJiIiIiPLJkNLU0ueGDS5Ysv3tm7qf0wy/yzLLyqU8N8wkygEmIotGMmnhOgFvcsaRoWH/Kp0hVIUaQ2J5aSLZYocndQYlUZ7V19fj7NmzC3uS3oq2ZDJyYqKhfn/D5GzFwJl2+CeXZSeYHBPLq5PJxXn9ATG1XHvqqy1rCQf5zH0NL+61E1Ex6+vrQ0VFhdxhEBERyUAPa5sbNoMfrmnNIVKYDsKWpWzbpImGmUcyGmZydREVECYii4h+f0MiidGcqCN3ZNbMQpaZjz3d0xIdC1ZVA8NyHi+bwBm0+80p9edmrzdJVLD0+9Fg8MN1ohVn2v0w2A4i25lsckzVcpz8uyTbtZivWc8LNsf9YAHXcNbXTkRERES04mQryZbdjKsB52iYOWE+zS1Tm8zOq9HmIsYFwCaVqxATkcVkommNJ6WOXNb9JpY1pl74XjTb53jevGUkGfJ+vGwmau6xYzYVKG/ztF/W3hOujOS8HvsbDIDHBZc/tWZi8vmpv4V7uuGftuQ581pM3iPSGrt40bycdWHmfT+Y5Rqe12snIiIiIlph5ppY4D0x/X1DmtkbZgLzb26Z2mR27kabixuXTSpXJ7XcAdBCJD4hcdm70ppRZGNy+OCEEXajZ3KbweaGb6nrM/VWHDG7YLcb4QFgdia69ebteFljqEYtDGhwpyw3DbSiyWJBc/VU92AiWZkccF9ogsXomtpmsMHtS18Wobcegdllh8fQgLS/J0wOOE8bYTRObTI7fVPnfNZrMbGkA02WlOMaYHO35ecDAb8r/fXBDKfPMff9YM5reI7XTkRERES0WmT+zW2wYcY8JJINM/e3osniSv49nvwbHZhqbunOaG5paceZgHXq7+3MJrOmAzDDk6z3ntiUaLTpXNq4ySaVtVPPgqONb+hXOiYiC5je2gafNWOjyQGfb9qesLb5MH1XH3yOmcc3OXzIHCpz24z7ZBl3Mcdb0DGT/0406mmAOy2bk5iC3nUhAJiYraD86ujowNGjR+esE5n1Gp5Btpqv87qmpj2e/X6Q9pxFblt6bAnzuYbnGp+IVp7Kykp0dnayTiQREa1yGSuBDDa4J2s8JprRWIzdU8nFbPRWtPmsyQ/7XbAbkdg/2dzSbzHClfYEAxpSv53WZNaEA2bAftoLhykxkzGRh0xGsNhx0yZXJCZQcPLBysel2QWipaUFhw4dkjuM4pExLTzQegwezDZFnahAeU+vznN3Ga7hxsZGuN3unI1HRERERJRXPd3woxbVM/5JrIf1ufQGmLPK0jBzsc0tTQfMgOd0Yrm39zQ8BhvSF2ouclw2qVx1OCOSio7e2gZntxH2tE9b+OkJFaMAWo955lxesdLwGiYiIiIiypR8bzCx3DkfqmpgyFhiPW+mg7AZLDjtdQCnPTA0uKeGWMq4E8M7fPAdTMzgPOG1suTaCsYZkVSUJj41WcgnLUSFJ7GM2tdmXezv66LFa5iIiIiIaEJiybXLb4Zz1gxcAK3fcME/bTZi0lwNM5fU3DLRaNNzuhUXujJWMi12XDapXJU4I5KIiIiIiIiIaDllNqExO+HL1qglS7Ma90wTGeZsmLm05pb6/Q0wuFxwGWzp9d4XOy6bVK5KTEQWiMOHD2Pv3r2sE0lElCOnTp3CyZMnWSeSiIiIiArKfBszLqaB49wNMxfe3DJl8EQTnByOyyaVqw8TkUREC1RfXz9nx2wiIlqYvr4+uUMgIiIiojxjjUgiIiIiIiIiIiLKOyYiiYiIiIiIiIiIKO+YiFzhvM1GGI2Jr+a522ARERERERERERHlBRORRcLbbExvaz8fgVYc8xhgc/vg8/ngmE8brELhbYbR2ITWgNyBEE3X0dGBffv2yR0GEdGKUllZif7+frnDICIiIqI8YiKyQLS0tOS8Y3bgTDv8qEW1PqfD5lygtQnGplYw50hEudTY2MiO2URERERERAWEXbOpMJkc8PnkDoKIiIiIiIiIiHKFMyKLlLfZiKbWQFoNyKml2wG0NhlhcfkBeGA3GtNmHAZam6aeY5y+5Hva2MnHJ7anPT85btq2aUvIvWhOPV5KLN7mZJx+Fyyp+2TsN5+4iYiIiIiIiIiocDERWcT8LguO1bjh8/ngc9tg8NjR1BoAoIe1zQe3zQDADKfPB1+bFXokknkWV21im88Hn88Js8c+LamXNnZKcUm/ywJL95GpYyYTiGnbPPaUxjgBtDYdQ4174nhu2OCCJbmDyZGM02CDezKmidinzDduIiIiIiIiIiIqTExEFojDhw/j+PHjC3uS2Yk2a7IApN6KI2bA390zyxO8OOHyw+x0YCq1aILDaQY8x9IbwxhseM6apbik2TmVmEweM9s2z+mJBKEe1rY2TA2lR3UtgK4LC6gJuYC4iYiSTp06BYvFIncYRERERERElMQakatJ4AK6YEBDVcb2qhoY4EF3D4CJhGFtNXLX48aLZqMdntRNhpn2zWIhcRMtg/r6epw9e1buMIiIVpS+vj65QyAiIiKiPOOMSMqzRBKyy+aeXHbtNMsdU/4Fg8EFbSciIiIiIiIiWuk4I3LV8U+fQdjTDT/MOGKa4SlL4T0NDwyw7V/qlMVljnuJvv3tb+PGjRswGBJTP48fPw6/34+tW7fiqaeekjk6IiIiIiIiIqLlxxmRq8lE/UZ7M6ZavHjRbPcA5gPISz6vqgaGiSQiAHibYfek76KvrgX83ejBDOSIe4kaGhqgUqnwwQcfQK1WT/63oaFB7tCIiIiIiIiIiGTBGZGrjMnhgxNG2I1T2UCDzQ1ftsY0uaC34jlbOyx2Y7JGpBk2mwGu9tSgDsJmsCRjMsPpc6BK7riX6K677sJPfvITBAIBxONxAEBlZSXuuusumSOjXOjo6MDRo0dZJ5KIKIcqKyvR2dmJiooKuUMhIiIiojxRSJL0GlCQk8pyYmBgAHv27EF/f7/codAq09vbi+effx6RSAQ6nQ5PPfUUtmzZIndYlANMRBIR5Z6ciUij0YiTJ0+irq5u2Y9NRIXv2WefRSgUwjPPPCN3KCSjYDCI8vJyAMATTzyBF198cdp2okJRWlqKoaEhlJSUyB3KNJwRSZQnW7ZsQV1dHd555x3U1dUxCUlERERERFSk2AeAKDeYiCRahPPXR/HxtRHcGA7j8sA4BkejGB6PIRiKIRQREIoKiMQEROKVMCrK4fygEn/79E+h06hQplWhVKdCeakWG8s02LROi1sryrBtYykM28uxfVOp3C+PiCjvrg6G4L8axLXBMC4OjGFwJIqh8RiCoShCEQHjE/fRmIjKdTr0jUSgUyuh06hQOnkf1WB9mQab1mqxc3MZtq4vwe5t63DbLWvlfnlERES0wjQ0NOCVV15J6wNQWlrKPgBEC8REJNEshkaj6LwSxIeXhvFu9yDO3xhFXzCCEq0KkIBwVIA0xxjnlA8CcRHRuIiRUDzrPiqFAjqtCqIkQRAl7NhUik/tXI/7bt+EO3aWw7CdU/2JqHj5rwbReTmItz8ZxIeXh3FlMASVUgGlQoFIVIAgzX4nvTIUAoDEfTSc/T6qABL3ZkXi3lxZrsNtW9finppN+NSu9bhjRzk2rtXm+qURERHRKsE+AES5wURkgTh8+DD27t2LQ4cOyR0KAfjnd6/i1bMB9I9Ek7Mc42kJx1BEyOnxBEnCeGTqzXVP7xh6esfw4/euo6xEDUmS8Dv378QfPFKNTXwjTTQvp06dwsmTJ+F2u+UOZVUaHI3ipdcu4B/eugwFFBiPxBETxMnHYzk+ngQgFJ26N/cOR9A7HMGbHw+gVKdGeakGFeu0+Mo+PX7jnu05PjoRERGtBo8//nhaH4DHH39c7pCIig4TkURJ7/UM4SVvD/7tw14oFIAgzDXXMf9igojhsSgA4ORrF/B3P+/BHTvK8Yefvx0P31kpc3SrV319PRvVEM3A+6tetPzkPDqvBhEvgPuoBGA8Esd4JI7rN0N4+rsf4M+/8wEe/dQWPG6qQl3VRrlDpKS+vj65QyAiIpoV+wAQLR0TkUQAnv9HP378/nX03gzLHcqs4oKEDy4O4+nvfIDPGSrxTNNn5A6JiGjSN9veR8dH/RgajcodyowmPmT66Qc38P6lYTTctQ3/5bf2yBwVERHR/EmShIGBQfQPDKC/vx+9vb0YHx/H4NBNxKIRRKMxRGMxxGIxCPE4YvE4BEHA+vXrMTw8DJVKBbVGA41aBY1aC41WDa1WC61Wh4rNm7FmTRlu2boVFZUVqNhcgfLydXK/5LwKBkfQP9CP/r5+XL9xA2Nj4+gfGEA0GkE0GkUsGkcsHkUsLiAei0EQBEChwDu/+CV8730AjVoNlVoNjUYDrUYDrVYDjVaHjRs3YE1ZGbZs2YKKigpUbN6MzZs3QaFQyP2S84rnJ82FiUha9b7z+kV87/VLiMRzu9w6n26ORdH+/jXs2bEOjz9cJXc4REQ4eaYbP37vOqJxce6dC0TvzTC++0YAVZVl+N0Hd8kdDhERUVadnX74/R+j65MuDA4NIRQKQa1WQ6EA4nEBoji/372Dg4MAAEEQEI1m/9Cwq6sLAKBSq6BSqiCKIiRJwrp15di1cztqa2vxWaOxaJM/weAIfuHzoaurC5evXEEwOAKFQgGlUglBFCAs6D2hMOvPcoJSqYRarYIkAfF4HKWlpdi0cSNqb78dBsMe3HGHYWkvSmY8P2mhmIikVe9/fv+XiCuLr+5iNCbC6X6fiUgiKgj/j+ffi/JeGomJ+Nb3fExEEhFRwRgdHcUHH/w7Xn/jHC5eugiNRjMtMROL5bracjohLkDAVFLu5s0h3Lw5hF91+vGPHg/Ky9fjgb33495770HF5s15jWWp+gcG8M477+LNc28hGByGJCWSXctFFEVEo1PJuPHxcYyPj+PylSvoeOMNxGIx3LrrVjz04F585jOfxtq1a5cttsXg+UlLxUQkrXrD1y+g7JZaKJRKuUNZGEnCcO9FuaNYlTo6OnD06FHWiSRKEey7hNItNUW33EiSRNy8fkHuMAiJzqOdnZ2oqKiQOxQqMud/8AI2dLqx7qEvQ7v/P8sdDtGS/NuZ1/Dzn5/FzeDw5Oy8uWbcLaeJBN7g4CD+5V/b0fH6G9i793785pe+KHNk2Xn++Ud46623EQwGIUny167ONPH/NnAxgMtXL+PHP/kpHn54H/Y/8oi8gc2A5yflAhORBaKlpUXuEFat8M1rUJasga68Ekq1Tu5w5kUUYoiNDCI8eFnuUIgKVmNjIxobG+UOY9UIDVyCqmQtNGs3QanSyB3OvAjxCGLDvYjcvCZ3KES0COd/8AJ6/rUFSo0O23aUQHj77zH+xktQP/gHTEhSUTr31lv40b/8C6LR/M4myxVJkjA8PIx/O3MGG9ZvwL76B+UOKc3Pfv46XnvtNcRicblDmRchLmBgcBD/9KN/xdo1a3HffffKHVIanp+UK0U2BYwo96q2b8b4jfMYufwrREf6AUiQUHiflgEAJBHxUBBjVz/C6DU/9Ns4zZyICkPVts0YverH2FU/4qEgIBVmrcjE/V1CdKQfo5d/hbHeblRt572UqJic/8ELOP2HBlw8/RIAQIxFAABSPDErR3j77zH+P/YieuZvZIuRaDFefqWtaJI8qeKxOL7z3e/KHcY03/v+94omCZkqFo3ipZdfkTuMaXh+Uq4wEUmr3it/eRA6tQpCOIiRyx9ioPNnGLviRzw8AiEWgSTK2MRGEiEKMYhCHKH+ixj65ByGe3yIjg6gVKtG63/7j/LFRkSU4sTTj6NEp0Z0dBDDPT4MfXIOof6LEIU4xHhc1sSkJAoQYhHEwyMYu+LHQOfPMHL5QwjhILRqJb7z7CHZYiOi+ZspAZmJCUkqVr03bkASC3RCxCwkUUJv7w25w5imr6+/SH+eIm7cKLyfJ89PyhUuzaZ58TYbcazGjSPdFtg9yY1mJ3wOk6xx5YJ+2ya89dKf4Vsn/wXfP/0LqJRKRIK9iAR7oVRqoCpdB3XpOqjLyqHWrYFSrYMkCYCEZF3JHNRDkyRIkggka6uJsQjioSBi4zchhEcRD48CEqBSKaBSKPDofXvgOPJb2LV149KPTUSUA3uqbsG//e8/xV9824N/e/sjQIxhvPcCxvsuQF2yNrFsu2wD1KXlUGqSZTAkCQqFcvLetzQSJFEEFIBCoYIYjyAeGUN8PIh4aARCeASikPgUX6dWQRBF/O6Bz+KbX/sSNpaX5eD4RJQvqUuwgZkTkJnSEpJcsk1F4ObNm9BqtVi3rhxqTXG8VY8LAsZHR3Fz6KbcoUwzNDiAkhIt1pSthUqtkjuceYnHYgiOjGD4ZuH9PHl+Uq4Ux9mzChw+fBh79+7FoUOFOyvD77LgmM0Nn08PBFrRZLGjqcaNNqte7tCW5CvO19F439q59XwAACAASURBVE78lf138Vf238Vr736Mv//xO3jt3Y+wplSHoeAwQqODiZ2T75VVujWJpKRWB6WmBEqVJlETTaWGUqEClKrEm2ulElIsCoVGC4hiItkoCpAkAaIQhxSPQRRiEKLjEGNhCOExCLHwZGwKAOvW6DCuVOBTt23HVxruw+8c+CxKtBp8942LONrWiVftDy3/D42oCJw6dQonT56E2+2WO5RV4SvO12HZuxMn/+I/IhyN4R9O/wKvtr+ND89fRZkqhpGb1xG5eX1yf5WmBKqSNVCqS6DSlUGp0kCh1kCpUkMxj/uoKAmAEE/OGo9BjIYTH+JExiBExhIHSX5or9WosGV9GUZDCjxyzx58+dfvxSP37AYAfOf1AE69dYX3UqICtNgEZCYmJKlY7Ni+HVeuXsXoaBAbNm7GunXrAEnK0Qd2OSZJCEUiGOrvw8joGLZvu0XuiKbZvm0brl69hnXr1mDj5gqU6koK9mcJhQIjIyMYGhxEKBTCju3b5Y5qGp6flCtMRNL8mZ1TSUe9FUfMLti7ewAUdyLyw8tB9PR9jP95yo//sHcHvvpwFY79WeIN6ntdl/Hh+avwfXQJ739yBRevDyAUiUGnjEEMDyEUjCbe6CqAhc+MTD5RkqBUKlCi1UCtAsajEio3rcPuXVtw7x1VuKt2Jx7+7O0o1Wlw7WYYL/7oPL735kVoVEqMRYqv5slKUF9fz47ZRBkm7qXPn/Lj/3jwVjxuuhuPfXEvQpEYfvaLT/B+12W809mDjy/1om9wBDqVAESDCI8OQBQn/oidvKEugDT5tFKtFiUqBSIqBUp1Gtx6y2bcVbsDxt278KnbtuPu2p0AgJ6+MTzzDx/ih+euQKfhvbRQ9PX1yR0CFYhcJSAzMSFJhe6ZZ/8Sf/iHRxAKRTA+fgUAUF6+Hhs3bYBKrYFKqYRSKVN1NUmCIIiAEgjeHMbA4CCEeOL3p06ng8Px3+WJaxbNzU/DZv9TjIyMYWRkDCq1Gps3bUL5hvWACKhUuVqVsXCiKEIQRQjxGIYGbyIYHAYAKBQKaDQafOtbz8oS12x4flKuMBFJBEy+Cf2Hc5fxo19cw87NZWjadys+tWs9vvKFnfjKF+6f2jcURdfFG+i61IsbA0H0XB/E0PAYhkbGERwNYzwcRSgaQzgSQyQWx5ZN69A3GIROq0GJVoMSnQZrSrQoX1uKTeVl2LR+LWp2VGBbxXoY9FuxW781LbZLA+Nof78XPzx3GR9fDSIiiBAECdF4YTaCIKLVa+Je+vevB/DDc5ewe3s5/sPenbhntx4ND96Rtu/HgRvwB27gWn8Q3Vf6MDg8isHgOIKjIYyFowhHYghHY4hEY6jcVI7ewRHoNGqU6DQo1WpQVqJF+doSbFxXho3r16Dqlk3Yurkctbu2oPbWrVhTqk0/3rUR/PCty2g7exGXB8YRigkQRQnxCO+lRIUiXwnITExIUqHavm0bXnn5JZw4cRKnT5+GQqVEMDiMYHAYapUKupISlJSWorSsFDqtDmq1GpIoQoICSmVuEmoSpMmyzgoAsXgM4XAIY2PjiISjiERCAAClSgmVUol777sP//mPjmDr1q0zDyqT6uoqfPvY3+Jvj30b77z9NiRJRG9vL3p7e6HTlUBXosOaNWUoKSmFRq2ZbFeqUAKKXJTfAiCKEhSQoFAqEY/HEYlGEBoPIRwKIRwOQxAS/Qg0Wg0kQcSBAwdw6NDXUF5enpPj5xLPT8oVJiKJUoiihLFIHB9dDeJ5dyfUKiXCcQF36zfivts2oa56A+qqNqJuzy7U7dmVlxi6ro3g3e4hvNM9iHNdA5BECZIkYTQiY9McIqIFEAQJ44KAX/YM4ZNrQSgUCiiUCuyt3Yx7azbhnpqN2J3lg5dcicZFvPXJAH554SbePj+I9wJDKFGrEBdFjPFeSlRwlisBmYkJSSo0f/XCX2Pv3vvx9a/b8fWv2/HOO++i/cc/xjvvvIuy0lIEg0GMjY2lPUer06FEp4NarYFGq4ZKpYZapYJSpYJSoYRCqYBSqYRCoUA8Hp9KDkkSBEmEKIoQ4wIEUUBcEBGLRBCLxxAJRxCLTXVIVkCBsrVliMdVuO222/DFLzTgwOcPQKfV4mzH6/i7l1/Ff3nyT5f7Rzarv3rhr/HAA3vh+O9/gUg0itM/PY1/+dd2nD9/HmqNGiPDQQSHhyf312g00JXooFFroNHpoFYpoVKqoFSroFQqoVIok3/TKKd+lpIEURQhiRJESYQoCIgLAgQhjlg0jng8hnAkgmgk/b6m1WiwYcMGhEIh3HvvPWj49V/HvffeAwD4+dkOnDv3VkH+PHl+Ui4wEUk0g7GoACDxhvWtTwbwqyvDePWsEsFQDMbqjVApFbi1ogy3VqzB1vU67Ni8BhqVAqVaFXQaJUo0KpRolNBpVAjHBISjAkIxEeGogHBMwGg4hisDIVwZDONC7yhujkfxfuAmdBoVlAogOB5DETYlIyJKk/ohyun3r+PtTwYgSkAkJuBu/QasL9OiZutabN9Ygh2by7C2RJ24f2pVKNUoUaJVoUSjQiQmIBwTEY4JiMREhKICYoKIKwPjuH4zjEsD47jYPw5BlOC7MITyUg1ioojRUGKWZiTGmY9EhUauBGQmJiSpUFy8dAk3+vrwgx+68eADe/GI6WF887/+GQCgq6sLXZ+cx0cffYRPuj7BtevXEY5EoFKqEIlGEAwGcxKDAgroSnRQqdSIxWLYuHEj9Ppbceedd6D29lrcc89nodPpMDQ0hH/6p39Gx+tvQK1SIRyR5/qdzcVLl9Db14sf/NCN+ocewqP7TfjSl76ISCSCd9/9Bbo+6cKvftWJQOAihoaGoFKpEY/FMTYyBgm5eSOmK9FBpVRBpVajRKfDtltuwe21tdizZzdqb78NtbW1AIDe3l5893vfxxtvnoNao0EkHJ5j5OXH85NyhYlIonmaeDMLAO+cTzSvOdc1ALVKAZ1ahVKdCuGoAFGSIEmJ2ZVxEdi6Xove4QiUKiXUikQZEoVCAZVKgWjyTbWU8nuOb5YLX0dHB44ePco6kUQLJErAzbGpT6/f+iRxL1UAKNGqoFErISZngUsSEJcAURCxZb0ON4ajUCsBpVIBhQJQKhQo0SoRioiIxEXEhfR759BYdDlfGuVAZWUlOjs7UVFRIXcolGeFkoDMxIQkFYKJBFTH62/i7Xd/gYrNm2B6+HO4ddcufOmLX8CXvviFyX1DoRAuXryIixcvYWBwANeuXsdwcBgjIyMYHR1FOBxGJBJFNBJBNBbD5k2bMDA4CK1WC61WixKdDiWlJVi7di3WlZdjw/r12LFjByorKlBVpYden94LoL9/AL5fvoc33zyHy1euQhDiEAQB8Xjh1loOhxP3l7MdHXjjzXPYuWM7HnhgL3bv3o2HHnowbd9AIICengD6+vtx5coV3BwexkgwmPhZhsKJmY3RKKLR6NTPUqOBVqeDTqdFSUnyZ7luHdaXr8e27bdg86bNuPXWXbj11ltRWlqadryrV6/izXPn4P3Zz9HfP4hoNApJEieXaxcinp+UC0xEFoiWlha5Q6BFigsS4kJ8xmYHV4eSn2aJAvi2mGj5NDY2orGxUe4waB4kAKGogFA0+x/eE/fRjFwjRgtvsgARzaJQE5CZmJCkQiBJIiLhMK5cuYp/+IEbKpUKsVgM1VVVuP3221BTU42a6mrs2bMHe/bsyUsMV69dw/nz59HVdR4fd3VBkkRIEhAuwNl6cxEEAYIgoPvCBVy9di05OUSJ3bW1qK29Dbfddhv0+unJrVyJx+P4uKsL3d0X8Mkn53GhpwcajQaCICBShLP1eH7SUjARSfNicvjgm8c2IiIiIqJUxZKAzMSEJBWK1ETVx11duHT5Mn7287MYHx/HbTU1UCqVqKysQEVFBTZs2ICKzZuhUqmg1Wqg0Wig1Wqh0ST+HY1GEYvFkjP7YojGooiEw+gfGMDAwCBu3LiB8fFxXLgQgEajgUKhwHgoBElaOau2UhNV773/Abq6PoEkSYlEWrUeZWVluOWWW7Bp00Zs3rwZJSUl0Gq00GqnfpZarRaxWGzyZ5n4bwyCKKC/fwA3h4bQPzCAvr5+CJKI7vPdKCstgyAKCIUSDVVSaxwWM56ftFBMRBIRERERUc4VawIyExOSVGgmElkA0PXJJwCAjz7+GCqVChq1GlqdDtFYFJKYmLkmiomvDevXYziYaCKnVKqgTHaHVqpUiMXiiMWikFJqRsXiKyNRNhtJEjE2PtVg5eOuxM8T770PrVYHjUYNURAgQYIoAqIoQJIkrC8vx83hYSiVymSzFSUUykQTmmgkimg8DjFjifXo2OhyvjTZ8PykuTARSTQP3/nTh2DYUT5te9e1EfzuCx1LHv/7T9ajdtu6tG3+K0H8/l+/vuSxiYiIiJbTSklAZmJCkgrdxPLjmRpzDA4NpXzHunlziUYjiEZn/1mKYvpMvHCIy4JnwvOTJijlDoASDh8+jOP/P3t3Ht5WeecN/3u0e89iO4mzyDE4EbSEKHQI4FA3ZKbugrCBtoOnw/uaJ4Tk6nRqFx4KQ19cMLSTgekz1izXBEImftppPTOF1q46UNMxRjRmCYtZg8DBsRJn8xqv2s95/ziyLMmyLa9Htr+f6zLB0n3O+Z0j6Vjnd373fT/zjNJh0ARiJSEBYN3KJNz0+TWzWvet127A+tXJcW+TiOJTX1+PkpISpcMgIlo2Pvv1T9F4jwmnG38GYOkkIKNFJCR/shPepn9ROCIiIqLFg4lIollINWhg+ULOrNbxl1/MRbJOPUcR0UIoKCjgjNlERHOsq6uLM2YvUsslARmNCUkiIqLpY9dsolm68YqsGS+7KTMZOSsNcxgNERER0cJ54xELRrpOA1j4BKRflDDiCWDID9R90I1kvQa5K3RYv8KAFN3C1VuEJyRdJ5uRtO+XC7ZtIiKixYaJSKJZcvtEXL9lNV77tGfay37rhk3QaVkNSUQEyENV/K/dm7EpKyXi8bO9LmRn6OHzizh5YQhNH3bi35raFIqSiMINnWtd0O25fSKGfcCw149AQARUaogBeSyxIY8fvSN+vNMxCL1Wg00rDdi4QovsVN2CxCb5vUDXZwuyLSIiosWKiUiiGRBFCSqVAABIM2jw9WtyZpSIvPXaDdAE1xO+TiKi5ebod3ZiS04aUg3jv5qsX5UEANCqVdhmXIHPb8rAHQWbMOTx4w/vX8C/Npxc6HCJaIGIEjDiDcjJR48XKpUaoiiOzZwaiJzQwO+Xf/d7fHBc9OOzHjUCgQDWZRiQu1KP9Rl6aNX8vkVERKQUjhFJNAPRCcOZTFizyxTZpZtJyMWjubkZu3btUjoMoiXj9Z/8GXbkrYyZhIxFJQhYs8KAy9ak4u6b8vA/lbvnOUJaCFlZWeju7lY6DEoAXr+IS+4AOvp9aO9xoXskgCG3F5Ikz7oaSkJOQZIkeH1+BEQJHX0uvHF6CL96txO/O9GLDy+M4JLLN897QkRERNFYEZkgDh8+rHQINE2Dbj/SghfNoghsz12Bd9svxb38t280hi66B11+pCXx40g0l4qLi1FcXKx0GDSF3z34RSRFTdg17PFj2O1HRrIWapUKnQNuZKcbEBBF9I/4kWJQI0UvnzM1ahWy0vWof+BGFP/dH5XYBSKaAyNeEcN+YNjlhSQIkABIoghATj7OBV+wWvLSiBfve/z46IIAFSSsX5kM4wot1mfo52Q7RERENDFmPohmSBNWwZhiUOMr23PiTkQm69W49vJVY+tiFyEiWiQGBgbw1FNPoaioCNu2bZvVuvb/2WVYvzo54rGLl9z4o6MLP3+lHQMjPri8Abi8ASTp1EjSqZGepMX/U5iLXVdkYU3G2GRfWel6fG3HOjz/zvlZxURECyN8ohmXxwe1Wj2WcIyz4nE2xIAIMfj/bV1D6LikgdfXh+x0gyIT3hARES0X/OtKNEP//c65UNcglSCgaPvauJe9becGBER5WVGS8N/vnJuXGImI5lp6ejouXryIX/ziF/jpT3+Kzs7OGa+r8MpshI9K4fGJuKP6VTz27Edo7xxG75AXLq+cmHB5A+gd8qK9axhVz36E/U+9iWHP2NhwKXoNvnn9phnHQkTzz+0T0TMi4vQlL870edDjluDyyN2j56rqcaa8Pvl80jngxjvnRmD7sAu/+aAHb3cMo3PIq2hsRERESwkTkUQz9NzrZzDsGfvSrNOosGVdWlzL/sWuXOiDs2WPeAJ47vUz8xIjEdF8MJlMcLvdcDqdePLJJ/GLX/xiRuu5fG1q6P8vjfjwD7/7BL1xXvCf6hzGz+3t8PjGzsPxnoOJaGGIEjDkCeDiUABtPS5cGPKj3+WFzx+AKEmh2a4Tjd/vh1+UMOzxwXFxCC9/NoDady7i5c/60d7rhi8w/xWbRERESxW7ZieIffv2YefOnbj77ruVDoXidKJjAC5vIDTOY5JOjS9fvRafnh+cdLmtOenISNaGfh/xBnCiY2BGMRgDrfje956f0bI0c+fPn0dbWxu+973vKR0KTaKtrQ0ff/wxvv71rysdypKk0Wjg9/vh8Xjw1ltvwSymokVbMK11dA96sH6V3DXb5fGjttk5reXfOdWHb1y/MXRjR6/h/VUipXn9Ikb8EoY8Irw+P1RhXa7nsupRoxJg0KqQrNciSSvAnJMGUQAuDPhwsd+FrmEfRryz397ohDcA0NHnwsVBHwKBfqQnaZG7yoANGVqsSNJOsRYiIiIaxUQk0Sw8+/oZ3L0nD1q1CmqVgK9fk4N//n3rpMuU7tqEFL180ewLiLOqhnSq8/Hbf/jrGS9PtJTV19fj6NGj+Md//EelQ1lynnnmGXzwwQcAAL1ej+3bt+OJltXTXs+q1LGJIfRaNQ7+xdV48Jfvxb38G6096B30IDNNXs9nF4emHQMljq6uLqVDoBlaiIlm9BoVDDoVUvU66FQSIAgQBBUEBAAJSNXLNyLSM/XIy0wCxABECeh1izjXN4LOQS+6h2c/SzYnvCEiIpodJiKJZqH+eAfKvrQZwWIcrEjWYcPqZHT0jEy4zM07ciAI8qBo/oCE+uMdCxEqEdGccTgcMBgMyM7Oxp133ons7Gw80fL7aa/nREc/rsmTJ+5alarDzi2rUfeDG1HyRPyzX3/z/7w67e0S0dy54NJgZGQIKrUagl6PgMcLSOLUC04iutpRIwCSIECAELZuCZBiJzk1EDE6AO3aFDXWpGTAL0nQChIGvOKcVU2KARGioIJGr8PpPg/ae4aRuSIDJTNeIxER0dLHRCTRLJy/5EZHzwjyg+OSadQCvrxtLf6tqS1m+y9fvRZevwhtsPtgR88Izl9yL1i8RESzNTAwgDVr1szJrNl1x8/iivUZSA5Wia9K1SFZp8bzPyzE7985j0/PD+LkhUGcvMBKR6JE9e2ff4jBzg4MdnZgqPMMBjpPo+/MSQycb8dQz3l4BvugNSRDpdYgEPDD73GPS1ROVe0IAIIkIfTLNAkQoQ1OjJWuU02valJQQaM3QK3WQAz44XOPQJ+2Eqmr1yF9XS5Wbrwc6dmbkJq9EWnZG5CWvWFGMRIRES0XTEQSzdJ/vnoa/9tigkGnhk6jws1fyJkwEfmXX8xFSnBMSZc3gP989fRChkpENGvp6em4//7752Rdv33rLL5TdDmS9Umhxww6NdbrkvCXXzSif8QHvVaNIbcPl4Z9eOnDi3j1k+4Zj6tLRPNjLAF3XcznJ0tUrtP7oRICcVc7zpWJqiZdfgENbS4mGomIiOYJE5FEs2R76xweLLky9Pv6VUlYnaZDz2DkzK+ZaXpszRmb0VWrVsH21rkFi5PmTnNzMx544AEcO3ZM6VCIFr3ymhY8dc8XkJ6khTqYFADkMSOzM+RKyYxkLdavArbkpOOu3XnoGfLghXfO419fPKlU2DQPsrKy8PHHHyMzM1PpUGiOTZaobLzHFCx0VHYm6tGqSa1Wwv/7f99VNBYiIqKljNNLJojDhw9zxuxFyu0L4J1TvRGP7blq7bh2t1+3MeIi+522Xrh983u3n2g5Ky4uRl1dndJh0BQ+OTuAW588ht8c78D5PhfESXIRWrWAVIMGxswU3PNnl+OFhwpx67WsTiIiIiIiWiyYiCSaA7XHTmPILc+iaNCqUfwn68e1+fMbNkGrlj9yQ24/apvZLZuICAD6hrx47NmP8JUf2/F/m9pwunskdE6diEoAclYl4X/fYsLRv9q5QJESEREREdFsMBFJNAde+vAiDNqxj5MpJx1JOnXod/PmldCHPW/QqvDShxcXNEYiosWg+vlPYTn4Ch765ft45UQXOnrkpGTPoCdmcjLVoMGOzSvx+k/+TIFoiYiIiIhoOjhGJNEcefG9C/iqOQeCAHj9AfzptjWhMSC/faMRqcFJaiRJbktERBOzn+iE/UQnAGDj6mRsWJ2MjZnJ2J67AtfkrUR2hgEqYWy4iySdGv/9N1/E1//2FaVCJiIiIiKiKbAiMkHs27cPzzzzjNJh0Cz86rUzoWqdZL0Gt1wz1j37ivXpof8fcvvwq9fOLHh8RMtNfX09SkpKlA6D5sCZnhG89mk3/uvV03jol++j6HE73mjtxaArskJy/apkPPLNzysUJRERERERTYUVkURz5J1TfRClsVkWNmQmAwAuX5uKFSm60OOiJLelxaugoIAzZhPNgS9fvRa3XrsBK1N1uOMfXp3WsgeefhNfNa/D92/eijUZBgCAIADXb82EShAizse0OHR1dSkdAs2Q3zUI/8gg/K4B+EYG4R8ZCD42AN9wP7xDvfAN9sI3dAn+kX74XUPwu4cR8LqgTUqDzzWo9C6M0afB9eQXIWkMEPQpEPQpgCEdqqQVQHIGhORVEJLSAUMqBH0aBEMqYEiDoE8LPpaq9B4QERElNCYiieZQ/Zsd+PaNuVCrBKxK1eHbu4zoHfaGug/6RQn1b3YoHCURkfJ+dV8B1q9MQopBg0vDXnxuYwY+OtM/rXW80HIeoghUfutzSNXLX2lWpeqYhCRaQMerSjB8oQ2CWg1B0EAQAAkSJDEAKRCAGPDJ49JMQIR7AaONg2cQEgD4PJBc/RiNXAxvo9ZCUGkAlQoSVBAgQpJECAE/sHozku7++YKHTUREtFiwazbRHPrN8bNwewMA5Nmzv3nDJmxcnYwknfxR83gD+M3xs0qGSESUEIyZKUgJjp2r1ahgWp82o/U0vHcerrBJbLoGEiypQbTEDXY4IPq9CHhc8LsH4XMNwu8aQsDjguj3TpqEXLQCPkg+FyTPsJy49AwDXhekgA9S56dKR0dERJTQmIgkmkNtF4fQO+QN/Z6Vrse3btgEIVgR2TvkRdvFIaXCIyJKGO1dY+fCFL0GXzPnzGg9RVevQ7J+rINHZpph1rEREREREdH8YCKSaI796rUz8PjlDjypBg0ykrUAAI9fxH+9dlrJ0GiONDc3Y9euXUqHQbSone11Rfyem52Cr5rXTWsdq1J1uNeyJVRZCQAnLyTQWHM0LVlZWeju7lY6DCIiIiKaR0xEJojDhw/j7rvvVjoMmgP1b50Fwnoh6TTBj5kE/Patc8oERbQMFRcXo66uTukwaAK/fessPL6xUdcy0/T44W2fw6F7/iSu5UsLjPj9D7+EtSuSQo+JEvDKCU54QkRERESUqDhZDdEcuzTsxafnB3DVphURj396fgCXhr0TLEVEtLw0fdiJ830uGLNSEBy9AmlJGuzMX4UXH/4SAqKED5z9OH6yByc6+nGiYyA0y/amzGSkJWmh10beTz3bM4JDfzipwN4QEREREVE8mIgkmgf/0Xwal61JDY1bNuLx4z+a2S2biChc8RN/xK/uK8CGVclI1qsBACpBwJoMeZzHnJVJKDBlwh+Q4PEFkGrQRHTDDufyBnDzwVcWLHYiIiIiIpo+ds0mioPj7MCkv0f73dvnIsY/O9vrwu/enrxb9nS3QUS0FHzzp8149vUzGHT5Yj6fatBgRYoWa1YYYiYhh9x+vNPWh+se+sN8h0pERERERLPEisgEsW/fPuzcuZPjRCaoP/+HV6e9zDd+2jzv2yCiidXX1+Po0aMcJ3IR+KnNgT86ulD5jc8hO10PvVY95TKiJOFCnxtP/89n+M3xjgWIkoiIiIiIZouJSCKiaSooKMCxY8eUDoNoSTne2oOb//YV7DJl4avmdcjNTkFuVgq0agEatQoXLrmRnaGH1y/is4tDaPqgE//W1KZ02DSHuro40RARERHRUsdEJBERESWMY44uHHMwIUW0WKRt2IqRrjMQ1GpIAT9ErxuSJCkd1gISIOgMgEoNKRCAsHKD0gERERElNCYiadkLeIah0iVDGJ22dbGQJAS8I0pHQUQEQD6XqvUpSocxbZIkQeS5lGjGrq2sh7vnLFzdZ4P/dmD4XCtcnafhvnQBvqFLUOuTF3GiMjLRCJ8LQlIGkLYG6pUbIGRthrAiB0JGDlQr1kHIWKd0wERERAmNiUha9i599ibSNl4FbUoGBNXi+EhIoh8+1wAGne8DuF3pcIiIcOmzN5Geux0aQxoE1dRjPCYCSfTDN9KPwdMfgOdSopkzrF4Pw+r1Ez4/WaISogjfSAJN0GdIl29OM9FIREQ0LxZH1oVong12fAhNcgZSsy+DSp+UsAlJSfRD9How3HkSvuFLSoezbDU3N+OBBx7gOJFEUQac70GfsQYpay4DBCGhz6UBjwvDnZ/BP9KvdDgUlJWVhY8//hiZmZlKh0JzbLJEZeM9pgWOZgruASQ99IbSURARES1ZiXmFsAwdPnxY6RCWrfxN2Wg72w3/SD8utb8DjSEdyWvyoNGnQFCpAEGlbICSBEgiAj43hi+chG9ETkCqVQLy1mcpGxtRAisuLkZxcbHSYSwb+Zuy8dmZLnj6L8LTfxGGleuRtDIHglafGBWSkghJEuF3D2PkYhv8brkCi+dSIiJKFB6PRM9BlwAAIABJREFUB3qdHlhkI0YBcuyJxuPxQK/XKx3G9EmAx5ugx3MRvj8lSYLX61U6DAqjcIaFSHlNh+5F4Y4tSE82ABLgdw9gwPkuLp16C0MXTsI30g9JkiBJ4oLFNLotv2cYI12n0HfqbVxqe0tOQkoSMlIMKDTno+nQvQsWExHRZJoO3YudV21GapL8hd/ddxZ9bW9i8MyH8PRfgBjwyePCLeDQcJIkQpIk+Eb6MXThJC599jYGnO/KSUgJSE82oHAHz6VERJQY2k+dwohrCKIYUDqUuIkBESMjI2g/dUrpUMZpP3UKrpERiIGFu46bLVEMYHhkKGGP52J7fwbEAEaGhxPyeC5nrIgkAvCzR8vw+gdteOzI82g714PBYTdEnweeS+fhuXQeAKBJSoMuLQu61NWASgWVOvjxEdSzmuhGkgKAKEEKXp37hvrgHeiCd6g7uiXSk5OwPnsFfrTv69i1/fIZb5OIaD786uA9eO6ld/DIU7+D1+/HsNsH38ilsUpurR7atCzo0rOg0cqTPwCAIKiAWZ1HJUAUAUGCGPADogjvUDe8g93wuwbHtU9LMSAvZzUe3vs1XHdV3oy3S0RENNfOnO5AclIystZkQ6fVQaVOzNohUZRv9nV2XsRAfwKN8xrl9OnTSM9IR3b2GgiCAJUqQY9nQITX60VXZydGXIk7id5ieX8GxAD8Xj+6OjsxPDKsdDgUhYlIoqDrrsrDf1d/F+9+cgaPHXkenzgvYsTlhTcQACDB7xqE3zWIkc42QKWBWmuAWmeQ/zWkQlBpoNYlQVCrgxfVKgiCANHnhUqrC1YCBeQ7clIAos+NgMcFv3cEoteFgNcF0R9Vgi8Bao0AvVaD3HWZeOSer+OGbZcpcnyIiOJx+007cPtNO3DU9hpqbK/iQk8/hl1eQBAQ8HkQ6O2Au7cDgACNPgkqbRJUuiR5OAy1Vj6PqlRyd25BgCCows6jIiBJkMQAJFGE6B2BKAYQcA8h4HMj4HUj4HMDoj8sIgmAAJ1ajeQkHbYa1+DhvV/D9q0bFTpCREREsRk3bcKZsx0YcY3A2d4OQ1ISsrKyoNProVapZlX8MFdEUYTf70dfXx8u9fUBAARBwKaNGxSObDzjpo04faYDA/0DGOgfwIqVK7Fy5UpoNFqoVMofS0mSEBAleD1udHV1we1yAQBUahU2rk/E45ng709Jkrth+3zovHgRIyNyQlelUmHjhsQ7nssZE5EJYt++fdi5cyfuvvtupUNZ9rZv3YjnntiPC939eOntT/Bc4zt4x9EBQQV4fX4AAiD6EfAMIeAZmvsAJAlajQZ+vx9bc9fi9t1mfLXg88jNWT332yJawurr63H06FHU1dUpHcqydJfletxluR6vvd+GZxvfwf8cP4HBES/8ARGiKAGCBL9nBPDM111/CTqtBpII7DBtwO17duCma7ZibWbGPG2PiCYijQxCGhmANDIADPdDGuiBONwPuAaRkpEFz8gARFGEGPApF6RKI/9oU+B9sQbwe4HkdKhSV0BIz4SQkhH6gXYRjjlHi8LTTx/C/1f5I3z80QkMDQ/D7XLhzOnT0Gi1SElJQUZ6OgxJSZAAqBYw6SNJEkQxgKGhYQz094cSPACQnJKMyy+7HE8+cXDB4onX008/hft/8CBOfnYSI8MjuBRMniYlJyMjIwOpqSlQqWbXu226REmCAMDtcqF/YADDw0Pw+8ZuoKampOCKK6/E4489umAxxSsR35+SJEEQBHg8XgwM9GNwcBC+sPEgU1NSccWVJjz+WNWCxEPxYSKSaAJrMzPwF0XX4i+KrgUAvPdpB55v/hAvvnECLo8f/UPyH2CXxwd/QBwb92zKc64UbCQBkgCDXgOdVg2tWg1RklC4YwuKC7dhz7VXLOgXDIpfQUEBZ8wmitP12/Jw/Ta5+3NHZx9eaP4Qv/3j+zjX2Y8RtwcQBLi9Pvj8wfGbJADC6HlyIvL5c7SJRq2CQa+FAGBFSjIMBg2+vPNKfK3g87h6C++ALxZdXV1Kh0AzNFmiUfK6AY0GgqCSq5n9PsgfdHnM2O3XFWPwUhcG+y+ir+cchi51QhQDEFQqBPye+RtXVmsAAgEAApCSCVVqDqBbAcGwCuJgcHgc1yDE3nOASg1BrZXbigG5WtuQIicmMzIhpK6EkJw+lqgkmoXHqx7F+x98gMOHj+Ds2bMYHh6G3+dD/6VL6L8kD3ViMBiQlp6OlNQUqCFApdEAEiCoVbOaR0ROOEoQBAmSKMHn82NgcACDA4Pw+yNvFCQlGaDVanFg/37s2XPTLLY6v5584iAaG1/Coaeegs/ng8vlhmtkBK5gMlWj0SItPQ3paenQaDWhSklBmF2FnwS5elQAEPD7IULC8OAQBgcH4Xa7x7VPSUnB+vXrsW/fXmy76qoZb3e+Kfn+FEUpVPUIARgZHpaTuUPji4NSU1OQlZWN/fv3wbx9+yy2SvOBiUiiOF29ZQOu3rIBf3PXV+B2e9F2rgfO8z1wXujFJ86LGBh24bOOLrjcPri9Pnh8fni9fqxZnY6LvQPQabUw6DVI0umQbNBiQ/ZK5G3IxJZNa5C7bjWMOauRw0odIlrCNmSvxL5bb8S+W2+EJEloPdOF9nPdcJ7vhaP9Ai4Nj+CzM11we/xwebzwev3w+ILn0Z4B6LUa6HQaGPQ6JOk1uGx9NtJTDdhqlM+jm9auQl7OahgMOqV3lWjZOP7gTVCrVFiz8UqsXncZBFFEeKIRkACvb9J8YtqKLKStyEKO8fMAAK97BIP9nejvu4D+3rMYGeyDRqufedWkSiOPSev3APoMIHUtVIZMIGkVoDZENJUiIpUvehEQIYVtVxAESENuSEO9wMVTgEoFcbADUu9JCIKIpO/9dvoxEoXZdtVV+Kd/rMYnn3yCw88cgdPpxIjLFaqcc7vdcLvd6OqUu51qtTpodVrotFro9Hqo1GrodTq5qEFQQaUSIAgC/D4fNFptKOEoSRJEKQCf14eAPwCP1wOfzwuvxwfvBLM2JyUZsHp1JkqKb4HFcvNCHpYZ27PnJuzZcxN++1sbfmuzoau7J9QN2u/3oa+3F329vQAAnU4PnU4+nnqdHiqNfCxHE5OTHUtJEuH1eBAQ5X99Xh+8Ph98Pi9EcfyEORqtBkmGJOTmGrHv7r3YunXrgh6XmZr/96cISZQgSpI8FIDPD6/XA6/XA4/XB7/PC5/PPy4utUoNrU6H9TnrsH//Pbj66m0LfWgoTkxEEs2AwaDDlXnrcGXeOqVDISJalARBwJZN2diyKVvpUIhoFgZ7z8n/9nfi03f/gLSV67AmJx+r1hih0czspoDOkIzVhlysXpM7tp3pVE1q9HLlIlRAShZUyWsgGFZCMqzGXJRYSpIESfQBQ+eAgXZIw92AWgMEvPNWwEnL09atW/H3Tz6B7u5uvPXW2/ifxkY4HA4AKvh8cvdTURTh8bjh8YyvspsLgqCCWq1GcnIyrrtuJ/50z02LNsFzyy0W3HKLBe+//z7+8D+NeP314xgZGUEgEJDHoQZCCa/5otXqAIgwmUz40z178IUvXIPMzMx52958SoT3pyY4pNnm3FzctGc3dhUUICcnZ162RXOHiUgiIiIiIpqVQPCic6D3HIYHu/HZiWNITluN7A35yMzOhVaXNKv1T1U16QoASclpQMqaYLXjakAzVu0ohf13xvweSMMdQL8TcPcBKvVYpWTAO/myRLOQmZmJr3ylCF/5ShEA4NNPP8Wx5ma89uob8Hg8GBoegiQBHo8bgUBgxtvRaDTQ63WQJLnyMSsrG4WFN2JXQQGys5fOjcNt27Zh2zY5mdrZ2Yljzc2w2/+Irq5OuFxuCBDg8Xrg94+vuouXWq2GQa8HBAFpqSnQ6w247vqd2FVQgC1btszVriSEhXp/GvR6qDUaaDUaiJKEa3bswJe+VIidO69VfqIcmhYmIonmkb3SjApUo6WqcFZtKLE0NzfjgQce4DiRRERzKCsrCx9//PGirQyhMaNJyaH+TriG+tD+8RtISsnAmpwtWLV2M/SG5FlvI1bV5Lzwu4CBsxAHTwHeQQAqQBxNPo7vakm0ELZs2YItW7bgf911F9xuN86dO4fz58/j/PkLaHc6MTQ8jI4zHfC43fD6vPB45O7BmatXo7unBzqdFjqdDjqdHgaDHhs2rEdaaho2b96MdevWISdnHTZu3LgskjvZ2dm47dZbcdutt0KSJJw5cwZnz53D+XPn0d7ejsHBIZzp6IDH4wlWS3rh9fpiHku9Xo+NG9YjJTUVuUYj1uWsw7q1a5GTkwODwTB1MEvEbN6fPb290Gq10Ov10Ot1MOgNyF6TjQ0bNmDTpk1Yn7MO69blICuL3xUWMyYiE8Thw4ent4CzBqUlVjhgQXVLFZZyCsteaUaFLfIxU3kdasuMk7aBqRx1tWUwRjzoRE1pCayO0d8nOX72SpjHrTS4VHULFi5vGIw5f2bJSmdNKUqsDky6r2HHJfrYJqp4X/N43j+0NBUXF6O4uFjpMIiIlrVAsGJweLAH7Z+9BefJt6AzpCBrfT4y1+TJVYyJxjsMabgDUn874HPJE2gFRiujZl7NQzQfDAYD8vLykJeXp3Qoi54gCNi0aRM2bdqkdChLBt+fFItK6QBoZpxNDXBYLLDAhka70tEsAFM56lpa0NLSgpa6csBagtIa58RtWupQDitKzKUYaxZMtiGsXTVQUVoDZ/T2AKCwKriusZ+6chMAE/Jy53Nn54HJBBNsOBR9zEbZj8DqMMFkmsNt2ithjjj+82DK1zxGu2oLHNYSVC6Hzw0REVECEf0+BAI+uIYvoeNkC9577dd465X/hPNkC4aHehWNTfL0Q+o5AenU8xBP/wHoPgF4BuTqx8DMu2cSERFRJCYiFyUnmhocsOypwh4LYFsWmcgwxjIcsACOhqbYCUS5Ecpq61BucsB6JHh8nE1ocACWA2EVc4VVaBlXNTkRO45YHTCVH8TCFtMZUVbbMsuu20U4UG6a4Jg5UXPIBlP5ARTNYgvKi/Gax1K4F+WmZfi5ISIiSiCi6EfA74PHNYizp97Fh2/8N958+Zc49cmbGBroXpgg3H2Quj6A+NnvIJ1pgtTrgOQdBgI+SCKTj0RERPOBicjFyNmEBocFewqBQjkTieiUir3SjNIaJ5w1pTCbzfJPsPIv4rFxZWF2VI4+F7aMvN0alIY/F/189LpjrH80LnvlxG3mjhFlByyA7ZBcIWfcjHzMPAFlr6yADRYciMhCTnK8wsR6HabTxl45dpzkdpVhr7kTNaVTH8fc3UUwOawYl6NzNqHBYULR7txYez35/kW9J0ZDcNaUBru1O2AtiXwutD+h5Soj3r/j3iPTen9EveaTMC26slYiIqKlSRID8Ps98HpGcO70+/jozRfwxks/x2eO1zFw6eLcbszVA6nrXYgnfwux4xVIfZ/K40AGfMGZtomIiGg+MRGZIPbt24dnnnkmrrbOpgY4THnIBYDCPRN2z3ZYS1DSdiDUndnksKLEbI58zFYRliByoqb0EPLqorq6jjYwlqE21A22GhYApqLdoWpCeSzCfFSHt7FVjEskOawlOJRXFxHDuG7Wk7FXosIWVdk4kdw8mOBAWzsAFGJvuQmwVYxLfsW9zerwMRanOF6jbBVjx7ylGhbHDNsEGcsOwAIbKkKJyQdhdVhQPVXFpHE3imJUAtqPWOGwHIhR5TnV/tlRWWJFfvXY641DcqLSWFaLlmoLABPKg8uPhheanCf4Pqm22MZ1j494j0y3EjTiNY8h2A29aDfHiFzq6uvrUVJSonQYiS90Q2Ga58VFKPImiPwT/fcnVpvYN5CCN4EmuKlCRDMkSvD7PfD7PLh4+iN8/M4f8Hrjz3Dyo2O41HduRquUXJ2QLr4D8eRvIJ5rhtR7Egh45JmuJU44Q0REtJCYiFx05G7ZYwnAXORN1M3UEja5SbA7c6zHxpY1oqy2NiwhZcTmfACtp8ZdgDlrDsFmKsfBUGO523Jkoq4QVdUxqtMs1WMThYx2s54waxQUTKKazWaYK1pRXjezyWKMZbVy8hM2VMR94Sh3XYalOmqbcR6v8GMeOiZRVazxtAkZfb4ClTU1eHDccZ9w72NUC9rRaAMse2ItPcX+OU+hNTquqbq5O2twyGZC+d6wd8necpgcDWgKP2gR7605EPH+sQGmIswmD1lQUMAZs2nJ4JjDCzDmMMWlq6uLM2ZTBEmS4Pe5EfB7cfHsJ/ik5SW89oej+OSDl9HbdWbyZYcuQDp/HNKnvwbOvg6pv00e69HvASAtzA4QERHROExELjbjqrmM2F1kiqsrapwbiOiKG3PSaGcw+RVekeg8hdZYk7hMVZ0Wr9BFYXAMwAenc7EXFddoZWcoITl5MlKuOIxMno2J43jF1IpTU+7AJG0Kq1BtAWxWKxzjEqSTKNwDCxxoCGb9RhPKMXcNwKT7N5rIrjDHPylNexscYd21zWYzzCVWOKLb5W+Oc9zOiUS95jGTCqxeIuKYw0qNOUy0dKTmXA5Bo53/DQWTkqIYQPe5k2j9wI5XX/w3fPxuI3ouBj/BQ2eBc69B/OQ5SBePQxpwQpICkAIeQFqA5KNGCyHrsvnfDhER0SLGROQiY2+MHHfPbDajxOoAwpJLs1g7Ks0VaC2vC+s2G6PVkWkmv+ZUsKov1liHsbS3wYF8bI51ZWgsQ20wGTnxtfdkE9TEd7zmhxOnRssRY1SsTkzunu6wHoF9dN/CutdHmnr/CqtGHw++J+OqBhrrrj32Uzt3EwBN9poDAIwoOzjV6060THDM4TjN7ZjDREvJzkd+hw1fLIVKo4OgVi/Ydv0+NyRJRO/FUzh54hUMn3gO4oW3IQ52ABCDlY8LRKWGoNZCu/02JO375cJtl4iIaBFiInJRkbvRmsISQ+EJoskrOuJZfSNsmGLsPHslKmwTVQfGqHxsb4MD8kXunIl71uPRLtV74ui2HFvsCWpGn4zjeMWK6lQrMGmibOo2oXEhg2N/PjiNcljj7iI5CVfZOPG+AdPav8KqsXFIQwni3DyYohvOVYXshGb/mhMtJxxzWIExh4mWoC13PIQbf9qMtV/4OtT6JEBY2EsMv9eDJLUoj/u4kAQB0CZBc2URDBW/h/bL9y7s9omIiBYhJiIXk0kSQ4V7LED0OHvTFZ0kCl6ghQWAygpb7OrAUDfd8Asyuf3cJ4VGu6NPNIYiEBq/K3wSF3vl+Nmoj1gnTpQ6a3Bo3AQ1YaY8XkERF89yFeK4YxJPm7Gog1Wae1FoLMPBchMc1gfj75o/OmmNbYrXZqr9s1dGJgXa2+AY1z0/Kuk4uu1D4a+DHZVzciEf4zWfqN2DVjgm7ZI+uebmZuzatWtmCxMlDI45vPBjDtNksrKy0N3drXQYNEOapDRcufcJXPfo88j8/I3QJKUqHdK8EgwpUF9WgKT9/wHdLT+CoF/a+0tERDRXNEoHQLLDhw9P2cYul0PGnmQjWMnS0ORE2Uz7uBrLcLC8ASUVZsj5JgvKy02wNoQCkB+3lsBsHV3IguoW+WKxsKoF1TCjwjyWrTKV16FlLicdGQ11dxFMVisO1exF4ej6HVaUjAUmXyTXhl1dFlah7lRpZBtTOepaYlfCOJsa4ADgCB2PMJZqtFRNcbxCm6jDgbYSmM3hyxZOu80oe2UFbKZy1AX321h2EOUNJbAesaMsrqtpuYuhtaJ1gsrW0WZT7F9hFaobzWMxA7BUt4wlHoxlOGCxoiK4vKW6BVWF8lhrKC0Jex1MKK+rnVmyeqrXfKJ2pnLUcSy3Ja+4uBjFxcVKh5G4gmMOlx+MHHPYaj2Emr2FczBcgjy8Q8T5M7pMenTM4eracWMOF+VGtc3Ngwk2+ebGbGILff6DNy8erMHuuM8HscYcLpO7mpdYUWFG6G8i0XJlWLUOV//1Uxg6+yk++fdHMHTuJPyuAaXDmjuGVKiyLoOu6AGosjkeJBER0XQJkiS9DCzd78w9PT3YunUr77AT0Zxpbm7GAw88wJmzaVGzV048wZapvC5UaWivNKMCkTdHpn5sbIzZiPW0Rt4EiLUeOanXgKK6qLFjg8m+/Gq5gjHeuMbtc3gM9kqYK2zBGyUTtBlbGOaKSRKNUfHR9GVlZeHjjz9WZOZss9mMo0ePYvv27Qu+7aXu0sm38cm/PwJ33wX4XYPztp3rczPmbd0A5IrH9DXQf+UBqDZePa/bosTz4x//GC6XC48//rjSoRARxSUpKQl9fX0wGAxKhzIOu2YTEREtOxxzGMCCjjlMtFytuPwa7HzEhs/tfQKGVTnQGBZXF2ZBnwIhYy10xVVI2vdLJiGJiIhmiYlIIiKi5YZjDo9ubGHGHCYiZG7bjYKDL2HLtyuhTcmARp+sdEiT0yVDSMqAtugHSPqreqgvL1A6IiIioiWBY0QmiH379mHnzp24++67lQ6FiGhJqK+vx9GjR1FXV6d0KAmHYw6HhboAYw4T0Zh1O2/Bup234MxLP8fJ5/4eAgQEfG6lwwoRNAYAErRfOgDNF/5c6XCIiIiWHI4RmSCYiCQimltMRBJRvDhGpHLafvfPOPXbf4ag0ULy+2a8nlmPEanRAn4fNF/cB90ufh+nSBwjkogWG44RSUREREREFCXv5u9iz9MObPhiKVQaHQS1emEDUKkhqLXQbr8NyQ+9wSQkERHRPGMikoiIiIiIFLXljodw40+bsfYLX4danwQI83yZIgiANgmaK4tgqPg9tF++d363R0RERAA4RiQRERERESUATVIartz7BPJ6z+OTXzyCSyffht81NOfbEQwpUG0wQ/eV+yGkr53z9RMREdHEWBFJRDRNzc3N2LVrl9JhEBEtKVlZWQk/pjctDMOqdbj6r5/CNT/4JVZctgOapPQ5WnEqVBuvhv4vD0P/rZ8yCUlERKQAJiITxOHDhzlRDRHRHCouLuZENWHslWaYK+2zbrOURO/vctt/okSXun4Lrnngl7j6r/8VqTn50CSlzWg9gj4VQtZlMHzz/8Bw59NQZV82x5ESERFRvJiIpGXJWVMKs9kMs7kSE19yOlFTaobZbEZpjXM6aw8tN/E2otuYYS6tQfRW7JWxHyeiZcZeGXm+CPtZ2LxZ8Nw1443Gc35cWuyVMV63ic73Ue2m97eHaOlacfk12PmIDZ/b+wQMq3KgMaTGtZygT4GQsRa64iok7fslVBuvnudIiYiIaCpMRNLyZTLBBBsOTXShZz8Cq8MEk2k6K3WiprQEVpSjrqUFLS0taKkGKiIuOu2oNJfAml8tP9/SgpaWOpTDipJlcFFORDNQWBV2vpB/6spNAEzIy1U6uHjFcX60V8JsLsWSy7+ZwvY5dL6PsZ/h7aotcFhLFjjRTJTYMrftRsHBl7Dl25XQpmRAo0+O3VCXDCEpA9qiHyDpr+qhvrxgYQMlIiKiCTERSctYEQ6Um+BoaIpRcehEzSEbTOUHUDSdVTqb0OAALAfKYBx9rLAKLbVjv9srK2AzlaOuqjBsQSPKaqthmSwxSkQUYscRqwOm8oMoM07deu4YUVbbgpaI81ec4jg/Lg9GlNXWodzkgPXIJFnGwr0oNwG2RmYiiaKt23kLvvgPbyDv1u9DpdVDrTUAAASNAYJGD92XDiDp+y9C8/mvKBwpERERRWMiMkHs27cPzzzzjNJhLDu5u4tgclgx7lrQ2YQGhwlFu3MjHo7dVdqOytHukcbNyMdkF452NNoAU9HuGBfehdhjwQSJUSKarvr6epSUlCgdxrywV1bABgsORGQh5XPRZN1/gfChKWbWJnwcRbldeCX3JF23pzg/OmtKYa6wAXDAWhLd7XzyfbNXyt2YI7o3x4hhquen2v8p/wbEzYiyAxbAdmjK6k/T4il5JVpwG2+6E7v/5T1s+urdcEEH9Q13IukHr0DzhT9XOjQiIiKaABORtLwZd6MoRsWJ/YgVDsuBcZVGhXKmEE0RV8CNsMGCPYUAUIi95SbAVhF77DPnKbQCyN8cu/4nN88EONrQPqudovlWUFCAY8eOKR0GLVf2SlTYAEt1FcbqEp2oKT2EvLqo7r/R2TFbBUraDgTbVMPimGGbIGPZAVhgQ0UoMfkgrA4LqmNWTE5+fjSW1aKl2gLAhPLgfsiriW/fHNYSHMqrk9vUlcNkq4gYY9FeaUaFzYLqYNfnalSgwhYjzEn2f+q/AdOQmwcTHGhrn+D54PAgRbuXT71oV1cXMjMzlQ6DFqG8m7+L1Q/9EbpdnPiRiIgo0TERSctcrKoUuWrREuuqsnAPLHCgIewq1C43DiUEjGW18kUwbKiIORnDxGO6GTfnz3aHiGhJk4eNgKUakbk+I8pqa8NunhixOR9A66nI6j1LdVi36kJUVVsAW2PkOSqeNiGjz1egsqYGD1odUQnSSFOfH2MuFfe+1Y42MpbhgAVwhLJ8wWr08r2h2AqrWlBtibG5yfY/jr8Bs+KwomS0ErPCBpiKsIzykERERES0DDARSRR1YemsOQSbqRx7Y15VyhU9oe7TzhocipW0NJahdrQqBzZURFxsT1wB4zzVOgc7RERLlVxxaEJ5zBNUZPflmNV+MbXi1JTjQUzSprAK1RbAZrXCMS5BGsOk58eJzHTfgqaoRp/a6P7H+TcgblE3pmJOasNJzIiIiIho6WAikmj0wtJ6BPbRCSBijuEoM+4uginYNc/Z1ADHZF3yjGWoDV5sN4aNIdk6wRV9e5sDMOUhd/Y7RURLzmQT1NhRaa5Aa3ldaFbtmNV+88KJ0D2U6CrFyUSfHyek5L6NN62/AZNpb4MD+Zg4N2pE2cF4jg8RERER0eLBRCQRgheWsKGxsjHGBBDjGqPI5ID1SA2aGhwRXf2mlos800QT0kw2kQ0lkubmZuzatUvpMGiZiT1BzeiTjbBh+uMJylXYkyXDpm4TGheyrhwmhxUPTjX7ymRy82CKfmyG+xYheBNoJsaigTfKAAAetUlEQVTt/6z+BoTWGuxiP0ddupeIrKwsdHd3Kx0GEREREc0jJiITxOHDh3H33RxgWzGjk9bY4rkwNGJ3kQmwWcdPJGCvHD+b6xFrWMVMsMJl3OQPTtSUVsBmKsfByZKgRBS34uJi1NXVKR3G3BjtAjzR+IvRE58EJ7QZx1YRNlu0XGE57pwXT5uQ0SrNvSg0luFguQkO64OxZ4Ke8vw4Kmr4inj3bVKF2GMBbBVj3ZzlyWtiNJ1y/yf5GxAXJ2pKSyaZ1Ces3YNWOCYcKoSIiIiIaPHRKB0AUWKQJ62xVrROMPZaVOuyA7BYK2CLnkigsAp1p0pRYraOPWYqR11L2ViVo7EMtS2bUWmugDnsIthkscBks6LE3IbqlrBkg8MauT5YIp8noiVP7gIMOCrMGJc7s1SjpaoMB8sbUBJ63oLychOsDZFNTeV1ONBWArM5fNnCabcZZa+Ub6DUBW+gGMsOoryhBNYjdpRFLxPn+fGAxYqK4H5YqltQVRjfvk2lsKoO5a0lqAieeE3ldagrfxAlbZHt4tn/Cf8GTCT6PG6pRkttjGMa3c5UjrraMlbJ0+ScNSgtkZP64d8PnDWlKLHmj//OYK+EucIW/HxFrAg1pSVoKKoLTvw0mjQffX7y7x8xk/vj3sPBdeZPfF5RwrjYJznvERER0SxJkvSytIR1d3dLq1evVjoMWnJelh7evl2642j7nK+5/egd0vbt26WHl/Qnc3E7duyYVFBQoHQYRKSY+fsbsJxlZmZKXV1dimx7+/btUktLiyLbnq32o3dI2x9+WHo4+rtD+1HpjhjfJ0a/Z2wf/0RY+3bp6B3bpe13HJVC7/KXH478PcrLD0e1H13H9juksY9K8LH5/pLz8sNR252wofTw9ui45X1ZdJ/vuPeZZuLxxx+XfvjDHyodBhFR3AwGg+RyuZQOIyZ2zSaaibkYs2wCxrJatLREVykQEVHCmMe/AUTT40RTgwOWPVXy8APhMxuNDjvTaB/XHgBga4yckb29bWyoBGcTGhyA5UBYNWNhFVqmVaFrRFltHcpNDliP2MMea0mYakNnzSHYYEF11H4VVrUEq0KJiIhorjERmSD27duHZ555RukwKC7BSQbi7ZJHRIqor69HSUmJ0mHQksO/AZRAnE1ocMjJw0I5ExmWXDRicz6iZrNvR5vDhPLqcpjQilNhg7baG8PGyQ5O8GSb9ZTt8tA3sB0KjR1rrzSHjcMq/15a45QfN49/zmwe/alEdDSxnnfWlMJcYQPggLVEfq4y5m6EjXE7xV44a0rDthMZY8x9mGGb+d9nIiIi5TERSTRtwbv5HLdr2SooKMCxY8eUDoOIFMG/AfOlq6sLmZmZSoexqDibGuAw5SEXAAr3wAIbwnOHhXssgKMBTaMJR3sjbMjH5sLNyIcDDaEnnDjVCpjyckeXxN5ykzx5U4xk2LRETzgVg8NagkN5dWhpGauWtFeaUYFq+bGWFlRbbKgIm/DKXmlGRWs56oLPt1QDh2qccs+SagsAE8rrWibuZeI8hVYA+Zsn/ySPjbUZ3E5LNSwRk1rF2Ie6cphsFSiNmrlrqjbzvs9EREQJgIlIIiIiIqJFR+5mbSraHUyK5yIvuit24R5YwpKAzlOtwapHeSZ5R+iJJjREzQJvLKuVk2WwoWKC6rw5YyrHwfCu0M4aHLKZIiYQLNxbDtNoUtVZg0O28V3H5747tVw1aakOn6SnEFXVkVWeAABL9dj2jWU4EH5842mTMPtMREQ0v5iIJCIiIiJabOxHYI1IHhqxu8gUlSALT04GE5fBqsfwrtxyZWWM4QaMZagdrd6DDRUzTkaaECq2jCV/c2SFcXsbHGHdjM1mM8wlVjginp9inXPBeQqtsbYTR5XntCXKPhMREc0zJiKJiIho1sbGUJssUeFETal8gR3dZXGKtYeWm3gb0W3MMId1aRxlr4z9ONFiY2+MHBPQbDajxOoAIrpcjyYnG2EPjg8ZSlzm5sEU7Mrd3uYYnwwMZyxDbTAZOe1hI9vb4EA+pugBHcNYN+Oxn1rMWQFgcBzM1lOJdDaY530mIiJKAExEEhFNU3NzM3bt2qV0GESJx2SCCTYcmijJGKzgMpmms1InakpLYEXkuGgVEclEOyrNJbDmV4ddvNehHFaUzGd3UppTWVlZ6O7uVjqMRcKORhtgKq+LSlq1oNoCOBqaQp8P4+4ieWKamuD4kKECSnlW7dZTNZDnqZmPQQWDkzuNToITr6kqDuN6firB7ulhxyq2GNsJn2F8rizIPhMRESmPicgEcfjwYdx9991Kh0FEcXC5XJxQYREoLi5GXV2d0mEsM0U4UG6a4MJeTkiYyg+gaDqrdDahwTF+XLTwyWLslRWwmcpRFzE7gxFltdWwTJYYpYSiVquRmpqqdBiLg70RNkSO6Thq3AQ1xt0oMjlgtUYnBOVqSYfVClt0Us1eOa5y2H7EOs3kW/AmgsOC6unOnBJMktoORd9wCN5YiPW8vTJqApmpu04XVlXD4rCiJHpfgzNcj47jaKsIv6FhR2XFDJKrU1mgfSYiIlKaRukAiIgWmzNnzmDVqlVKh0GUkHJ3F8FkteKIvSxy1tbRyTAO5gINYw+HZoGNmIXajkpzBVDdgqpCufukrdGOqsJYl/2jlWG7Y3QrlSuebA1NcJZxlutE1tfXB6/XC4PBoHQoi4JdftOPH9MRCM2e3dDkRFmZEYARm/MBOMJnxZYZx55AxDOFVag7VYoSs3XsMVM56lqm+Bw5rJHLWKrRUjuTdJ0RZbV1QGlJ2PpMKK+rDSb/Yj1vQXVLcFvGMhywWFFRYYYNgKV6olmkC1HVUoe8iPUE4w72hy6sakE1zKgw20JPm8rrQs/PnYXaZyIiImUJkiS9DMztDb1E0tPTg61bt7KrDxHNmZ/85Cdwu92oqqpSOhSihOGsKUVJQxHqanejqTTYTTrsKtheaUYFqtFSlYua0hI0FNXJs73aK2GuaEV5Xdg4aPZKyHlIeaZaZ01pcOw7S+ixsA2jtMSK/AkuuuVl80PLxU58ktJOnDiB0tJSvPfee4ps32w24+jRo9i+fbsi2yeixPbjH/8YLpcLjz/+uNKhEBHFJSkpCX19fQl5k5dds4mIpun48eO45pprlA6DKEEZUXbAEjVzr33iMegK98ASMblGsNorrNujsaw2bNbeWJPVTDyTrFzxRYnu+PHj2LFjh9JhEBEREdE8YyIygeTn5+PkyZNKh0FEU6ivr0dxcbHSYVAc7r//fvz93/+90mEsP1HJRWfNIdhM5dg7QdfIveHjSjprcChW0tJYhtqWlrCEZHgycuJx0ZynWudgh2i+1dXVoaSkROkwiIiIiGieMRGZQO688040NTUpHQYRTUGSJKVDoDgVFxfj/fffVzqMZSiYXLQegR12HLE6YCqKNYajzLi7CKbg5BrOpobJJ8QwlqE2mIxstAMwymNItp6KPSFNe1uM8e8o4dTV1fEGDxEREdEywERkArn33ntx7733Kh0GEdGSsWvXLpw9exYvvfSS0qEsO8bdRXKysLIRNlhwYLKJHUZn9T1Sg6YGB0zle6cxeHUu8kyYYKbu4EQ2kyRBiYiIprJixQqsWLFC6TCIiOJ23XXXQaVKzJRfYka1TKWmpuK+++7Do48+qnQoRERLxpNPPon7779f6TCWH+NuFJkAmy1yvMcJGmN3kQmwWWF1mFAUPhWwvRLm0pqIJKP9iDWsatKIsoPlMDmsKKkMHznSiZrSCthM5Tg457PbEhHRcpKWloYPPvhA6TCIiOLS1dWFjz76CDqdTulQYmIiMsE88sgjaGxshNMZu4sZERFNz44dO1BUVISnn35a6VCWmeCkNTChPPbgkJGtyw7AAgCmIoTnIVFYhbqiBpSYzTAHfypay1EXPnu2sQy1LdWw2CpCbczmEjTkW+QEZfTkNg5rxPrGT35DREQ0ZsOGDQl7QU9EFK2rqwuFhfH3L1pogiRJLwPT6AG1yPT09GDr1q3o7u5WOpS4jYyMICsrC8PDw0qHQkRBO3bswDPPPMNZXRexm266CQ8//DB2796tdCgUkx2V5gq0ltehdo4rGJ01pSixOmCpbkHVkv3Gs/jce++9WLFiBSorK5UOBWazGUePHsX27duVDoWIEpRKpUIgEIAgCEqHQkQ0qSeffBJdXV144oknlA4lJo3SAdB4ycnJTEISJZA/+ZM/wXPPPYfNmzcrHQrNAseJTHD2RthgQvnuue9GbSyrRUvZnK+WZuG+++7DVVddhbvuukvpUIiI4lJWVoYXX3wRRUVFSodCRDSpt956C9/97neVDmNC7JpNRDSBlpYWZGZm4sknn2QSkmheOVFzyDa+WzYtOcPDw9i/fz8yMjKYhCSiReWRRx7BPffco3QYREST+tWvfgVJknDjjTcqHcqEmIhcRD788EOlQyBaNr71rW/hgQcewCeffIIvfelLSodD8+RnP/uZ0iEQAMCIstoWtNSWcXbrJezRRx/FmjVr8NWvfjUhumMTEU3Hpk2bUFFRgXvvvVfpUIiIYhJFEXfccQf+67/+S+lQJsVE5CLyox/9CJ/73Ofw0EMP4c0330R7ezu8Xq/SYREtaqIooqOjY9zj3/zmN/Hiiy9i9erVCkRFC6WxsRHr1q3DXXfdhYaGBjgcDgwMDCgdFtGiF2tsbkmSMDQ0hJKSEgUiIiKave9///s4fvw4mpublQ6FiGicW265Bc8995zSYUyJk9UsMidOnEB9fT0+/fRTvPzyyzh37hw8Hk9Em5UrV8Zctq+vj+3Yju3C2uXn5+Ptt99GTk4Ozpw5E3N5Wvr6+vpQX1+P5uZmHDt2DOfOnUN/f39Em0R4v7Id2y2WdsnJyfB6vejq6oq5fCLiZDVEFC+Xy4WbbroJDzzwAG+sEFHCuP3221FSUoI777xT6VCmxETkEnTp0qWYj69YsYLt2I7totpFP08US6K8X9mO7RZDu5SUFGi12pjLJiomIoloOiRJwm233YaUlBT8+7//u9LhENEy1tDQgG984xv4p3/6J5SVlSkdTlyYiCQiIiKiZY2JSCKaiV/84he477778J3vfAclJSXYtm2b0iER0TIgSRJ+/etf46233kJLSwueffZZpKamKh1W3DRKB0BERERERES02Hz729/Grbfeir/7u7/DnXfeid7eXuh0OhQUFKC1tVXp8IhoiVm1ahXefvttXHnllVi1ahW+9a1v4W//9m+VDmvalnwiUhAEXHvttUqHQUREREQJ6oorroBGs+S/FhPRPEhOTsajjz6KRx99FMPDw7h48SJ6enoQCASUDo2IlpikpCSsXbsWa9asUTqUWVnyXbMBwGAwoL+/H3q9XulQiIiIiCjBZGVl4eOPP0ZmZqbSoRAREREtaSqlA1gIhYWF6OzsVDoMIiIiIkowgUAAmzdvxurVq5UOhYiIiGjJWxaJyE2bNqGhoUHpMIiIiIgowfzhD3/A6tWrIQiC0qEQERERLXnLIhFZXFyMP/7xj0qHQUREREQJpqmpCbfddpvSYRAREREtC8siEXnzzTejvb0dr7zyitKhEBEREVGCaGtrw7PPPot9+/YpHQoRES1bJ2EtECAIAoT9LygdDNG8WzbTAz733HO44oor0NXVpXQoRERERJQAbr/9djz33HNKh0FERES0bCyLikgAyMzMxOOPP469e/cqHQoRERERKayyshI333wztm/frnQoRESUSF7YL1cnCgWwnlQ6mDgstnjjsRT3iUKWTSISAPbv34/LL78c3/nOd5QOhYiIiIgU8thjj6GnpwePPfaY0qEQERERLSvLKhEJAH/zN3+DTZs2IT8/H++9957S4RARERHRAjl37hyuv/569Pf341/+5V+UDoeIKPGcfAHW/QXBajS5Im1/dEnauDYCCgr2w/pCeLuxcQ/3v3ASL4Ta78cLYc8VWE/i5AtW7C+YZHtzsk35+Res+1FQMLYOoSByey/sFyB87engb6+iIj/W2I3yuguiYnkhzsq9ky/sD1u2APtfaJ2o5RzEO/U6pgh26vdDXMcj+jUPj2m+XoOp3g+kGEmSXpaWodbWVunqq6+WfvzjH0svvfSS0uEQERER0Tx5/fXXpSeeeELKycmRXnvtNaXDISJKTK3V0g2AhHE/N0jVrVO1kX/ueT60Mqn6hlht7pGeD3/uhhtirueG0AbnYZuTbO/5eyZoE9rI89I9E8YSdpwm8vw9E8YQuZ25iDe+dczq/RD38Zg8lvDXce5eg8neD6SkZTNZTbTLL78c7777Lp566ik89thjOHjwINrb23Httdeiu7tb6fCIiIiIaBY2bNjw/7d397xtW20YgB+PBbp069BR8hDkF1DDO0tZPKWjN2q0UCBbxmxepFHasmbKYmntYv6CIEOotUXnoujKd5BIkbIkyx+Mnea6AAOFSZ5zSAqocvuc88T19XX88ssv8ffff8evv/4af/zxx1MPC+DZWlyOIouIiCTG8/dx0e9ELBcxPH+3PmMZk/PaOfl1XHRidU53ELOImA2GcVZMo7/deDqPfNqPzrqdL+Xvs2xzrNZONrqMxcU0+o/cZ5LO4/2bfnS22sg+XMXy4iL60yKKs+F6Rl6tv/IZDVfnb49lcj6IUZbF6HIRF9MbI9k8v3flTL805vk0+p1lLIbdqCYAbnnYeJdHtdHZ1XEc83l4wPOo3vkket1VP7OPi5j2++29g8bngaf03QaRpeFwGMPhMP7555/4888/46+//op///33qYcFAMAD/PDDD/Hbb7/Fzz//HD/99NNTDwfgmVvExyoje7sKnSIiOv2YXq9DneVVfFglU5GM32/CoU4/3oyTmI2yiPgUX5YR/Ubak8Z8XwCUjDfh0K524rH67MTFdREX9VM6/ThLI2Z7QsCbNs9oeyyvXicxyrKI2cdYTPs3Q9GIref3Zj3eTvSneYw/dWOUNQb3CON9SBtHfB7u+zwa7/wi3qajVRD76Uss47ag8L7v4MBnkK/uuw8iSz/++GOcnp7G6enpUw8FAAAAvp7ll/i0/s/kRXf3OfnnKLOyl6fNSKdz+jIisojI4nMe0Uh80rPdwdxB63biMftcxmJ4Hu8+ZZFlNw7ervaMslE3Tka7TtoViq4deH57OnzYeB/SxjGfh4c+j/u4b5/3+gzSFkEkAAAA8B+2jElve9ZhG17GURnjrR5jvF/rng95rOfx3PvkLr67qtkAAADAbtnnPVWcuy8iWf/npy/NysnLL9X8udg3ge4Y+ecyNVu381h9Li6rQC4Z51EURRRFEfP0DoPrnMbLssdaG82fHXtVlg7cSyvjfYw24sDn4aHP4z6eok8enSASAAAAvmedV/G6TMlm72JS5mTLRUx6vRgumudko8vaOZM4rxKv1/HqLrPRslF0h4tVWZXlJKpaLmU7LfT5styNrd7f7sHF56t6YNiNF9VYzmOyqB1bLmIy7MXJcLG/uVqIlo0uY3X5qljNoVmL9x/vfdoox3rE5+Ghz+Moj/wOeB6Kovj9a5bpBqAoiiIvxkkUEVFEMi7ypx5DOn+SEQAA8EzM09X3wh0/1VfFA+dEJMW4+lJ76Htm7dht/T1an/MiPdBf8/v4jnPL9vJxkRxq55bv1Pk4OXjfm+sfY7x3aWOHYz4PRz+P/f/2madtvQP/1nmuzIgEvhnLSS9OTk7WP73NX+ZuHL95LGIRw+raYdz8O9nmeK928XIxiWGv2W+v/KstAAD8V/SnUeTjSJPa75Ik0nEe0379nHmkSdK4NEnHMc+vN1WMj5WMYz5PY9NaEum81t+j9dmPaT7furc05uNd65T7MW2MqVawpXMR1/k8xmnSOB7Jatz59PCi4M7FdeTjWttJEuN5Hvk42TrzMcZ7lzZ2NXvE5+GBz+NA5629A57eSVEUv0fE/556IACH3dxsORnncV3/5rEYxslgtvvYchK97qiqVJfOi+YXnNq15bHlpBfdfesk0nkUD/qfXO1+knHk1xfx9fdUro3hwffTourdJDG+zxfcb6VPAIDvwnP4Hgw8FTMigW/D8io+ZBERaaTrP+Jlo8vmzMb+WZR/39veVHl59SHqkeL+za7TOOtHRCzicrO7c8zz9ebHeR7z7b++AQAAALcSRALfhCpITM9ielbGjbP42EgiN5sXx+xjI6TcVOBbyT5c1ZZXL+PqQxk6vohuRMTyS1R1+F6/in75Z9pOJ/rT67g+ZvZguWFybVn38Oaa8SOuO4leb9jcjDmWMemtj/cmjXvZ/fuI5WIYvfpYFnsq4D3kfu449t5kuRpXb3ebi+FJNVM1IotRd31eYxPqZSyGvdq9rfpsdPmofS6b99jrbd0fAAAAuwgigW/AJihMz/qNmY+zRhLZiVdVebdPsZn0uIiP61wpKfeWyT7EpgBbHp+ronuvVktDGlXtzmN416BpOYledxCjWT0AzWI2Ot+xf+Vt10Vk2SxGg27cuwjcYhjdwaw2KzSL2WBwsELf7ePaup97jD0bdVfjqi7JYja6y30uYnjSjcEsa8x4zbJZDLq79gp9aJ/rpUT1e8yyGA0ud+w7CgAAQJ0gEnj+FpfrwCyJ1R7F/dhMimzOfOycVvFhVKuzq9mNabx9+3q9rHrX8SRevyqnPvbjTbVpdBazQXc9c+64QjWLy3I/ytUG1Ktl3VubRd+wjMl57bpqOfh8E7wOdhXauc0yJu/KGX7pepl5HvMj96mOOOZ+HjD2dB55UUSRj2MzoXV1Zn9aRFENtNbuekbqYjiI2Y4+V68ui9Hlnqd13z6rLQIi0vGx7xUAgI1OXFyvv1/ZHxK+O4JI4NlbVNMZX0eZE/b3Lc/eMVuyWtadvIhufzPT8cbxeBmntW9CN6raRRaz0SC6O6tyN0ZczcCM9G1clOu6O/2YXh8ofFILuZLx+815nXooWp/peaRGu2/Wy8w70Z/mcaNA305H3M99x56MI5/217NQL+Jt+fI+fTki8K3NdN3qs5oZuxVUP7zPjdnnq1guY/0cpvFMS/0AAAA8G4JI4JmrhU3lsumIA8uza7Ml18FSuT/k6vr9xyM9uxEmdS6mcV3kMd8KJEfdAzMT6/tLrqZwHif/XC0vfnnaTCt3zvR8hHaPcsz9tDX2I8eVjbqNfSk31c7vEdweUg8uZ6PodnftRwkAAMAugkjgeVt8jKpsSCNsGlS/j9m7xgzF7ov6PpCbILMMyPYd3x8adqJfBpLVcubtQjk8T81Zro+hP80jn2+C6dV+lPdZMg8AAPB9EUQCz1q1LPugLD5sKs9E51VtH8irzf6PZc647/hmf8h9OrUl4cfJ7jIFsPuiCrc+bU3jW36p5iTGXSZZ3tbuXe29n7bGfkitoFBS7td446eNJdOd6PSncV0Ukc83WwS8O6YiOgAAwHdMEAk8Y/U9AHcFTZtCKNmHq83+fp1XUW0ROFoXUKntL3nr8YiIxTBOesOY1NfcLhe1oi8HQrVa+43ZmstFTHq9/dWZa9dlo8tGNerzcqlxNc5ObFY8lxXAl7EYdm9Wwm5UAL9cLyPec+597+dOY7+vLD5f1cO+blSTW0fnN9/VsBcn9y4zvqfP5aSxFLtTC2DvtewdAADgOyKIBJ6t5eRdVRF592zF2n6PVRgX0QjpSi9PaxX5bjtetjmL0aC2HLw7qIK7RnGUGzpxUW0kmMWoW7/+UPJXv25Wu65Wjfr9prLgZnZm2Uc3BrOIJNmuQFMvGDOLQe3c4xxzP3cb+53U9wMtl+ev0s+4eD+uZrfeeFezY1LWu/YZEVn5DOv3l8aZajUAAAAHCSKBZ6sqInNgJl09jKsvz+6f1YvLJJFupUTNJdY3j0f/zWofwK1QL0nSmOd5XO9PIdfXT6PIx5HWL0+SSMd5TA8FVv1pFPk80u1+03HM862K2/1pY6/CiCTSeR7Xb7dT1h0VwJMkxvM88uPKZh93P3cZ+530Y9q4z9p+np2LuM7nMU6TxvFIVs8iP/iw79Fn5yLej7d+n6Qxz1XNBgAAuM1JURS/R8T/nnogAAAAAMB/lxmRAAAAAEDrBJEAAAAAQOsEkQAAAABA6wSRAAAAAEDrBJEAAAAAQOsEkQAAAABA6wSRAAAAAEDrBJEAAAAAQOsEkQAAAABA6wSRAAAAAEDrBJEAAAAAQOsEkQAAAABA6wSRAAAAAEDrBJEAAAAAQOsEkQAAAABA6wSRAAAAAEDrBJEAAAAAQOsEkQAAAABA6wSRAAAAAEDrBJEAAAAAQOsEkQAAAABA6wSRAAAAAEDrBJEAAAAAQOsEkQAAAABA6wSRAAAAAEDrBJEAAAAAQOsEkQAAAABA6wSRAAAAAEDrBJEAAAAAQOsEkQAAAABA6wSRAAAAAEDrBJEAAAAAQOsEkQAAAABA6wSRAAAAAEDrBJEAAAAAQOsEkQAAAABA6wSRAAAAAEDrBJEAAAAAQOsEkQAAAABA6wSRAAAAAEDrBJEAAAAAQOsEkQAAAABA6wSRAAAAAEDr/g/HoPJ+oHWfWAAAAABJRU5ErkJggg==;" vertex="1" parent="1">
          <mxGeometry x="-260" y="-324.61" width="1150" height="884.61" as="geometry" />
        </mxCell>
      </root>
    </mxGraphModel>
  </diagram>
</mxfile>
